<svg width="91" height="91" viewBox="0 0 91 91" fill="none" xmlns="http://www.w3.org/2000/svg">
<circle cx="45.7717" cy="45.1291" r="44.25" stroke="url(#paint0_linear)" stroke-width="1.75828"/>
<path d="M70.0045 38.7251C70.1244 38.6558 70.224 38.5562 70.2931 38.4361C70.3623 38.3161 70.3985 38.18 70.3983 38.0415V31.741C70.3985 31.6025 70.3623 31.4663 70.2931 31.3463C70.224 31.2263 70.1244 31.1266 70.0045 31.0574L64.4916 27.9071C64.3726 27.8392 64.2379 27.8034 64.1009 27.8034C63.9639 27.8034 63.8293 27.8392 63.7103 27.9071L58.1974 31.0574C58.0762 31.1258 57.9754 31.2251 57.9051 31.3452C57.8348 31.4653 57.7976 31.6019 57.7973 31.741V33.617L53.0719 31.2543V25.4405C53.0722 25.302 53.0359 25.1658 52.9668 25.0458C52.8976 24.9258 52.7981 24.8261 52.6781 24.7569L47.1652 21.6066C47.0462 21.5387 46.9116 21.5029 46.7745 21.5029C46.6375 21.5029 46.5029 21.5387 46.3839 21.6066L40.871 24.7569C40.7499 24.8253 40.649 24.9247 40.5788 25.0447C40.5085 25.1648 40.4713 25.3014 40.4709 25.4405V31.2543L35.7455 33.617V31.741C35.7458 31.6025 35.7095 31.4663 35.6404 31.3463C35.5713 31.2263 35.4717 31.1266 35.3517 31.0574L29.8388 27.9071C29.7198 27.8392 29.5852 27.8034 29.4482 27.8034C29.3112 27.8034 29.1765 27.8392 29.0575 27.9071L23.5446 31.0574C23.4235 31.1258 23.3227 31.2251 23.2524 31.3452C23.1821 31.4653 23.1449 31.6019 23.1445 31.741V38.0415C23.1443 38.18 23.1805 38.3161 23.2497 38.4361C23.3188 38.5562 23.4184 38.6558 23.5383 38.7251L28.6575 41.6485V48.6106L23.5383 51.534C23.4184 51.6032 23.3188 51.7029 23.2497 51.8229C23.1805 51.9429 23.1443 52.0791 23.1445 52.2176V58.5181C23.1443 58.6566 23.1805 58.7927 23.2497 58.9128C23.3188 59.0328 23.4184 59.1324 23.5383 59.2017L29.0512 62.3519C29.1702 62.4199 29.3049 62.4556 29.4419 62.4556C29.5789 62.4556 29.7135 62.4199 29.8325 62.3519L34.9367 59.438L40.4709 62.893V64.8186C40.4706 64.9571 40.5069 65.0932 40.576 65.2132C40.6452 65.3333 40.7447 65.4329 40.8647 65.5022L46.3776 68.6524C46.4966 68.7204 46.6312 68.7561 46.7682 68.7561C46.9053 68.7561 47.0399 68.7204 47.1589 68.6524L52.6718 65.5022C52.7929 65.4337 52.8938 65.3344 52.964 65.2143C53.0343 65.0943 53.0715 64.9577 53.0719 64.8186V62.893L58.6029 59.4356L63.7071 62.3496C63.8261 62.4175 63.9608 62.4533 64.0978 62.4533C64.2348 62.4533 64.3694 62.4175 64.4884 62.3496L70.0013 59.1993C70.1215 59.1307 70.2215 59.0316 70.2912 58.912C70.3609 58.7924 70.3978 58.6565 70.3983 58.5181V52.2176C70.3985 52.0791 70.3623 51.9429 70.2931 51.8229C70.224 51.7029 70.1244 51.6032 70.0045 51.534L64.8853 48.6106V41.6485L70.0045 38.7251ZM64.8853 39.8348V35.3457L68.8231 33.0956V37.5847L64.8853 39.8348ZM64.0978 54.4606L60.1718 52.2176L64.0978 49.9746L68.0238 52.2176L64.0978 54.4606ZM59.3724 33.0979L63.3102 35.348V39.8371L59.3724 37.5847V33.0979ZM64.0978 29.498L68.0238 31.741L64.0978 33.984L60.1718 31.741L64.0978 29.498ZM46.7714 60.7642L42.8454 58.5181L46.7714 56.2751L50.6974 58.5181L46.7714 60.7642ZM42.046 43.3363L45.9838 45.5863V50.0754L42.046 47.823V43.3363ZM47.559 45.5863L51.4968 43.3363V47.8254L47.559 50.0754V45.5863ZM46.7714 44.2223L42.8454 41.9793L46.7714 39.7363L50.6974 41.9793L46.7714 44.2223ZM42.046 26.7975L45.9838 29.0475V33.5366L42.046 31.2842V26.7975ZM47.559 29.0475L51.4968 26.7975V31.2866L47.559 33.5366V29.0475ZM46.7714 23.1975L50.6974 25.4405L46.7714 27.6835L42.8454 25.4405L46.7714 23.1975ZM30.2326 35.348L34.1704 33.0979V37.5871L30.2326 39.8371V35.348ZM29.445 29.498L33.371 31.741L29.445 33.984L25.519 31.741L29.445 29.498ZM24.7197 33.0979L28.6575 35.348V39.8371L24.7197 37.5847V33.0979ZM29.445 54.4606L25.519 52.2176L29.445 49.9746L33.371 52.2176L29.445 54.4606ZM24.7197 53.5746L28.6575 55.8246V60.3137L24.7197 58.0613V53.5746ZM30.2326 60.3114V55.8223L34.1704 53.5722V58.0613L30.2326 60.3114ZM35.7455 58.081V52.2176C35.7458 52.0791 35.7095 51.9429 35.6404 51.8229C35.5713 51.7029 35.4717 51.6032 35.3517 51.534L30.2326 48.6106V41.6485L35.3517 38.7251C35.4717 38.6558 35.5713 38.5562 35.6404 38.4361C35.7095 38.3161 35.7458 38.18 35.7455 38.0415V35.3779L41.234 32.6341L45.9838 35.348V38.3723L40.8647 41.2957C40.7447 41.3649 40.6452 41.4646 40.576 41.5846C40.5069 41.7046 40.4706 41.8408 40.4709 41.9793V48.2798C40.4706 48.4183 40.5069 48.5544 40.576 48.6744C40.6452 48.7945 40.7447 48.8941 40.8647 48.9634L45.9838 51.8868V54.9111L40.8647 57.8345C40.7447 57.9037 40.6452 58.0034 40.576 58.1234C40.5069 58.2434 40.4706 58.3796 40.4709 58.5181V61.0383L35.7455 58.081ZM42.046 59.8751L45.9838 62.1251V66.6142L42.046 64.3618V59.8751ZM47.559 66.6119V62.1228L51.4968 59.8727V64.3618L47.559 66.6119ZM52.6781 57.8345L47.559 54.9111V51.8868L52.6781 48.9634C52.7981 48.8941 52.8976 48.7945 52.9668 48.6744C53.0359 48.5544 53.0722 48.4183 53.0719 48.2798V41.9793C53.0722 41.8408 53.0359 41.7046 52.9668 41.5846C52.8976 41.4646 52.7981 41.3649 52.6781 41.2957L47.559 38.3723V35.348L52.3087 32.6341L57.7973 35.3779V38.0415C57.797 38.18 57.8333 38.3161 57.9024 38.4361C57.9715 38.5562 58.0711 38.6558 58.1911 38.7251L63.3102 41.6485V48.6106L58.1911 51.534C58.0711 51.6032 57.9715 51.7029 57.9024 51.8229C57.8333 51.9429 57.797 52.0791 57.7973 52.2176V58.081L53.0719 61.0383V58.5181C53.0722 58.3796 53.0359 58.2434 52.9668 58.1234C52.8976 58.0034 52.7981 57.9037 52.6781 57.8345ZM59.3724 53.5746L63.3102 55.8246V60.3137L59.3724 58.0613V53.5746ZM64.8853 60.3114V55.8223L68.8231 53.5722V58.0613L64.8853 60.3114Z" fill="white"/>
<defs>
<linearGradient id="paint0_linear" x1="94.8009" y1="45.1291" x2="11.9249" y2="45.1291" gradientUnits="userSpaceOnUse">
<stop stop-color="white"/>
<stop offset="1" stop-color="white" stop-opacity="0"/>
</linearGradient>
</defs>
</svg>
