<svg width="68" height="67" viewBox="0 0 68 67" fill="none" xmlns="http://www.w3.org/2000/svg">
<circle cx="34.1144" cy="33.3629" r="32.6679" stroke="url(#paint0_linear)" stroke-width="1.39012"/>
<g clip-path="url(#clip0)">
<path d="M49.5978 32.7478C50.5628 27.5063 48.9874 20.3011 43.247 16.8677C39.6214 14.8338 35.345 14.2956 31.3285 15.3679C25.7649 16.8556 21.6754 20.848 20.3894 26.0473C20.1027 27.1018 19.9812 28.1945 20.0293 29.2863C20.0909 29.9637 20.2159 30.6338 20.4028 31.2878C20.6541 32.1202 20.7786 32.9857 20.7719 33.8552C20.746 34.8903 20.033 35.9642 19.4033 36.9118C18.7169 37.9459 18.124 38.8389 18.4678 39.6625C18.7941 40.2208 19.3684 40.5886 20.0119 40.6517C20.049 40.6584 20.0865 40.6622 20.1241 40.6632C20.2961 40.6421 20.4685 40.6991 20.5939 40.8187C20.7193 40.9383 20.7846 41.1077 20.7719 41.2805C20.7719 42.564 20.8039 43.2263 21.3341 43.53C21.2878 43.6265 21.2555 43.7292 21.2382 43.8348C21.1849 44.1972 21.3154 44.5622 21.5862 44.8086C21.8554 45.0694 22.1965 45.2436 22.5657 45.3086C22.5916 45.3147 22.6164 45.3192 22.6405 45.3249C22.6551 45.4168 22.6615 45.5097 22.6598 45.6027C22.6554 45.8324 22.6391 46.0618 22.6109 46.2898C22.5084 47.2777 22.3679 48.631 24.3444 49.277C24.7411 49.3878 25.1523 49.4379 25.564 49.4253C27.4356 49.3422 29.2853 48.9876 31.055 48.3728C31.5659 49.2638 31.874 50.2565 31.957 51.2804C31.9569 51.4441 32.022 51.6013 32.1379 51.7172C32.2537 51.833 32.4108 51.898 32.5747 51.898H48.0157C48.2798 51.8948 48.5122 51.7227 48.5924 51.471C48.6736 51.2158 48.5851 50.9371 48.3716 50.7755C47.7326 50.2903 45.6162 45.178 45.5512 43.3417C45.7377 42.9182 45.9876 42.4427 46.2834 41.8903C47.8946 39.051 49.0151 35.96 49.5978 32.7478ZM44.3113 43.2797C44.327 44.7568 45.6587 48.6598 46.8027 50.6628H33.14C32.9862 49.7164 32.6796 48.8014 32.2321 47.9535C34.0216 47.2521 35.598 46.3503 36.3546 45.3607C36.5606 45.0895 36.5083 44.7028 36.2377 44.496C35.9671 44.2892 35.5803 44.3404 35.3727 44.6103C33.6247 46.8975 26.3517 48.6341 24.728 48.1029C23.6996 47.7667 23.7406 47.3719 23.8395 46.4177C23.8723 46.1472 23.8908 45.8752 23.895 45.6029C23.895 44.5621 23.4752 44.2515 22.8443 44.1052C22.7252 44.0882 22.6115 44.0442 22.5119 43.9767C22.6331 43.8608 22.7707 43.7634 22.9203 43.6875C23.1781 43.5608 23.3146 43.2732 23.2496 42.9934C23.1846 42.7135 22.9355 42.5154 22.6482 42.5152C22.4251 42.5152 22.1772 42.5152 22.0469 42.4989C22.0076 42.094 21.9943 41.6871 22.0071 41.2806C22.0191 40.7935 21.834 40.3222 21.4937 39.9737C21.1533 39.6251 20.6866 39.4287 20.1994 39.4291C19.7542 39.3353 19.6191 39.2147 19.6077 39.1867C19.5178 38.9723 20.1131 38.0766 20.4328 37.5953C21.1186 36.5626 21.9721 35.2773 22.0071 33.8867C22.0244 33.1151 21.9385 32.3446 21.7518 31.5957C22.4253 31.003 23.2201 30.5647 24.0807 30.3114C24.3874 30.2579 24.7026 30.28 24.9987 30.3756C25.3276 30.4663 25.6675 30.2732 25.7581 29.9444C25.8488 29.6156 25.6557 29.2756 25.3269 29.185C24.8405 29.0353 24.3249 29.0071 23.825 29.1026C22.9522 29.325 22.1365 29.7301 21.4318 30.2912C21.3474 29.9314 21.2903 29.5657 21.261 29.1973C21.2191 28.2348 21.3297 27.2717 21.5885 26.3437C22.7828 21.5168 26.4488 17.9513 31.6481 16.5609C35.3414 15.5704 39.2755 16.0609 42.6125 17.928C47.8474 21.0588 49.2732 27.6888 48.383 32.524C47.8279 35.6119 46.7496 38.5824 45.1946 41.3073C44.855 41.941 44.5619 42.4881 44.3502 42.9944C44.3144 43.085 44.301 43.1828 44.3113 43.2797Z" fill="white"/>
<path d="M45.537 34.1593C45.6254 33.2066 44.9731 32.3435 44.0324 32.1683L42.8497 30.5288C42.9222 30.3951 42.9778 30.2528 43.0151 30.1052L44.1605 29.6472C44.6896 30.2494 45.5464 30.442 46.2822 30.1242C47.018 29.8064 47.4652 29.0505 47.3895 28.2526C47.3138 27.4546 46.7323 26.7964 45.9498 26.6227L45.0219 24.7717C45.6728 24.1085 45.729 23.0647 45.153 22.3355C44.577 21.6062 43.5486 21.419 42.7527 21.8986L41.7179 21.0395C41.7962 20.8348 41.8372 20.6178 41.8389 20.3987C41.8406 19.6419 41.3809 18.9606 40.6786 18.6788C39.9763 18.3969 39.1731 18.5716 38.6513 19.1196L36.8201 18.6618C36.6008 17.8675 35.8805 17.3156 35.0564 17.3106C34.2324 17.3056 33.5054 17.8487 33.2765 18.6403L30.8293 19.1297C30.191 18.4414 29.1374 18.3424 28.3821 18.9C27.6268 19.4574 27.4109 20.4933 27.8805 21.3062L26.6814 22.9031C25.8221 23.0584 25.1889 23.7942 25.1634 24.667C25.1378 25.5398 25.7269 26.3113 26.5757 26.5167L27.5672 28.9645C27.0232 29.4985 26.8626 30.3116 27.1627 31.0125C27.4628 31.7133 28.1621 32.1582 28.924 32.133C29.6858 32.1078 30.3543 31.6178 30.6075 30.8987H33.9235C34.2003 31.7503 35.0643 32.2659 35.9452 32.1054L37.9956 35.2243C37.4696 35.8076 37.3696 36.6595 37.7463 37.3487C38.123 38.0378 38.8941 38.4137 39.669 38.2858C40.4439 38.1579 41.0533 37.5542 41.1886 36.7806L42.7192 35.5571C43.0105 35.7408 43.3476 35.8388 43.6919 35.8399C44.6488 35.8406 45.4487 35.1121 45.537 34.1593ZM45.5449 27.8104C45.8538 27.8097 46.1157 28.0374 46.1579 28.3434C46.2003 28.6493 46.01 28.9396 45.7126 29.0228C45.4152 29.1061 45.1019 28.9567 44.9792 28.6732C44.9771 28.6676 44.9783 28.6617 44.976 28.6561L44.9721 28.6501C44.9434 28.5795 44.9281 28.5042 44.9272 28.428C44.9276 28.0871 45.2039 27.8107 45.5449 27.8104ZM43.0873 23.3613C43.1466 23.0746 43.3992 22.869 43.692 22.8692C44.0331 22.8692 44.3096 23.1457 44.3096 23.4868C44.3096 23.828 44.0331 24.1045 43.692 24.1045C43.6156 24.1035 43.5401 24.0882 43.4693 24.0594L43.464 24.056C43.4586 24.0538 43.4529 24.0549 43.4473 24.0528C43.1783 23.937 43.0279 23.6481 43.0873 23.3613ZM42.4728 24.8712L41.3315 27.725L39.3307 26.1244C39.6021 25.8929 39.8004 25.5875 39.9018 25.2454L42.3489 24.7559C42.3878 24.7971 42.4303 24.8338 42.4728 24.8712ZM41.8153 29.8302C41.7321 30.1273 41.4424 30.3173 41.1367 30.2752C40.8311 30.2331 40.6035 29.9719 40.6038 29.6633C40.6041 29.3223 40.8804 29.046 41.2214 29.0457C41.2978 29.0466 41.3733 29.0619 41.4441 29.0907L41.4494 29.0942C41.455 29.0964 41.4608 29.0955 41.4664 29.0975C41.7495 29.2203 41.8984 29.5331 41.8153 29.8302ZM39.9861 19.7811C40.3272 19.7811 40.6037 20.0575 40.6037 20.3987C40.6037 20.7398 40.3271 21.0163 39.9861 21.0163C39.645 21.0163 39.3685 20.7398 39.3685 20.3987C39.3688 20.0577 39.6451 19.7814 39.9861 19.7811ZM36.7358 19.9139L38.1466 20.2667C38.1433 20.3111 38.1332 20.3535 38.1332 20.3987C38.1343 21.4216 38.9633 22.2506 39.9862 22.2517C40.3174 22.2499 40.642 22.1585 40.9254 21.9871L41.9602 22.8461C41.8819 23.0508 41.8408 23.2678 41.8391 23.487C41.8391 23.5243 41.848 23.5593 41.8501 23.5961L39.8385 23.9984C39.5863 23.4113 39.0493 22.9954 38.4178 22.8981L36.1563 20.6367C36.4074 20.4485 36.6068 20.1999 36.7358 19.9139ZM38.7509 24.7222C38.7509 25.0633 38.4744 25.3398 38.1332 25.3398C37.7923 25.3395 37.5159 25.0632 37.5156 24.7222C37.5156 24.3811 37.7921 24.1046 38.1332 24.1046C38.4744 24.1046 38.7509 24.3811 38.7509 24.7222ZM35.045 18.5457C35.3861 18.5457 35.6626 18.8222 35.6626 19.1634C35.6626 19.5045 35.3861 19.781 35.045 19.781C34.7039 19.781 34.4274 19.5045 34.4274 19.1634C34.4277 18.8225 34.704 18.5461 35.045 18.5457ZM35.1674 21.3948L37.0218 23.249C36.7335 23.4668 36.5153 23.7642 36.3941 24.1045H34.9311C34.7853 23.6956 34.5003 23.351 34.1259 23.1309L35.1674 21.3948ZM31.3281 20.2896L33.3397 19.8873C33.4976 20.2514 33.768 20.5554 34.1112 20.7546L32.99 22.6233L31.0518 21.3796C31.2385 21.0864 31.3381 20.7462 31.3391 20.3987C31.3391 20.3613 31.3302 20.3264 31.3281 20.2896ZM33.8097 24.7222C33.8097 25.0633 33.5332 25.3398 33.1921 25.3398C32.8511 25.3395 32.5747 25.0632 32.5745 24.7222C32.5745 24.3811 32.8509 24.1046 33.1921 24.1046C33.5332 24.1046 33.8097 24.3811 33.8097 24.7222ZM29.4862 19.7811C29.8273 19.7811 30.1038 20.0575 30.1038 20.3987C30.1038 20.7398 29.8273 21.0163 29.4862 21.0163C29.1451 21.0163 28.8686 20.7398 28.8686 20.3987C28.8689 20.0577 29.1452 19.7814 29.4862 19.7811ZM28.814 22.1208C29.1903 22.276 29.6092 22.2937 29.9973 22.171L31.9043 23.3946C31.7013 23.5934 31.5469 23.8364 31.453 24.1045H28.7547C28.6199 23.7222 28.3635 23.3946 28.0248 23.1718L28.814 22.1208ZM27.0156 25.3398C26.6745 25.3398 26.398 25.0633 26.398 24.7222C26.3983 24.3812 26.6746 24.1049 27.0156 24.1046C27.3567 24.1046 27.6332 24.3811 27.6332 24.7222C27.6332 25.0633 27.3567 25.3398 27.0156 25.3398ZM28.8685 30.8986C28.5274 30.8986 28.2509 30.6221 28.2509 30.281C28.2509 29.9399 28.5274 29.6634 28.8685 29.6634C29.2097 29.6634 29.4861 29.9399 29.4861 30.281C29.4859 30.622 29.2095 30.8983 28.8685 30.8986ZM29.2198 28.4635C29.1041 28.4405 28.9864 28.4287 28.8685 28.428C28.8074 28.428 28.7496 28.4402 28.69 28.4461L27.8483 26.3683C28.271 26.1541 28.5953 25.786 28.7547 25.3398H31.4529C31.5642 25.6509 31.7568 25.9265 32.0107 26.1378L29.2198 28.4635ZM33.9235 29.6633H30.6076C30.5417 29.4783 30.4465 29.305 30.3258 29.1501L33.3591 26.6223L34.3921 28.9391C34.181 29.1401 34.0205 29.3883 33.9235 29.6633ZM34.9311 25.3398H36.3942C36.54 25.7488 36.825 26.0934 37.1994 26.3134L35.9152 28.4536C35.8317 28.4393 35.7474 28.4308 35.6627 28.4281C35.6148 28.4281 35.5699 28.4386 35.5229 28.4422L34.4626 26.0641C34.6737 25.863 34.8342 25.6148 34.9311 25.3398ZM35.6626 30.8986C35.3215 30.8986 35.045 30.6221 35.045 30.281C35.045 29.9399 35.3216 29.6634 35.6626 29.6634C36.0037 29.6634 36.2802 29.9399 36.2802 30.281C36.2799 30.622 36.0036 30.8983 35.6626 30.8986ZM38.2991 26.8812L40.0239 28.2612C39.7526 28.4928 39.5542 28.7982 39.4529 29.1402L37.3679 29.5572C37.282 29.3598 37.1624 29.1789 37.0145 29.0226L38.2991 26.8812ZM39.3685 37.075C39.0273 37.075 38.7509 36.7985 38.7509 36.4574C38.7509 36.1163 39.0273 35.8398 39.3685 35.8398C39.7096 35.8398 39.9861 36.1163 39.9861 36.4574C39.9858 36.7984 39.7095 37.0747 39.3685 37.075ZM41.839 33.9869C41.8413 34.1932 41.8784 34.3977 41.9488 34.5917L40.9062 35.4251C40.5163 34.8162 39.7971 34.5032 39.0858 34.6331L37.0354 31.5141C37.2186 31.3099 37.3538 31.0673 37.4311 30.8042L39.5161 30.3872C39.9136 31.326 40.9955 31.7665 41.9357 31.3723L42.6977 32.4285C42.1639 32.7671 41.8401 33.3548 41.839 33.9869ZM42.4406 28.279L43.6191 25.3325C43.6437 25.3335 43.667 25.3398 43.6919 25.3398C43.7663 25.3369 43.8405 25.3294 43.9141 25.3174L44.6619 26.8092C44.0665 27.1304 43.6943 27.7515 43.6919 28.4281C43.6919 28.4531 43.6984 28.4763 43.6993 28.5012L42.8689 28.8332C42.7627 28.6229 42.6173 28.4348 42.4406 28.279ZM43.6919 34.6045C43.3508 34.6045 43.0743 34.328 43.0743 33.9869C43.0747 33.6459 43.351 33.3695 43.6919 33.3692C44.0331 33.3692 44.3096 33.6457 44.3096 33.9869C44.3096 34.328 44.0331 34.6045 43.6919 34.6045Z" fill="white"/>
</g>
<defs>
<linearGradient id="paint0_linear" x1="70.3605" y1="33.3629" x2="9.0922" y2="33.3629" gradientUnits="userSpaceOnUse">
<stop stop-color="white"/>
<stop offset="1" stop-color="white" stop-opacity="0"/>
</linearGradient>
<clipPath id="clip0">
<rect width="37.0699" height="37.0699" fill="white" transform="translate(15.5791 14.8281)"/>
</clipPath>
</defs>
</svg>
