<svg width="86" height="85" viewBox="0 0 86 85" fill="none" xmlns="http://www.w3.org/2000/svg">
<circle cx="42.821" cy="42.4421" r="41.5579" stroke="url(#paint0_linear)" stroke-width="1.76842"/>
<g clip-path="url(#clip0)">
<path d="M26.9049 58.0127C24.3718 58.0127 22.311 60.0735 22.311 62.6064C22.311 65.1394 24.3718 67.2002 26.9049 67.2002C29.4379 67.2002 31.4987 65.1394 31.4987 62.6064C31.4987 60.0735 29.4379 58.0127 26.9049 58.0127ZM26.9049 65.7495C25.1717 65.7495 23.7617 64.3395 23.7617 62.6064C23.7617 60.8734 25.1717 59.4634 26.9049 59.4634C28.638 59.4634 30.0481 60.8734 30.0481 62.6064C30.0481 64.3395 28.638 65.7495 26.9049 65.7495Z" fill="white" stroke="white" stroke-width="0.1"/>
<path d="M67.3851 33.2875C67.3824 33.2801 67.379 33.2732 67.3761 33.266C67.3758 33.2652 67.3756 33.2643 67.3753 33.2636C67.3744 33.2613 67.3732 33.2593 67.3724 33.2571C67.3655 33.2404 67.3583 33.2238 67.3504 33.2079C66.8171 31.9434 65.5862 31.1446 63.6876 30.8352C62.2393 30.599 60.3468 30.6431 58.0583 30.9652C57.6376 30.4074 57.1858 29.8717 56.7041 29.3608C58.1377 28.1447 59.0498 26.3319 59.0498 24.3092C59.0498 20.6564 56.078 17.6846 52.4251 17.6846C49.0106 17.6846 46.1919 20.2812 45.8382 23.6033C44.8459 23.4453 43.8345 23.3644 42.8207 23.3644C38.4816 23.3644 34.2347 24.8602 30.8621 27.5763C27.5398 30.252 25.1848 34.0016 24.2308 38.1345C24.1406 38.5248 24.384 38.9143 24.7744 39.0044C24.8292 39.0171 24.8841 39.0232 24.9381 39.0232C25.2683 39.0232 25.5667 38.7963 25.6442 38.4609C26.5254 34.6431 28.7017 31.179 31.772 28.7062C34.9327 26.1607 38.7534 24.8151 42.8206 24.8151C43.8386 24.8151 44.8536 24.903 45.8458 25.075C46.2269 28.3682 49.0313 30.9339 52.4252 30.9339C53.5285 30.9339 54.5689 30.6613 55.4849 30.1821C57.4244 32.1848 58.8621 34.6158 59.6755 37.2675C59.1813 37.5941 58.622 37.946 57.9849 38.325C50.5823 42.8003 37.142 47.8305 28.6303 49.31C27.9216 49.4383 27.286 49.5373 26.7127 49.614C26.3587 48.821 26.067 48.0091 25.8362 47.1814C25.8306 47.155 25.8233 47.1288 25.8148 47.1028C25.4025 45.5971 25.1929 44.0389 25.1929 42.4425C25.1929 42.1042 25.2026 41.7625 25.2217 41.427C25.2443 41.027 24.9385 40.6845 24.5385 40.6617C24.1391 40.6394 23.7958 40.9448 23.7732 41.3448C23.7526 41.7076 23.7423 42.0769 23.7423 42.4425C23.7423 42.9126 23.7607 43.3792 23.794 43.8429C21.6334 45.2469 20.1297 46.5042 19.2065 47.6791C18.1395 49.0369 17.8179 50.3475 18.2485 51.5753C18.2509 51.5826 18.2525 51.5899 18.255 51.5973C18.6735 52.7834 19.9486 54.1852 23.6375 54.1852C23.6929 54.1852 23.749 54.1849 23.8054 54.1842C24.9269 54.1707 26.1791 54.0685 27.5516 53.8804C29.2494 56.1418 31.4526 58.0234 33.9498 59.3371C36.665 60.7656 39.7326 61.5206 42.8208 61.5206C48.4224 61.5206 53.7194 59.0723 57.3539 54.8035C57.6136 54.4985 57.5768 54.0408 57.2718 53.781C56.9668 53.5213 56.509 53.5582 56.2493 53.8631C52.891 57.8076 47.9965 60.07 42.8208 60.07C37.5393 60.07 32.5306 57.6801 29.195 53.6244C30.4007 53.4147 31.6863 53.1466 33.0479 52.8206C33.4374 52.7272 33.6777 52.3359 33.5844 51.9462C33.4911 51.5566 33.099 51.3163 32.7101 51.4098C30.9296 51.8362 29.2873 52.1606 27.7933 52.3818C27.7891 52.3823 27.7851 52.383 27.7809 52.3835C26.3008 52.6023 24.9664 52.7196 23.7887 52.7337C20.8282 52.7682 19.8903 51.8717 19.6233 51.1148C19.6233 51.1147 19.6233 51.1147 19.6232 51.1146C19.6228 51.1133 19.6225 51.1121 19.622 51.1108C19.0971 49.6519 20.5249 47.7987 23.9794 45.4608C24.0631 45.9893 24.1689 46.5128 24.2969 47.0308C22.8947 48.0465 21.8552 49.0022 21.2039 49.8763C21.2012 49.8797 21.1986 49.8833 21.1959 49.8868C21.193 49.8906 21.1898 49.8945 21.187 49.8984C21.1839 49.9026 21.1814 49.9071 21.1784 49.9114C21.1691 49.9247 21.16 49.938 21.1515 49.9519C21.1462 49.9606 21.1414 49.9694 21.1365 49.9782C21.1301 49.9899 21.1237 50.0015 21.1179 50.0135C21.1122 50.0252 21.1071 50.0372 21.1021 50.0493C21.0992 50.0561 21.0958 50.0625 21.0932 50.0694C21.0919 50.0727 21.0911 50.076 21.09 50.0793C21.0852 50.0922 21.0812 50.1052 21.0772 50.1183C21.074 50.1287 21.0706 50.1393 21.068 50.1497C21.0651 50.1609 21.063 50.1722 21.0607 50.1836C21.0581 50.1963 21.0554 50.2091 21.0534 50.222C21.0522 50.2305 21.0514 50.239 21.0504 50.2475C21.0487 50.2631 21.0469 50.2785 21.0463 50.294C21.046 50.3 21.0462 50.3059 21.046 50.3119C21.0456 50.3297 21.0454 50.3474 21.0463 50.365C21.0465 50.3695 21.0471 50.374 21.0474 50.3785C21.0487 50.3972 21.0504 50.4159 21.0531 50.4343C21.0538 50.4391 21.055 50.4438 21.0558 50.4486C21.0587 50.4664 21.062 50.4843 21.0664 50.5018C21.0679 50.5081 21.07 50.5143 21.0717 50.5206C21.0761 50.5364 21.0804 50.552 21.0858 50.5674C21.0886 50.5755 21.0921 50.5835 21.0952 50.5916C21.1003 50.6049 21.1055 50.6183 21.1115 50.6312C21.1156 50.6403 21.1204 50.649 21.1249 50.6579C21.1309 50.6697 21.1368 50.6815 21.1434 50.693C21.1484 50.7017 21.1541 50.7102 21.1595 50.7188C21.1668 50.7302 21.1739 50.7416 21.1819 50.7526C21.1871 50.76 21.1929 50.7669 21.1984 50.7741C21.2076 50.786 21.2169 50.7978 21.2268 50.8091C21.2318 50.8147 21.2371 50.8199 21.2422 50.8254C21.2538 50.8378 21.2656 50.85 21.2782 50.8615C21.2827 50.8658 21.2876 50.8697 21.2923 50.8738C21.306 50.8858 21.32 50.8975 21.3347 50.9085C21.3364 50.9098 21.3379 50.9113 21.3397 50.9126C21.3416 50.914 21.3438 50.9149 21.3457 50.9162C21.3754 50.9377 21.4065 50.9577 21.44 50.9748C21.4403 50.9748 21.4406 50.975 21.4409 50.9752C21.4633 50.9866 21.4865 50.9971 21.5106 51.0064C21.8119 51.1221 22.4758 51.2921 23.7726 51.2921C24.9195 51.2921 26.5614 51.1591 28.8844 50.7383C37.5366 49.2344 51.2068 44.1182 58.7314 39.569C63.091 36.9756 64.2269 35.4392 64.513 34.899C64.5232 34.8798 64.532 34.8603 64.5403 34.8405C64.541 34.8389 64.5418 34.8374 64.5425 34.8358C64.5581 34.7981 64.5696 34.7596 64.5785 34.7209C64.579 34.719 64.5798 34.7172 64.5802 34.7153C64.5806 34.7134 64.5808 34.7115 64.5812 34.7096C64.5852 34.6911 64.5881 34.6726 64.5905 34.654C64.5913 34.6484 64.5922 34.6427 64.5928 34.6371C64.5946 34.6196 64.5956 34.6021 64.5962 34.5846C64.5964 34.5777 64.597 34.5707 64.597 34.5637C64.5971 34.5483 64.5963 34.5329 64.5953 34.5175C64.5948 34.5088 64.5945 34.5001 64.5938 34.4915C64.5925 34.4778 64.5903 34.4641 64.5883 34.4505C64.5868 34.4407 64.5855 34.431 64.5837 34.4213C64.5812 34.4081 64.5777 34.3953 64.5745 34.3823C64.5721 34.3727 64.57 34.363 64.5672 34.3536C64.5631 34.3399 64.5582 34.3264 64.5532 34.313C64.5502 34.3049 64.5476 34.2965 64.5444 34.2885C64.5383 34.2735 64.5314 34.2588 64.5243 34.2442C64.5214 34.2382 64.5188 34.232 64.5158 34.2261C64.5076 34.2103 64.4984 34.1949 64.489 34.1796C64.4863 34.1753 64.484 34.1708 64.4812 34.1666C64.4713 34.1512 64.4605 34.1364 64.4494 34.1217C64.4464 34.1177 64.4437 34.1137 64.4406 34.1098C64.4299 34.0963 64.4185 34.0836 64.4069 34.0708C64.4025 34.066 64.3983 34.061 64.3938 34.0562C64.3835 34.0456 64.3726 34.0355 64.3616 34.0256C64.3546 34.0192 64.3479 34.0127 64.3408 34.0066C64.3316 33.9988 64.3218 33.9915 64.3122 33.9842C64.3024 33.9766 64.2925 33.969 64.2823 33.9619C64.274 33.9563 64.2654 33.9511 64.2569 33.9458C64.2445 33.938 64.2322 33.9304 64.2192 33.9233C64.2165 33.9219 64.2141 33.92 64.2113 33.9186C64.2052 33.9154 64.199 33.913 64.1929 33.91C64.1803 33.9038 64.1677 33.8976 64.1546 33.8921C64.1433 33.8873 64.1319 33.8831 64.1205 33.8789C64.1099 33.8751 64.0995 33.8712 64.0886 33.8678C64.0741 33.8633 64.0596 33.8595 64.045 33.8559C64.039 33.8545 64.0334 33.8524 64.0273 33.8511C64.0221 33.8499 64.0166 33.849 64.0114 33.8479C64.0083 33.8473 64.0052 33.8465 64.0021 33.8461C62.9331 33.6153 61.52 33.5774 59.7968 33.7322C59.5468 33.2461 59.276 32.7709 58.985 32.3077C63.0073 31.8303 65.4327 32.3383 66.0254 33.795C66.5969 35.4322 64.7186 37.5677 60.2798 40.3248C54.4732 43.9706 44.3724 48.2072 35.7164 50.6275C35.3306 50.7354 35.1054 51.1355 35.2132 51.5214C35.3028 51.8419 35.5941 52.0515 35.9114 52.0515C35.976 52.0515 36.0417 52.0428 36.107 52.0245C44.5888 49.6529 54.455 45.5508 60.4408 41.9292C60.4457 42.1 60.4489 42.2711 60.4489 42.4424C60.4489 45.5973 59.6058 48.6924 58.0109 51.393C57.8072 51.7379 57.9216 52.1828 58.2667 52.3864C58.3824 52.4548 58.5094 52.4873 58.6348 52.4873C58.8829 52.4873 59.1248 52.3598 59.2601 52.1307C60.9866 49.2069 61.8994 45.8567 61.8994 42.4425C61.8994 41.975 61.8824 41.507 61.8491 41.0459C63.9372 39.6885 65.4123 38.4678 66.3409 37.3286C67.4909 35.9178 67.8423 34.5582 67.3851 33.2875ZM47.251 24.3092C47.251 21.4563 49.572 19.1352 52.4252 19.1352C55.2781 19.1352 57.5993 21.4563 57.5993 24.3092C57.5993 27.1622 55.2782 29.4833 52.4252 29.4833C49.5721 29.4833 47.251 27.1622 47.251 24.3092ZM23.1821 49.8272C23.6076 49.4108 24.1236 48.9726 24.7291 48.5144C24.8723 48.9401 25.0298 49.3617 25.204 49.7785C24.3243 49.8491 23.6651 49.8523 23.1821 49.8272ZM62.4768 35.1092C62.1292 35.4455 61.6297 35.8763 60.9196 36.4012C60.7768 35.9732 60.6193 35.551 60.4467 35.1351C61.2041 35.083 61.8814 35.0746 62.4768 35.1092Z" fill="white" stroke="white" stroke-width="0.1"/>
</g>
<defs>
<linearGradient id="paint0_linear" x1="88.931" y1="42.4421" x2="10.9894" y2="42.4421" gradientUnits="userSpaceOnUse">
<stop stop-color="white"/>
<stop offset="1" stop-color="white" stop-opacity="0"/>
</linearGradient>
<clipPath id="clip0">
<rect width="49.5158" height="49.5158" fill="white" transform="translate(18.063 17.6846)"/>
</clipPath>
</defs>
</svg>
