<svg width="71" height="70" viewBox="0 0 71 70" fill="none" xmlns="http://www.w3.org/2000/svg">
<circle cx="35.5475" cy="34.8526" r="34.1737" stroke="url(#paint0_linear)" stroke-width="1.35789"/>
<g clip-path="url(#clip0)">
<path d="M48.4338 32.9647L51.2188 28.5558C51.4584 28.6343 51.7109 28.6784 51.9694 28.6784C53.3111 28.6784 54.4023 27.5794 54.4023 26.228C54.4023 24.8766 53.3111 23.7776 51.9694 23.7776C50.6276 23.7776 49.5365 24.8766 49.5365 26.228C49.5365 26.8632 49.7749 27.4574 50.1903 27.9028L47.3779 32.354H39.5287L34.4592 24.4116L37.6986 19.9255C37.9778 20.037 38.2764 20.102 38.5884 20.102C39.9302 20.102 41.0213 19.003 41.0213 17.6516C41.0213 16.3002 39.9302 15.2012 38.5884 15.2012C37.2467 15.2012 36.1555 16.3002 36.1555 17.6516C36.1555 18.2305 36.3605 18.7824 36.7121 19.2094L33.4131 23.7776H27.554C27.2822 22.7233 26.3382 21.9398 25.2075 21.9398C23.8658 21.9398 22.7746 23.0388 22.7746 24.3902C22.7746 25.0187 23.01 25.6086 23.4224 26.054L20.8283 30.1186C20.4804 29.982 20.1118 29.9036 19.7335 29.9036C18.0566 29.9036 16.6924 31.2776 16.6924 32.9666C16.6924 34.6555 18.0566 36.0296 19.7335 36.0296C20.1124 36.0296 20.4816 35.9511 20.8289 35.8151L24.471 41.5215L21.2316 46.0076C20.9524 45.8961 20.6537 45.8311 20.3417 45.8311C19 45.8311 17.9088 46.9301 17.9088 48.2815C17.9088 49.6329 19 50.7319 20.3417 50.7319C21.6835 50.7319 22.7746 49.6329 22.7746 48.2815C22.7746 47.7026 22.5696 47.1507 22.2181 46.7237L25.5171 42.1556H33.3906L37.7637 49.0069C37.5216 49.3242 37.372 49.712 37.372 50.1193C37.372 51.1326 38.1907 51.9571 39.1967 51.9571C39.9886 51.9571 40.6576 51.4432 40.9094 50.7319H44.7321C45.0149 52.1281 46.2429 53.1823 47.7118 53.1823C49.3887 53.1823 50.7529 51.8083 50.7529 50.1193C50.7529 49.2801 50.4129 48.5002 49.8308 47.9318L53.9084 41.5429L48.4338 32.9647ZM51.9694 25.0028C52.6402 25.0028 53.1858 25.5523 53.1858 26.228C53.1858 26.9037 52.6402 27.4532 51.9694 27.4532C51.7334 27.4532 51.5095 27.3882 51.3149 27.2602C50.9634 27.036 50.7529 26.65 50.7529 26.228C50.7529 25.5523 51.2985 25.0028 51.9694 25.0028ZM38.5884 16.4264C39.2593 16.4264 39.8049 16.9759 39.8049 17.6516C39.8049 18.3273 39.2593 18.8768 38.5884 18.8768C38.3269 18.8768 38.0842 18.7965 37.8689 18.6342C37.5581 18.4118 37.372 18.0449 37.372 17.6516C37.372 16.9759 37.9176 16.4264 38.5884 16.4264ZM27.554 25.0028H33.3906L38.4735 32.9666L33.3906 40.9304H25.5396L21.8526 35.1535C22.4352 34.5844 22.7746 33.8046 22.7746 32.9666C22.7746 32.1273 22.4346 31.3475 21.8526 30.779L24.4485 26.7113C24.6936 26.794 24.9484 26.8406 25.2075 26.8406C26.3382 26.8406 27.2822 26.057 27.554 25.0028ZM25.2075 23.165C25.8784 23.165 26.424 23.7145 26.424 24.3902C26.424 25.0659 25.8784 25.6154 25.2075 25.6154C24.9746 25.6154 24.7538 25.5492 24.5494 25.4175C24.1997 25.1927 23.9911 24.8092 23.9911 24.3902C23.9911 23.7145 24.5366 23.165 25.2075 23.165ZM17.9088 32.9666C17.9088 31.9533 18.7275 31.1288 19.7335 31.1288C20.0832 31.1288 20.4232 31.2298 20.7194 31.4234C21.2443 31.7622 21.5582 32.3393 21.5582 32.9666C21.5582 33.5939 21.2443 34.1709 20.7158 34.5109C20.4232 34.7033 20.0832 34.8044 19.7335 34.8044C18.7275 34.8044 17.9088 33.9798 17.9088 32.9666ZM20.3417 49.5067C19.6709 49.5067 19.1253 48.9572 19.1253 48.2815C19.1253 47.6058 19.6709 47.0563 20.3417 47.0563C20.6033 47.0563 20.8459 47.1366 21.0613 47.2989C21.3721 47.5213 21.5582 47.8883 21.5582 48.2815C21.5582 48.9572 21.0126 49.5067 20.3417 49.5067ZM39.1967 50.7319C38.8609 50.7319 38.5884 50.4575 38.5884 50.1193C38.5884 49.9129 38.6949 49.7169 38.8804 49.5974C38.9692 49.5374 39.0756 49.5067 39.1967 49.5067C39.5324 49.5067 39.8049 49.7812 39.8049 50.1193C39.8049 50.4575 39.5324 50.7319 39.1967 50.7319ZM44.7321 49.5067H40.9094C40.6576 48.7955 39.9886 48.2815 39.1967 48.2815C39.0531 48.2815 38.9144 48.3024 38.7794 48.3336L34.4458 41.5429L39.5287 33.5792H47.3797L52.4626 41.5429L48.8066 47.2714C48.4587 47.1348 48.0901 47.0563 47.7118 47.0563C46.2435 47.0563 45.0149 48.1106 44.7321 49.5067ZM47.7118 51.9571C46.7058 51.9571 45.8871 51.1326 45.8871 50.1193C45.8871 49.1061 46.7058 48.2815 47.7118 48.2815C48.0615 48.2815 48.4015 48.3826 48.6977 48.5762C49.2226 48.915 49.5365 49.492 49.5365 50.1193C49.5365 51.1326 48.7178 51.9571 47.7118 51.9571Z" fill="white"/>
<path d="M25.2075 29.9033H30.0733V31.1285H25.2075V29.9033Z" fill="white"/>
<path d="M31.29 29.9033H33.7229V31.1285H31.29V29.9033Z" fill="white"/>
<path d="M25.2075 32.3535H33.7227V33.5787H25.2075V32.3535Z" fill="white"/>
<path d="M32.5063 34.8047H33.7228V36.0299H32.5063V34.8047Z" fill="white"/>
<path d="M30.0732 34.8047H31.2897V36.0299H30.0732V34.8047Z" fill="white"/>
<path d="M25.2075 34.8047H28.8569V36.0299H25.2075V34.8047Z" fill="white"/>
<path d="M39.1968 38.4795H44.0626V39.7047H39.1968V38.4795Z" fill="white"/>
<path d="M45.2788 38.4795H47.7117V39.7047H45.2788V38.4795Z" fill="white"/>
<path d="M39.1968 40.9307H47.7119V42.1559H39.1968V40.9307Z" fill="white"/>
<path d="M46.4956 43.3809H47.7121V44.6061H46.4956V43.3809Z" fill="white"/>
<path d="M44.0625 43.3809H45.2789V44.6061H44.0625V43.3809Z" fill="white"/>
<path d="M39.1968 43.3809H42.8461V44.6061H39.1968V43.3809Z" fill="white"/>
</g>
<defs>
<linearGradient id="paint0_linear" x1="73.412" y1="34.8526" x2="9.40799" y2="34.8526" gradientUnits="userSpaceOnUse">
<stop stop-color="white"/>
<stop offset="1" stop-color="white" stop-opacity="0"/>
</linearGradient>
<clipPath id="clip0">
<rect width="38.9263" height="39.2064" fill="white" transform="translate(16.084 14.5889)"/>
</clipPath>
</defs>
</svg>
