<svg width="43" height="23" viewBox="0 0 43 23" fill="none" xmlns="http://www.w3.org/2000/svg">
<path d="M42.2497 22.3806C42.2658 22.3774 42.2816 22.373 42.2975 22.3689C42.3111 22.3654 42.3248 22.3626 42.3381 22.3585C42.3536 22.3537 42.3688 22.3479 42.384 22.3424C42.3974 22.3376 42.4109 22.3332 42.4242 22.3276C42.4385 22.3217 42.4523 22.3147 42.4663 22.3081C42.4798 22.3016 42.4936 22.2957 42.5069 22.2885C42.5202 22.2814 42.5328 22.2733 42.5457 22.2656C42.559 22.2576 42.5724 22.2502 42.5854 22.2415C42.5992 22.2323 42.612 22.2221 42.6253 22.2121C42.6365 22.2038 42.6479 22.196 42.6589 22.187C42.679 22.1705 42.6982 22.1528 42.7168 22.1346C42.7202 22.1314 42.7238 22.1287 42.7271 22.1253C42.7306 22.1218 42.7336 22.118 42.7369 22.1144C42.7549 22.096 42.7723 22.0771 42.7887 22.0572C42.7982 22.0455 42.8066 22.0333 42.8155 22.0213C42.8247 22.0088 42.8344 21.9968 42.843 21.9838C42.8522 21.97 42.8603 21.9557 42.8687 21.9416C42.8758 21.9296 42.8834 21.9179 42.89 21.9056C42.8977 21.8913 42.9042 21.8765 42.911 21.862C42.9171 21.849 42.9236 21.8362 42.9292 21.8229C42.9351 21.8086 42.9399 21.7941 42.9451 21.7795C42.9502 21.7654 42.9557 21.7513 42.96 21.7369C42.9645 21.7222 42.9677 21.7073 42.9714 21.6924C42.9751 21.6777 42.9793 21.6633 42.9821 21.6485C42.9856 21.631 42.9877 21.6133 42.9902 21.5956C42.992 21.5832 42.9943 21.5709 42.9956 21.5583C42.9987 21.5274 43.0003 21.4964 43.0003 21.4653V1.53311C43.0003 1.01799 42.5829 0.600586 42.0678 0.600586H12.6931C12.6849 0.600586 12.677 0.60158 12.6688 0.601829C12.651 0.602326 12.6333 0.603072 12.6157 0.604564C12.6016 0.605683 12.5877 0.6073 12.5738 0.609165C12.5579 0.611155 12.5421 0.613517 12.5263 0.616377C12.5115 0.618988 12.4968 0.622096 12.4823 0.625453C12.4675 0.628934 12.4527 0.632665 12.438 0.636892C12.4234 0.640995 12.4091 0.645471 12.395 0.650196C12.3804 0.655169 12.3659 0.660392 12.3516 0.666112C12.338 0.671458 12.3247 0.676928 12.3115 0.682896C12.2969 0.689486 12.2823 0.696574 12.2679 0.70391C12.2556 0.710251 12.2435 0.716717 12.2316 0.723555C12.2172 0.731761 12.203 0.740465 12.1889 0.749417C12.1774 0.756877 12.1661 0.764586 12.1549 0.772419C12.1417 0.781745 12.1286 0.791443 12.1158 0.801639C12.1041 0.810964 12.0927 0.820538 12.0814 0.830361C12.0702 0.840183 12.0591 0.850006 12.0483 0.86045C12.036 0.872262 12.0242 0.884571 12.0125 0.897005C12.0067 0.903222 12.0005 0.908693 11.9949 0.915034C11.9915 0.918765 11.9889 0.922868 11.9857 0.926598C11.974 0.940151 11.963 0.954325 11.9521 0.968624C11.9441 0.979068 11.9359 0.989512 11.9285 1.0002C11.9188 1.01413 11.9098 1.02843 11.9009 1.04285C11.8935 1.05466 11.8859 1.06635 11.8792 1.07841C11.8714 1.09234 11.8645 1.10664 11.8575 1.12094C11.851 1.13399 11.8443 1.14705 11.8384 1.16035C11.8323 1.1744 11.827 1.18895 11.8217 1.20325C11.8163 1.2173 11.8108 1.23122 11.8062 1.2454C11.8016 1.2597 11.7979 1.27424 11.7939 1.28879C11.7899 1.30371 11.7857 1.31851 11.7824 1.33355C11.7793 1.3476 11.7771 1.3619 11.7747 1.37608C11.7719 1.39224 11.7692 1.4084 11.7672 1.42457C11.7656 1.438 11.7648 1.45167 11.7638 1.46535C11.7626 1.48276 11.7615 1.50016 11.7612 1.5177C11.7611 1.52279 11.7605 1.52777 11.7605 1.53287V7.2837C11.7605 7.79883 12.1779 8.21623 12.693 8.21623C13.2081 8.21623 13.6255 7.79883 13.6255 7.2837V3.60395L21.9165 10.9444C21.8732 10.9749 21.8315 11.0086 21.7927 11.0473L13.6254 19.2146V13.0863C13.6254 12.5711 13.208 12.1537 12.6929 12.1537C12.1778 12.1537 11.7604 12.5711 11.7604 13.0863V14.2257H6.94229C6.42717 14.2257 6.00977 14.6431 6.00977 15.1582C6.00977 15.6734 6.42717 16.0907 6.94229 16.0907H11.7604V21.466C11.7604 21.9811 12.1778 22.3985 12.6929 22.3985H42.0675C42.0982 22.3985 42.1289 22.3969 42.1595 22.3939C42.1738 22.3925 42.1876 22.3898 42.2017 22.3878C42.2178 22.3856 42.2338 22.3837 42.2497 22.3806ZM41.1351 19.2147L32.9677 11.0474C32.9624 11.0422 32.9568 11.0378 32.9515 11.0328L39.0916 5.82349C39.4843 5.49027 39.5325 4.9019 39.1993 4.50912C38.8663 4.11659 38.278 4.0681 37.8849 4.40145L27.3933 13.3027L15.153 2.46577H41.1351V19.2147ZM23.1117 12.3664C23.1782 12.2998 23.2322 12.2257 23.2743 12.1469L26.7621 15.2348C26.9384 15.3909 27.1593 15.4692 27.3803 15.4692C27.5949 15.4692 27.8094 15.3955 27.9837 15.2477L31.5382 12.2321C31.5705 12.2793 31.6069 12.3245 31.6488 12.3664L39.8161 20.5337H14.9444L23.1117 12.3664Z" fill="white"/>
<path d="M0.932528 11.2205H16.6819C17.1971 11.2205 17.6145 10.8031 17.6145 10.288C17.6145 9.77287 17.1971 9.35547 16.6819 9.35547H0.932528C0.4174 9.35547 0 9.77287 0 10.288C0 10.8031 0.4174 11.2205 0.932528 11.2205Z" fill="white"/>
<path d="M2.56534 6.08185H9.63701C10.1521 6.08185 10.5695 5.66445 10.5695 5.14932C10.5695 4.6342 10.1521 4.2168 9.63701 4.2168H2.56534C2.05021 4.2168 1.63281 4.6342 1.63281 5.14932C1.63281 5.66445 2.05021 6.08185 2.56534 6.08185Z" fill="white"/>
<path d="M7.77107 18.1631H0.932528C0.4174 18.1631 0 18.5805 0 19.0956C0 19.6107 0.4174 20.0281 0.932528 20.0281H7.77107C8.2862 20.0281 8.7036 19.6107 8.7036 19.0956C8.7036 18.5805 8.2862 18.1631 7.77107 18.1631Z" fill="white"/>
</svg>
