<svg width="165" height="136" viewBox="0 0 165 136" fill="none" xmlns="http://www.w3.org/2000/svg">
<path d="M70.3838 22.0753C69.6339 23.5737 68.884 24.4727 69.034 25.5216C69.184 26.7203 70.3838 27.4695 70.8337 28.6682C71.2836 27.3197 72.1835 26.2708 72.0335 25.222C72.1836 24.173 70.6837 22.8245 70.3838 22.0753" fill="white"/>
<path d="M90.1988 22.0753C90.9486 23.5737 91.6986 24.4727 91.5486 25.5216C91.3985 26.7203 90.1988 27.4695 89.7488 28.6682C89.2989 27.3197 88.399 26.2708 88.549 25.222C88.549 24.173 89.8988 22.8245 90.1989 22.0753" fill="white"/>
<path d="M58.9954 21.1751C59.7453 21.1751 60.3452 20.5757 60.3452 19.8265C60.3452 19.0773 59.7453 18.4779 58.9954 18.4779C58.2455 18.4779 57.6456 19.0773 57.6456 19.8265C57.6456 20.5757 58.2455 21.1751 58.9954 21.1751Z" fill="white"/>
<path d="M59.8953 23.1712C59.8953 22.4219 59.2954 21.8226 58.5455 21.8226C57.7956 21.8226 57.1957 22.4219 57.1957 23.1712C57.1957 23.9204 57.7956 24.5197 58.5455 24.5197C59.2954 24.3699 59.8953 23.9204 59.8953 23.1712Z" fill="white"/>
<path d="M60.5661 26.3782C60.5661 25.629 59.9661 25.0297 59.2162 25.0297C58.4663 25.0297 57.8664 25.629 57.8664 26.3782C57.8664 27.1275 58.4663 27.7268 59.2162 27.7268C59.9661 27.7268 60.5661 27.1275 60.5661 26.3782Z" fill="white"/>
<path d="M66.4727 14.8101C67.2225 14.8101 67.8225 14.2108 67.8225 13.4616C67.8225 12.7124 67.2225 12.113 66.4727 12.113C65.7228 12.113 65.1229 12.7124 65.1229 13.4616C65.1229 14.2108 65.7228 14.8101 66.4727 14.8101Z" fill="white"/>
<path d="M63.086 15.9062C63.8359 15.9062 64.4358 15.3068 64.4358 14.5576C64.4358 13.8084 63.8359 13.209 63.086 13.209C62.3361 13.209 61.7362 13.8084 61.7362 14.5576C61.7362 15.3068 62.3361 15.9062 63.086 15.9062Z" fill="white"/>
<path d="M60.5333 18.1806C61.2831 18.1806 61.8831 17.5813 61.8831 16.832C61.8831 16.0828 61.2831 15.4835 60.5333 15.4835C59.7834 15.4835 59.1835 16.0828 59.1835 16.832C59.1835 17.5813 59.7834 18.1806 60.5333 18.1806Z" fill="white"/>
<path d="M69.9092 15.2191C70.6591 15.2191 71.259 14.6197 71.259 13.8705C71.259 13.1213 70.6591 12.5219 69.9092 12.5219C69.1593 12.5219 68.5594 13.1213 68.5594 13.8705C68.5594 14.6197 69.1593 15.2191 69.9092 15.2191Z" fill="white"/>
<path d="M73.2963 16.1352C74.0462 16.1352 74.6461 15.5358 74.6461 14.7866C74.6461 14.0373 74.0462 13.438 73.2963 13.438C72.5464 13.438 71.9465 14.0373 71.9465 14.7866C71.9465 15.5358 72.5464 16.1352 73.2963 16.1352Z" fill="white"/>
<path d="M76.3232 17.5426C77.0731 17.5426 77.673 16.9432 77.673 16.194C77.673 15.4448 77.0731 14.8455 76.3232 14.8455C75.5733 14.8455 74.9734 15.4448 74.9734 16.194C74.9734 16.9432 75.5733 17.5426 76.3232 17.5426Z" fill="white"/>
<path d="M100.229 19.8168C100.229 20.566 100.829 21.1654 101.579 21.1654C102.329 21.1654 102.929 20.566 102.929 19.8168C102.929 19.0676 102.329 18.4682 101.579 18.4682C100.829 18.4682 100.229 19.0676 100.229 19.8168Z" fill="white"/>
<path d="M102.029 21.8295C101.279 21.8295 100.679 22.4288 100.679 23.1781C100.679 23.9273 101.279 24.5266 102.029 24.5266C102.779 24.5266 103.379 23.9273 103.379 23.1781C103.379 22.4288 102.779 21.8295 102.029 21.8295Z" fill="white"/>
<path d="M101.358 25.02C100.608 25.02 100.008 25.6193 100.008 26.3685C100.008 27.1177 100.608 27.7171 101.358 27.7171C102.108 27.7171 102.708 27.1177 102.708 26.3685C102.708 25.6193 102.108 25.02 101.358 25.02Z" fill="white"/>
<path d="M94.2566 14.8101C95.0065 14.8101 95.6064 14.2108 95.6064 13.4616C95.6064 12.7124 95.0065 12.113 94.2566 12.113C93.5067 12.113 92.9067 12.7124 92.9067 13.4616C92.9067 14.2108 93.5067 14.8101 94.2566 14.8101Z" fill="white"/>
<path d="M97.4803 15.9062C98.2302 15.9062 98.8301 15.3068 98.8301 14.5576C98.8301 13.8084 98.2302 13.209 97.4803 13.209C96.7304 13.209 96.1304 13.8084 96.1304 14.5576C96.1304 15.3068 96.7304 15.9062 97.4803 15.9062Z" fill="white"/>
<path d="M100.18 18.1806C100.93 18.1806 101.53 17.5813 101.53 16.832C101.53 16.0828 100.93 15.4835 100.18 15.4835C99.43 15.4835 98.83 16.0828 98.83 16.832C98.83 17.5813 99.43 18.1806 100.18 18.1806Z" fill="white"/>
<path d="M90.6566 15.2191C91.4065 15.2191 92.0064 14.6197 92.0064 13.8705C92.0064 13.1213 91.4065 12.5219 90.6566 12.5219C89.9067 12.5219 89.3068 13.1213 89.3068 13.8705C89.3068 14.6197 89.9067 15.2191 90.6566 15.2191Z" fill="white"/>
<path d="M87.417 16.1352C88.1669 16.1352 88.7668 15.5358 88.7668 14.7866C88.7668 14.0373 88.1669 13.438 87.417 13.438C86.6671 13.438 86.0672 14.0373 86.0672 14.7866C86.0672 15.5358 86.6671 16.1352 87.417 16.1352Z" fill="white"/>
<path d="M82.901 16.1846C82.901 16.9338 83.5009 17.5332 84.2508 17.5332C85.0007 17.5332 85.6006 16.9338 85.6006 16.1846C85.6006 15.4354 85.0007 14.836 84.2508 14.836C83.5009 14.836 82.901 15.4354 82.901 16.1846Z" fill="white"/>
<path d="M78.0737 23.4492H79.5735V17.7552C78.9736 17.6053 78.5237 17.4555 78.0737 17.3057V23.4492Z" fill="white"/>
<path d="M82.6393 17.2971C82.1893 17.4469 81.7394 17.7466 81.1395 17.7466V23.4406H82.6393V17.2971Z" fill="white"/>
<path d="M79.4648 10.9318V7.48529C77.8149 7.78497 76.4651 9.1335 76.1652 10.9318H79.4648Z" fill="white"/>
<path d="M81.1177 10.9318H84.4172C84.1173 9.28354 82.7674 7.93494 81.1177 7.48529V10.9318Z" fill="white"/>
<path d="M76.258 12.5357C76.7079 14.4837 78.3576 15.8323 80.3074 15.8323C82.2572 15.8323 84.0569 14.4837 84.3568 12.5357H76.258Z" fill="white"/>
<path d="M82.6557 7.04264C81.7558 6.29343 81.006 5.24454 80.856 4.04581C81.9058 4.19566 83.1057 5.0947 83.8556 5.99378V1.3486C83.1057 2.24766 81.9058 3.14669 80.856 3.29657C81.006 2.24767 81.6059 1.19873 82.6557 0H78.1563C79.0562 1.19874 79.806 2.24756 79.9561 3.29657C78.9062 3.14672 77.7063 2.24768 76.9564 1.3486V5.99378C77.7063 5.09472 78.9062 4.1957 79.9561 4.04581C79.806 5.24456 79.0561 6.29339 78.1563 7.04264H82.6557Z" fill="white"/>
<path d="M87.4825 98.9629C83.283 97.914 78.1838 96.1158 73.5345 94.0181C73.6846 93.119 73.3845 92.0701 72.6347 91.171C71.8848 90.2719 70.9848 89.8224 69.935 89.8224C69.4851 89.8224 69.0351 89.9723 68.5852 90.1221C67.8353 89.5227 67.2354 88.9234 66.6354 88.1741C64.8357 86.0763 63.486 83.6788 62.436 80.9816C61.8361 79.4832 61.5361 77.8349 61.2361 76.1867C61.0861 77.5353 59.4364 79.3334 56.8868 79.3334C56.8868 79.0337 56.8868 78.4343 56.5868 78.2845C55.8369 79.0337 54.7871 79.9327 52.5374 79.0337C52.8374 80.8318 53.4372 82.7798 54.0372 84.428C55.387 88.174 57.4867 91.6205 60.0364 94.6173C60.9362 95.5164 61.8361 96.4154 62.736 97.3145V97.9139C62.736 98.9628 63.6359 100.461 64.9858 101.21C66.0356 101.81 67.3855 101.66 68.4353 100.761C70.5349 101.81 73.0846 102.859 75.9343 103.608C79.0838 104.507 82.0834 104.957 84.4831 104.957C86.5828 104.957 89.2824 104.058 91.9821 102.259C93.0319 101.51 94.0818 100.761 94.8317 100.162C94.9817 100.012 94.9817 100.012 95.1316 99.8619C93.1818 100.162 90.1823 99.5622 87.4828 98.9628L87.4825 98.9629ZM72.0349 92.5195L71.585 92.2198C70.8351 91.6205 70.0852 91.6205 69.3353 92.2198C69.0354 92.5195 68.7354 92.8192 68.4354 93.2688L67.9855 93.7183L68.2854 94.018C69.1853 94.7672 69.3353 95.5164 69.0354 95.9659C68.8853 96.1158 68.7354 96.2656 68.5854 96.2656C68.1355 96.4155 67.5355 96.2656 66.9356 95.8161L66.6356 95.6662L66.4855 95.9659C66.4855 96.1158 66.3355 96.1158 66.3355 96.2656C66.3355 96.4155 66.1855 96.4155 66.0356 96.5653C65.7356 97.1646 65.4357 97.764 65.4357 98.0637V98.3634C65.5857 98.8129 65.8856 99.1126 66.3355 99.2624L66.4855 99.4123C66.9355 99.712 67.3854 100.012 67.8354 100.162C67.0855 100.611 66.3356 100.611 65.5857 100.311C64.3858 99.7121 63.6359 98.3634 63.6359 97.7641C63.6359 96.7152 64.0858 95.5165 64.8357 94.1679L64.9858 94.018L64.8357 93.8681C64.5358 93.4186 64.3858 93.1189 64.2358 92.6694C64.6858 92.6694 65.1357 92.8193 65.5857 92.9691H65.7357L65.8857 92.8192C66.3357 92.2198 68.1354 90.4217 69.7853 90.4217C70.5352 90.4217 71.2851 90.8713 71.8849 91.4706C72.3349 91.9202 72.6349 92.5195 72.6349 93.1188C72.6349 92.969 72.3349 92.8192 72.0349 92.5195V92.5195ZM74.8845 100.611C73.8346 100.611 73.0847 99.8617 73.0847 98.8129C73.0847 97.764 73.8346 97.0148 74.8845 97.0148C75.9343 97.0148 76.6842 97.764 76.6842 98.8129C76.6842 99.8618 75.7843 100.611 74.8845 100.611ZM82.6834 103.008C81.7835 103.008 81.0335 102.259 81.0335 101.36C81.0335 100.461 81.7834 99.712 82.6834 99.712C83.5832 99.712 84.3331 100.461 84.3331 101.36C84.3331 102.259 83.5832 103.008 82.6834 103.008Z" fill="white"/>
<path d="M84.93 111.317C84.6301 111.317 84.3301 111.317 84.0302 111.467V106.372C81.7805 106.372 79.2308 105.922 76.6812 105.323V111.466C76.3813 111.317 76.0813 111.317 75.7814 111.317C73.9816 111.317 72.9318 112.815 72.9318 114.164C72.9318 115.512 73.6817 116.711 74.4316 117.46C74.7316 116.711 75.0315 116.112 75.4814 116.112C76.3813 116.112 75.9314 120.457 78.4811 120.607C78.331 120.757 78.331 121.057 78.331 121.356C78.331 122.405 79.2309 123.304 80.2808 123.304C81.3307 123.304 82.2306 122.405 82.2306 121.356C82.2306 121.057 82.2306 120.907 82.0805 120.607C84.6301 120.457 84.1802 116.112 85.0801 116.112C85.53 116.112 85.83 116.711 86.1299 117.46C86.7299 116.711 87.4798 115.512 87.4798 114.164C87.7797 112.815 86.7299 111.317 84.9301 111.317L84.93 111.317ZM80.2809 122.405C79.681 122.405 79.231 121.955 79.231 121.356C79.231 120.757 79.681 120.307 80.2809 120.307C80.8808 120.307 81.3307 120.757 81.3307 121.356C81.4807 121.806 81.0308 122.405 80.2809 122.405ZM86.28 115.962C85.9801 115.362 85.5302 115.063 85.0803 115.063C83.2805 115.063 84.0304 119.558 81.9308 119.558C81.0309 119.558 80.5809 118.959 80.5809 118.359C80.5809 117.76 81.0309 117.46 81.0309 117.011C81.0309 116.561 80.581 116.261 80.131 116.261C79.6811 116.261 79.2311 116.411 79.2311 117.011C79.2311 117.46 79.6811 117.76 79.6811 118.359C79.6811 118.959 79.2311 119.558 78.3313 119.558C76.2316 119.558 76.9814 115.063 75.1818 115.063C74.7318 115.063 74.2819 115.362 73.982 115.962C73.682 115.362 73.382 114.613 73.382 114.164C73.382 113.264 73.9819 112.216 75.3318 112.216C77.5815 112.216 77.1315 115.362 78.1814 115.362C78.6313 115.362 79.0812 115.063 79.0812 114.613C79.0812 113.714 77.4315 112.815 77.4315 111.616C77.4315 110.418 78.6314 109.219 79.8313 108.17C81.1811 109.219 82.231 110.268 82.231 111.616C82.231 112.965 80.5812 113.714 80.5812 114.613C80.5812 115.063 80.8811 115.362 81.4811 115.362C82.5309 115.362 82.081 112.216 84.3306 112.216C85.6804 112.216 86.2804 113.414 86.2804 114.164C86.8803 114.613 86.7303 115.362 86.2804 115.962" fill="white"/>
<path d="M144.163 117.42C144.013 117.12 143.713 116.97 143.563 117.12C137.714 118.768 130.365 113.973 123.316 109.178C117.317 105.282 111.767 101.536 106.968 101.536C105.168 101.536 103.668 101.986 102.169 102.585C100.519 103.484 99.1691 104.983 98.4192 106.931C97.6693 108.879 96.7693 110.227 96.0194 111.276C95.2695 112.625 94.6696 113.524 94.6696 114.722C94.6696 115.621 95.1196 116.521 95.8695 117.42C96.6194 118.169 97.5192 118.768 99.019 119.518C99.3189 119.667 99.6189 119.817 99.9188 119.967C101.119 120.566 101.869 120.866 102.018 121.615C99.6187 122.664 96.6191 123.563 93.1697 124.163C89.2702 124.912 85.0709 125.212 80.5715 125.212C76.0721 125.212 71.8728 124.912 67.9733 124.163C64.5237 123.563 61.5241 122.664 59.1245 121.615C59.2746 120.566 59.8744 120.267 61.2242 119.667C61.5241 119.517 61.8241 119.368 62.1241 119.218C63.3239 118.618 64.3737 118.019 65.1236 117.27C66.0235 116.521 66.3235 115.771 66.3235 114.722C66.3235 113.524 65.7236 112.625 64.9737 111.276C64.2238 110.227 63.4739 108.879 62.5739 106.931C61.824 104.983 60.4743 103.484 58.8244 102.585C57.4746 101.836 55.8248 101.536 54.1751 101.536C49.3758 101.536 43.6765 105.282 37.6767 109.328C30.6277 113.973 23.2787 118.918 17.4296 117.27C17.1296 117.12 16.8297 117.27 16.8297 117.569C16.6796 117.869 16.8297 118.169 17.1296 118.319C18.9294 119.068 20.5792 120.417 22.079 121.465C24.1787 123.114 26.2785 124.762 28.3781 124.762C30.4778 124.762 32.7275 124.163 35.4271 122.664C37.8269 121.465 40.2265 119.817 42.6262 118.169C47.2755 115.022 52.075 111.725 56.7243 111.276C56.2743 111.726 55.8243 112.175 55.3744 112.625C54.0246 113.823 52.8248 114.872 52.8248 116.97C52.8248 118.618 53.4247 119.817 54.1746 121.465C54.4746 121.915 54.6246 122.514 54.9246 123.114C55.3745 124.312 55.6744 125.211 55.9744 126.41C56.1244 127.009 56.2743 127.609 56.4243 128.208C56.7243 129.257 57.3242 131.355 60.6238 133.003C64.5233 134.951 71.2722 136 80.5715 136C89.8707 136 96.6193 134.951 100.519 133.003C103.819 131.355 104.419 129.257 104.719 128.208C104.869 127.459 105.019 126.86 105.169 126.41C105.468 125.211 105.618 124.312 106.218 123.114C106.518 122.214 106.968 121.615 107.268 121.016C108.018 119.667 108.468 118.618 108.468 117.12C108.468 115.022 107.268 113.973 105.768 112.624C105.318 112.175 104.869 111.725 104.269 111.276C108.918 111.576 113.717 114.872 118.367 118.169C120.766 119.817 123.166 121.465 125.566 122.664C128.265 124.162 130.515 124.762 132.615 124.762C134.864 124.762 136.814 123.263 138.914 121.465C140.414 120.266 142.063 119.068 143.863 118.318C144.013 118.019 144.163 117.719 144.163 117.419" fill="white"/>
<path d="M108.639 70.1319C108.04 69.6823 106.99 68.6334 106.39 67.4347C105.64 65.9362 102.79 60.2423 102.34 59.493C101.89 58.8937 101.74 58.2943 101.74 57.8449C101.74 57.2455 102.04 56.796 102.34 56.3464C102.64 56.0468 103.24 55.4474 103.39 54.9978C103.54 54.6982 103.69 54.5483 103.84 54.2486C102.79 52.4505 101.74 50.952 100.241 49.4537C98.5909 47.5057 96.6412 45.8575 94.5414 44.5089C95.5913 43.7597 96.7911 42.7108 96.7911 40.9128C96.7911 39.8638 96.3412 39.1147 95.5913 38.3654C96.7911 34.6194 98.8908 29.9742 100.691 28.0262L96.941 26.378C97.9909 27.8764 97.9909 29.6746 97.8409 30.7234C96.791 29.9742 96.0412 29.0752 95.7412 27.8763C95.5912 29.0751 94.9914 30.8731 94.3914 31.9222C95.4413 31.4726 96.3412 31.1729 97.5409 31.6225C96.941 32.5215 95.2912 33.87 92.7416 33.2707C91.3918 32.971 90.0419 32.2218 90.0419 31.1728C90.0419 30.5734 90.4918 29.8242 91.3917 29.8242C92.2916 29.9741 92.2916 31.1728 91.9916 31.7722C93.0415 31.1728 94.2413 28.0261 92.4416 27.5767C91.0918 27.277 89.8919 29.0751 89.442 30.4238C89.142 28.7756 88.5421 27.1272 87.1923 27.1272C85.3926 27.2771 85.9925 30.4238 86.5924 31.3227C86.7424 30.124 87.3423 29.5246 87.7922 29.6745C88.2422 29.6745 88.8421 29.9742 88.6921 31.0231C88.542 32.072 87.1923 32.6713 85.3925 32.6713C83.7429 32.6713 81.0432 32.2218 80.7433 29.0751C81.7931 29.225 83.443 30.124 84.0428 31.0231C83.8928 29.225 83.8928 27.8764 84.0428 25.9284C83.1429 27.1272 81.7931 27.7265 80.7433 27.8764C81.0432 26.5278 82.2431 25.1792 83.4429 24.2802H76.544C77.8938 25.1793 78.9437 26.5278 79.2436 27.8764C78.1938 27.7265 76.8439 27.1272 75.9441 25.9284C76.0942 27.8764 76.0942 29.225 75.9441 31.0231C76.694 29.9742 78.1938 29.225 79.2436 29.0751C78.9437 32.2218 76.0942 32.6713 74.5944 32.6713C72.9447 32.6713 71.4449 32.0719 71.2949 31.0231C71.1448 29.9742 71.7448 29.6745 72.3447 29.6745C72.7946 29.6745 73.5445 30.2739 73.5445 31.3227C74.1444 30.5735 74.7444 27.2769 72.9446 27.1272C71.5948 26.9773 70.845 28.6256 70.6949 30.4238C70.245 29.0752 69.0452 27.1272 67.6953 27.5767C66.0456 28.0262 67.0954 31.1728 68.1453 31.7722C67.8453 31.1728 67.9952 29.9741 68.7452 29.8242C69.6451 29.6744 70.095 30.4236 70.095 31.1728C70.095 32.2217 68.7452 32.9709 67.3954 33.2707C64.8457 33.8701 63.3459 32.5215 62.596 31.6225C63.7959 31.1729 64.5458 31.3228 65.7455 31.9222C65.1456 30.8733 64.5457 28.9253 64.3957 27.8763C64.0957 29.0751 63.1959 30.1239 62.296 30.7234C62.146 29.6745 62.146 27.8763 63.1959 26.378L59.4464 28.0262C61.2461 29.9742 63.3459 34.6194 64.5456 38.3654C63.7957 38.9648 63.3458 39.8639 63.3458 40.7629C63.3458 42.561 64.5456 43.61 65.5955 44.3591C63.4959 45.7076 61.5461 47.3559 59.8963 49.3038C57.3466 52.1509 55.247 55.5972 53.8971 59.3433C54.497 59.9427 56.7466 62.3401 57.1966 63.0894C58.0965 64.2881 58.6964 65.4868 58.6964 66.3859C58.6964 68.0341 59.1463 68.7834 60.0462 69.9821C60.3462 70.2818 60.7961 71.6303 60.7961 72.5294H79.6933V93.2085C78.9434 93.2085 78.1935 93.5082 77.5936 94.2574C79.8433 95.1565 81.7931 95.9056 83.8928 96.505C84.0428 95.1564 84.3427 94.4072 85.0926 93.5082C85.0926 93.5082 82.3929 93.2085 80.8931 93.2085V72.6799H99.3403C99.3403 75.5269 98.7404 78.2241 97.8405 80.7714C96.9407 83.4686 95.4408 85.8661 93.6411 87.9638C91.8413 90.0616 89.8916 91.7098 87.492 92.7587C87.192 92.9086 87.1921 93.2082 86.7421 93.358C86.4422 93.6577 86.1422 94.2571 85.8423 95.0063C85.5423 95.6056 85.5423 96.0551 85.3923 96.8043C86.2922 97.104 86.7421 97.2539 87.492 97.4037C93.9411 99.0519 95.5908 98.6025 95.8907 98.3028C97.3905 97.2539 98.7403 95.9053 99.9401 94.5567C102.49 91.5599 104.589 88.2633 105.939 84.3674C107.439 80.4714 108.189 76.2759 108.189 71.9305C108.639 71.1813 108.639 71.0314 108.639 70.1324L108.639 70.1319ZM79.993 71.6308H61.0957C61.0957 68.7839 61.6957 65.9368 62.5955 63.2396C63.4954 60.5423 64.9953 58.1449 66.795 56.0472C68.5947 53.9493 70.6944 52.3011 72.9441 51.2523C75.1938 50.2034 77.5934 49.6041 79.9931 49.4542V71.6305L79.993 71.6308ZM80.2929 40.1638C73.9938 40.1638 69.6444 41.9619 67.0948 43.76C65.595 42.861 64.9951 42.1118 64.9951 41.0628C64.9951 37.4666 75.0438 37.1669 80.143 37.1669C85.2423 37.1669 95.2909 37.4666 95.2909 41.0628C95.2909 42.1117 94.6909 42.8609 93.1912 43.76C90.9415 42.1118 86.5922 40.1638 80.2931 40.1638H80.2929ZM81.1929 71.6308V49.4545C83.4426 49.6044 85.6923 50.0539 87.792 51.1027C90.0417 52.3015 92.1413 53.8 93.941 55.8976C95.7408 57.9955 97.0907 60.3929 98.1405 63.09C99.0404 65.7872 99.6403 68.6341 99.6403 71.4812C99.4902 71.6311 81.1931 71.6311 81.1931 71.6311L81.1929 71.6308Z" fill="white"/>
<path d="M96.5801 68.0213C96.88 68.1712 96.7302 68.7705 96.4301 68.6207C95.9801 65.3241 94.7802 62.0275 92.8306 59.3304C93.1306 59.1806 93.5805 58.8809 93.5805 58.4314C92.9806 58.4314 92.6806 58.5813 92.3807 58.8809C92.2306 58.7311 92.0807 58.5812 91.9307 58.4314C90.7309 56.933 89.3811 55.7342 87.8813 54.6853C86.5315 53.7863 85.0318 53.0371 83.3819 52.5875C83.3819 52.2878 83.8318 52.138 84.1318 52.4376C84.1318 51.8382 83.6819 51.5385 83.3819 51.6884C83.2319 51.6884 83.082 51.8383 83.082 52.1379C82.9321 51.988 82.632 51.6884 82.1821 51.6884C82.1821 52.1379 82.3321 52.2878 82.482 52.5874C82.1821 52.5874 82.0321 52.7373 82.0321 52.8871C81.882 53.1868 82.0321 53.6363 82.632 53.7862C82.332 53.4865 82.482 53.037 82.782 53.1868V60.3792C82.4821 60.2293 82.0322 60.3792 81.5822 60.6789C82.0322 61.1284 82.4821 61.1284 82.782 60.9785V68.7704C82.3321 68.7704 82.3321 68.3209 82.632 68.171C82.0321 68.171 81.7321 68.7704 81.8821 68.9203C82.0322 69.0702 82.1821 69.22 82.482 69.22C82.332 69.3698 82.1821 69.6695 82.1821 70.119C82.482 70.119 82.782 69.9691 82.932 69.8193C82.932 70.119 83.0818 70.2689 83.2319 70.4187C83.5319 70.5686 83.9818 70.2688 83.9818 69.6695C83.8318 69.9692 83.2319 69.8194 83.2319 69.5196H88.6313C88.4812 69.8193 88.6313 70.2688 88.9312 70.7183C89.2312 70.2688 89.3812 69.8193 89.2312 69.5196H95.2304C95.2304 69.9691 94.7804 69.9691 94.6305 69.6695C94.6305 70.2689 95.2304 70.4187 95.3803 70.4187C95.5304 70.2688 95.6803 70.119 95.6803 69.8193C95.8303 69.9692 96.1302 70.119 96.5802 70.119C96.5802 69.8193 96.4301 69.5197 96.2802 69.3698C96.5802 69.3698 96.7301 69.2199 96.8801 69.0701C97.48 68.4707 97.1801 68.0212 96.5802 68.0212L96.5801 68.0213ZM91.4809 58.4312C91.3309 58.5811 91.181 58.731 91.3309 58.8808C91.3309 59.0307 91.4809 59.1805 91.9308 59.1805C91.7808 59.3304 91.6309 59.63 91.4809 59.9297C91.7808 59.9297 92.0808 59.9297 92.3808 59.7798C92.3808 60.0795 92.3807 60.2293 92.5308 60.3792C92.6808 60.529 92.8307 60.529 92.9807 60.3792C94.3305 62.6267 95.3805 65.1741 95.6804 67.8713C95.5304 67.7214 95.2304 67.7214 94.9305 67.7214C94.9305 68.1709 95.0805 68.3208 95.2304 68.6205H90.5812C90.5812 68.3208 90.4311 68.0211 90.2812 68.0211C90.1312 68.0211 89.8313 68.0211 89.6813 68.171C89.6813 67.8713 89.5313 67.5716 89.3814 67.4218C89.0814 67.7214 89.0814 68.0211 89.0814 68.171C88.9314 67.8713 88.6314 67.8713 88.4815 68.0211C88.3314 68.0211 88.1815 68.3208 88.1815 68.6205H84.282C84.432 68.4706 84.5819 68.1709 84.5819 67.8712C84.282 67.8712 83.982 68.0211 83.832 68.1709V61.8775C84.132 61.8775 84.4319 61.7277 84.4319 61.5779C84.4319 61.428 84.4319 61.1283 84.2819 60.9785C84.5818 60.9785 84.8818 60.8286 85.0318 60.6788C84.7318 60.3791 84.4319 60.3791 84.2819 60.3791C84.5818 60.2292 84.5819 59.9296 84.4319 59.7797C84.4319 59.6299 84.132 59.4801 83.832 59.4801V54.0858C83.9821 54.2357 84.282 54.3855 84.5819 54.3855C84.5819 54.0858 84.5819 53.7861 84.4319 53.6363C85.6317 54.0858 86.8316 54.6852 88.0313 55.4344C89.0812 56.0337 90.2811 57.0826 91.4809 58.4312" fill="white"/>
<path d="M93.3896 65.992C93.6895 65.8422 93.8395 65.6924 93.8395 65.5425C93.5395 65.6924 93.3896 65.5425 93.3896 65.5425C93.5396 65.3926 93.8395 65.5425 93.5396 65.2428C93.3896 64.9431 93.2397 64.9431 92.9397 65.0929C92.7897 65.3926 91.29 65.093 91.29 63.8942C91.44 64.0441 91.5899 64.1939 91.7399 64.3437C91.7399 64.3437 91.89 64.3437 91.89 64.4936H92.04H92.49H92.64C92.9399 64.4936 93.2399 64.1939 93.2399 63.8942C93.2399 63.2949 92.79 62.9952 92.0401 62.5457C91.7401 62.3958 91.5902 62.0961 91.4402 61.9463C91.2902 61.4968 91.4402 61.0472 90.8403 60.2981C90.8403 60.1482 90.8403 59.8486 90.6902 59.5489C90.3903 59.9984 90.2403 61.0473 90.9902 61.7965C91.5901 62.5457 92.9399 63.145 92.7899 63.7444C92.7899 63.8943 92.6398 64.0441 92.4899 64.0441H92.3399H92.1899C92.0398 64.0441 92.0398 64.0441 91.8899 63.8942C91.7399 63.7443 91.5899 63.7443 91.44 63.5945C90.84 63.145 90.3901 62.3958 90.0902 61.9463C89.4903 61.1971 89.7902 60.4479 89.7902 59.8485C90.2402 59.2491 89.4903 58.0504 89.1903 57.7506C89.1903 57.7506 89.3403 57.451 89.1903 57.1513H88.8903C88.7403 57.0014 88.7403 56.8516 88.5904 56.8516C88.2904 56.8516 88.2904 56.7017 88.2904 56.5519C88.1404 56.7018 88.1404 56.8516 87.9905 56.8516H87.5405C87.3905 57.0015 87.3905 57.0015 87.0906 57.0015C86.7906 57.0015 86.7906 57.1514 86.9405 57.3012C86.9405 57.4511 86.9405 57.6008 87.0906 57.6008L87.2406 57.9005L87.3906 57.6008C87.5407 57.451 87.8406 57.451 87.8406 57.7507C87.8406 57.9006 87.8406 57.9006 87.6906 58.0504H87.0906C86.9406 58.0504 86.9406 58.2003 86.9406 58.3501C86.9406 58.5 87.0907 58.5 87.3905 58.5C87.6905 58.5 88.1404 58.3501 88.1404 58.6499C88.1404 59.2492 87.3905 59.2492 87.2405 59.9985C87.0905 59.8486 86.9406 59.6988 86.7906 59.5489C86.6406 59.3991 86.4907 59.0994 86.1907 58.7997C86.0407 58.6498 85.8908 58.5 85.5908 58.3502C85.2909 58.2003 85.2908 58.0505 85.2908 57.7508C85.2908 57.4511 85.4409 57.3013 85.4409 57.1514V57.0016C85.4409 56.8517 85.1409 56.7019 85.1409 56.8517C85.1409 56.8517 85.291 57.0016 85.291 57.1514L85.1409 57.3013V57.4511V57.601C85.1409 57.4511 84.9909 57.1515 84.841 57.1515H84.6909C84.6909 57.0016 84.5409 56.8518 84.241 57.0016H84.391V57.1515C84.391 57.3014 84.5411 57.4512 84.691 57.4512C84.3911 57.3013 84.2411 57.4512 84.2411 57.601V57.7509C84.091 57.7509 84.091 58.0506 84.2411 58.0506V57.9007L84.3911 58.0506H84.5412H84.6912C84.5411 58.2005 84.5411 58.3503 84.6912 58.5001C84.5411 58.65 84.2413 58.65 84.2413 58.3503C83.9413 58.7998 84.3913 59.0995 84.6912 58.9496V59.3991C84.6912 59.3991 84.6912 59.2493 84.8412 59.2493C84.8412 59.3991 84.8412 59.3991 84.9913 59.549V59.3991C84.9913 59.549 85.1413 59.549 85.1413 59.6988C85.2914 59.9985 85.5912 60.7477 86.4911 61.0474C86.0412 61.347 85.8912 61.6467 85.5912 61.9464C85.4412 62.0963 84.9914 62.3959 84.8414 62.2461C84.6913 62.2461 84.6913 62.0962 84.5414 61.9464C84.3914 61.9464 84.3914 61.7965 84.2415 61.9464H84.0914C83.9414 61.9464 83.7914 61.9464 83.6414 62.0963H83.9414V62.2462C83.9414 62.3961 83.9414 62.3961 84.3914 62.3961C84.3914 62.3961 84.2413 62.546 84.2413 62.3961C84.0913 62.3961 83.9414 62.2462 83.7914 62.3961L83.6413 62.5459C83.4913 62.5459 83.3414 62.8456 83.4913 62.9955C83.4913 62.9955 83.4913 62.8456 83.6413 62.6958C83.6413 62.6958 83.6414 62.8457 83.7914 62.8457C83.9414 62.9956 84.0913 63.1453 84.2413 62.6958C84.2413 62.8457 84.0913 63.1453 84.2413 63.1453H84.3914C84.3914 63.2952 84.6913 63.445 84.8413 63.2952C84.6913 63.2952 84.6913 63.1453 84.5414 62.9955H84.6914C84.8414 62.8456 84.6914 62.6958 84.6914 62.546C84.6914 62.6959 84.8414 62.8457 85.1413 62.6959C85.2914 62.6959 85.2914 62.546 85.2914 62.3962C85.5913 62.2463 85.7413 62.2463 86.0413 62.2463C86.0413 62.0964 86.1913 61.9466 86.4912 61.7968C86.7912 61.6469 86.9411 61.7968 86.9411 61.9466C86.9411 61.7968 87.0912 61.6469 87.2411 61.4971C87.2411 62.6958 88.7409 62.546 89.1908 63.2952C88.7409 63.1453 88.141 62.9955 87.9911 62.9955C87.5411 62.9955 86.9412 63.445 86.9412 63.8945C86.9412 64.1942 87.2411 64.9435 87.5411 65.0933C87.0912 65.2432 86.9412 65.0933 86.4913 65.0933C86.1913 65.0933 86.0413 64.4939 85.7414 64.6438C85.7414 64.6438 85.5913 64.6438 85.5913 64.7937C85.4413 64.7937 85.1414 64.9435 85.2913 65.0933C85.2913 65.0933 85.4414 64.9435 85.5913 64.9435V65.0933C85.5913 65.0933 85.5913 65.2432 85.7414 65.2432H85.8914C85.8914 65.3931 85.4414 65.0933 85.4414 65.5429C85.4414 65.5429 85.4415 65.6928 85.5915 65.6928C85.5915 65.8427 85.7415 65.9925 85.8915 65.8427L85.7414 65.6928H85.8915V65.8427V65.9925C85.8915 66.1424 86.0415 66.2922 86.3414 66.1424C86.3414 66.1424 86.1914 66.1424 86.1914 65.9925H86.3414V65.8427H86.4914C86.4914 65.9925 86.6415 65.9925 86.7914 65.9925C86.9414 65.9925 86.9414 65.8427 86.9414 65.8427C86.9414 65.8427 87.0915 65.8427 87.0915 65.9925C87.0915 65.8427 87.0915 65.6929 87.5414 65.9925L87.8414 65.8427C87.8414 65.8427 88.1413 65.9925 88.2913 65.8427C88.4414 65.6928 88.4414 65.6928 88.4414 65.3932C88.2913 65.0935 88.1414 65.0934 88.1414 64.7938C87.9914 64.1944 88.8913 63.8947 89.3412 64.0446C89.4913 64.3442 89.9412 65.3931 90.841 65.6928C91.441 65.8426 91.5909 65.2432 91.7409 65.3931L91.891 65.543V66.1424C91.891 66.2922 91.591 66.1424 91.2911 66.1424C91.141 66.1424 91.141 66.1423 91.141 66.2922C90.991 66.2922 90.841 66.4421 90.841 66.5919C90.841 66.5919 90.9911 66.442 91.141 66.442V66.5919C91.141 66.7418 91.441 66.8916 91.591 66.7418C91.591 66.7418 91.741 66.7418 91.591 66.7418C91.4409 66.8917 91.291 67.0415 91.4409 67.1913H91.591C91.591 67.3412 91.741 67.491 91.741 67.491V67.1913H91.891C92.0411 67.1913 92.0411 66.8916 92.191 66.8916C92.191 67.0415 92.0409 67.1913 92.191 67.3412H92.341C92.341 67.4911 92.491 67.4911 92.7909 67.4911C92.7909 67.4911 92.6409 67.4911 92.6409 67.3412L92.7909 67.1913C92.941 66.8916 92.6409 66.8916 92.6409 66.7418C92.6409 66.5919 92.9408 66.7418 92.9408 66.2923C93.0909 66.1424 93.2408 66.1424 93.3908 65.9926C93.6908 66.1425 93.3908 65.9926 93.3908 65.9926L93.3896 65.992Z" fill="white"/>
<path d="M77.8775 76.4317H77.5775V76.1321C77.5775 75.0832 76.9776 74.1841 75.7778 74.1841C74.7279 74.1841 72.6283 75.5327 69.7786 75.5327C68.5788 75.5327 67.0789 74.9333 66.1791 74.4838L65.8792 75.3828V75.2329C65.8792 74.7834 65.5792 74.4837 65.1293 74.4837C64.6793 74.4837 64.3794 74.7834 64.3794 75.2329C64.3794 75.6825 64.6793 75.9822 65.1293 75.9822C65.2793 75.9822 65.5792 75.8323 65.7292 75.6825L65.4292 76.5815C65.5793 76.5815 65.7292 76.7314 65.7292 76.7314C65.2792 81.0768 68.5787 86.621 74.128 88.2694C75.0278 88.1195 75.7778 88.1195 75.7778 89.0186C75.7778 89.6179 75.4779 89.7678 75.0279 89.7678C74.728 89.7678 74.428 89.6179 74.428 89.3182C74.428 88.8687 75.0279 89.1684 75.1779 88.8687C75.3279 88.569 75.0278 88.4192 74.578 88.4192C74.128 88.4192 73.5281 88.7189 73.5281 89.3182C73.5281 90.0674 74.128 90.517 74.8779 90.517C75.4778 90.517 76.8277 90.2173 76.6777 88.569C76.9776 88.569 77.2776 88.569 77.4275 88.2693V87.3703H77.1276L77.4275 77.4807H77.5776C77.8776 77.4807 78.3275 77.3308 78.3275 76.8813C78.4776 76.5817 78.1775 76.4318 77.8776 76.4318L77.8775 76.4317ZM67.6791 77.181L74.578 87.0706C70.8285 85.5721 67.2291 82.2757 67.6791 77.181ZM74.7281 86.0217L68.429 77.0311H69.0289H69.9287L75.028 84.2235C74.8779 84.9727 74.728 85.5721 74.728 86.0216L74.7281 86.0217ZM75.178 83.1746L70.6786 76.8812C71.1285 76.7314 71.5785 76.5816 72.0284 76.4317L75.3279 81.2266C75.3279 81.826 75.3279 82.5752 75.1779 83.1746L75.178 83.1746ZM76.2277 76.2818H75.9278C75.6278 76.2818 75.3279 76.4317 75.1779 76.7314C75.1779 77.1809 75.4778 77.3307 75.7778 77.3307H75.9279V77.6304C75.7778 78.2298 75.6279 79.1288 75.4779 80.1778L72.6284 76.1319C73.9782 75.6824 75.0281 75.083 75.6279 75.083C76.2278 75.083 76.3778 75.3827 76.2279 76.2818" fill="white"/>
<path d="M76.716 56.42C78.0658 56.42 78.6657 55.9705 78.6657 55.521C78.6657 54.0225 74.9162 54.9216 74.9162 54.0225C74.9162 53.8727 75.0663 53.7228 75.2162 53.573C77.0159 53.4231 77.1659 52.0746 78.3657 51.9248C76.7158 51.6251 76.5659 52.9737 75.816 52.9737C76.116 52.8238 76.2659 52.3743 76.2659 52.2245C75.966 52.674 75.2161 52.674 74.7662 53.1235C74.7662 53.2734 74.6162 53.2734 74.7662 53.4232C74.4662 53.5731 74.3162 53.7229 74.3162 54.0226C74.3162 55.3712 78.0657 54.4721 78.0657 55.521C78.0657 55.8207 77.4658 56.1204 76.4159 56.1204C75.666 56.1204 75.0661 55.521 73.7162 55.9705C73.7162 55.6708 74.1662 55.2213 74.0162 55.0715C74.1662 55.0715 74.3161 54.9216 74.3161 54.7718C74.1661 54.6219 74.1661 54.6219 74.0162 54.6219V54.472C74.0162 54.472 74.0162 54.3221 73.8661 54.3221C73.8661 54.3221 73.7161 54.1723 73.5662 54.1723C73.4161 54.0224 73.2662 54.0224 73.2662 54.0224H73.1162C72.9661 54.0224 72.9661 54.0224 72.9661 54.1723C72.9661 54.1723 72.8163 54.0224 72.6662 54.0224C72.6662 54.1723 72.5162 54.1723 72.6662 54.4719C72.5162 54.4719 72.3662 54.7716 72.2162 54.7716C72.2162 54.9215 72.3663 54.9215 72.3663 54.9215C72.2162 55.0714 72.2162 55.371 72.0663 55.371C72.0663 55.371 72.0663 55.5209 72.2164 55.5209C72.0663 55.8206 72.0663 56.1202 72.0663 56.4199C71.9163 56.27 71.9163 56.27 71.7664 56.1202C71.6163 55.9704 71.6163 55.8206 71.6163 55.6707C71.6163 55.5208 71.7664 55.371 71.7664 55.2212V55.0713C71.7664 54.9214 71.6163 54.9214 71.4664 54.9214L71.6165 55.0713L71.4664 55.2212C71.4664 55.2212 71.3164 55.3711 71.4664 55.3711V55.521C71.4664 55.3711 71.4664 55.2212 71.3164 55.2212H71.1663C71.1663 55.0714 71.0163 54.9216 70.8664 55.0714H71.0164V55.2212C71.0164 55.3711 71.0164 55.3711 71.3164 55.3711C71.0164 55.2213 70.8665 55.3711 70.8665 55.521V55.6709C70.7164 55.6709 70.7164 55.8208 70.8665 55.9706C70.8665 55.9706 70.8664 55.8207 71.0165 55.8207H71.1665C71.0165 55.9706 71.0165 56.1204 71.1665 56.1204C71.1665 56.4201 70.7166 56.4201 70.7166 56.1204C70.4166 56.4201 70.8666 56.7198 71.1665 56.5699C71.1665 56.5699 71.1665 56.7198 71.3166 56.7198H71.4666C71.4666 56.7198 71.4666 56.8697 71.6167 56.8697V56.7198C71.6167 56.7198 71.7667 57.0195 71.9166 57.1693C71.6167 57.3192 71.1667 57.469 71.0168 57.469H70.4168C70.2668 57.6189 69.6669 57.7687 69.5169 57.6189C69.5169 57.6189 69.517 57.469 69.3669 57.3192L69.2169 57.1693H69.0668C68.9168 57.0194 68.7668 57.0194 68.7668 57.1693C68.7668 57.1693 68.9169 57.1693 68.9169 57.3192V57.4691C68.9169 57.4691 68.9169 57.619 69.2169 57.7688H69.0668C68.9168 57.6189 68.9168 57.4691 68.7668 57.6189H68.6168C68.4667 57.6189 68.3168 57.7688 68.3168 57.9186C68.3168 57.9186 68.3168 57.7687 68.4669 57.7687V57.9186C68.4669 58.0685 68.617 58.2183 68.9168 57.9186C68.7668 58.0685 68.6169 58.2183 68.7668 58.3681H68.9168C68.9168 58.518 69.0669 58.6678 69.2168 58.6678C69.2168 58.6678 69.0668 58.5179 69.0668 58.3681H69.2168C69.3669 58.3681 69.3668 58.0684 69.3668 58.0684C69.3668 58.2183 69.3668 58.3681 69.6668 58.3681C69.8168 58.3681 69.9667 58.2182 69.9667 58.0684L70.1168 58.2183C70.1168 58.2183 70.2668 58.2183 70.2668 58.0684V58.3681C70.2668 58.3681 70.5668 58.2182 70.5668 58.0684V58.2183H71.0167V58.3682V58.2183C71.0167 58.2183 71.0167 58.3682 71.1668 58.518C71.1668 58.0684 71.4667 58.2183 71.7667 58.0685C71.7667 58.0685 71.7667 58.2183 71.6166 58.2183C71.7667 58.2183 72.0666 58.0684 72.0666 57.9186L72.2166 57.7687C72.3667 57.7687 72.5166 57.7687 72.5166 57.6189V57.9185C72.8166 57.9185 73.1165 57.6189 73.2665 57.469C74.0164 57.3192 72.8166 56.8696 74.3163 56.8696C74.4664 56.8696 74.6163 56.8696 74.7663 56.7198C74.6162 56.8696 74.6162 57.3191 74.9163 57.469C75.0664 57.469 75.2163 57.6189 75.2163 57.6189C75.0662 57.6189 74.9163 57.6189 74.9163 57.7687C74.6164 57.9186 74.6163 57.3192 74.1664 57.4691H74.0164C73.8663 57.4691 73.7164 57.6189 73.7164 57.7687C73.7164 57.7687 73.8665 57.6189 74.0164 57.6189C74.0164 57.6189 74.0163 57.7687 74.1664 57.7687H74.3164C74.3164 57.9186 73.8665 57.7687 74.0165 58.0684V58.2183C74.0165 58.3682 74.1665 58.518 74.3164 58.3682C74.3164 58.3682 74.1664 58.3682 74.1664 58.2183H74.3164V58.3682V58.5181C74.3164 58.6679 74.4665 58.8177 74.7664 58.6679C74.7664 58.6679 74.6164 58.6679 74.6164 58.5181H74.7664V58.3682H74.9165C74.9165 58.5181 75.0665 58.5181 75.2164 58.5181C75.5164 58.3682 75.2164 58.2184 75.5164 58.2184H75.6664H76.1163C76.1163 58.0685 76.1163 57.7689 75.9663 57.619C75.8162 57.619 75.9663 57.4691 75.8162 57.1695C75.9663 57.3194 76.2662 57.3194 76.5662 57.3194C77.0161 57.3194 76.5662 57.1695 76.8661 57.1695C77.1661 57.0196 77.466 57.0196 77.466 57.1695C77.466 57.1695 77.6161 57.1695 77.6161 57.3194V57.7689C77.6161 57.9188 77.3161 57.7689 77.1661 57.7689H77.0161C76.866 57.7689 76.7161 57.9188 76.7161 58.0686C76.7161 58.0686 76.8662 57.9187 77.0161 57.9187C77.0161 58.0686 77.1661 58.2184 77.316 58.0686C77.166 58.2185 77.0161 58.3683 77.166 58.3683H77.316C77.316 58.5181 77.316 58.6679 77.4661 58.6679V58.5181H77.6161C77.7662 58.5181 77.6161 58.3682 77.7662 58.2184V58.5181H77.9162C77.9162 58.6679 78.0663 58.6679 78.2162 58.6679C78.2162 58.6679 78.0661 58.6679 78.0661 58.5181L78.2162 58.3682C78.2162 58.0685 78.0661 58.0685 78.0661 57.9187C78.0661 57.7688 78.3661 57.9187 78.3661 57.619C78.3661 57.619 78.3661 57.4691 78.2161 57.4691C78.2161 57.4691 78.3661 57.4691 78.3661 57.3192C78.2161 57.3192 78.2161 57.1693 78.2161 57.0195C78.2161 57.0195 78.3661 56.8697 78.3661 56.7199C78.3661 56.8697 78.0661 56.8697 78.0661 56.7199C78.0661 56.7199 78.0661 56.57 77.9161 56.57C77.4662 56.7199 77.3162 56.4201 76.7163 56.4201C76.5662 56.4201 76.5662 56.4201 76.7163 56.4201L76.716 56.42ZM73.5666 54.622C73.5666 54.622 73.8666 54.7719 74.0166 54.7719C73.8665 54.7719 73.8665 54.9217 73.7166 54.9217C73.5665 54.9217 73.5666 54.7719 73.5666 54.6221L73.5666 54.622ZM73.2666 54.4722C73.2666 54.6221 73.1166 54.6221 72.9667 54.6221C72.8168 54.4722 72.9666 54.4722 72.8168 54.3224C72.9666 54.3224 73.2667 54.4723 73.2667 54.4723L73.2666 54.4722ZM72.8168 55.3713C72.8168 55.3713 72.9666 55.2214 72.8168 55.3713C72.9666 55.2214 72.9667 55.2214 73.1167 55.0716C73.1167 54.9218 73.1167 54.9218 72.9667 54.9218C73.1167 54.9218 73.1167 54.9218 73.1167 54.7719H72.9667L73.1167 54.622H73.2668L73.5667 54.7719V54.9218V55.0716C73.5667 55.0716 73.5667 54.9218 73.4167 54.9218V55.0716H73.2666V55.3714C73.2666 55.5213 73.1166 55.5213 72.8167 55.3714" fill="white"/>
<path d="M78.5645 61.4274C78.5645 60.9778 78.1145 60.828 76.7647 60.828C75.4149 60.828 72.4154 61.2775 72.4154 60.5283C72.4154 60.2286 73.0153 60.2286 73.6152 60.2286C73.6152 60.2286 73.7652 60.3785 73.9152 60.3785C75.565 60.828 77.6647 59.929 78.7145 60.2286C77.5147 59.3296 76.4648 60.2286 75.2649 59.9289C76.0148 59.9289 76.3148 59.779 76.3148 59.4794C75.7149 59.9289 74.665 59.3295 73.9151 59.7791C73.9151 59.7791 73.765 59.7791 73.765 59.929C72.8651 59.929 72.1153 59.929 72.1153 60.5283C72.1153 61.8769 75.7148 61.1277 76.7646 61.1277C77.8144 61.1277 78.1144 61.2776 78.1144 61.4274C78.1144 61.7271 77.0646 61.8769 76.4647 61.8769C75.5649 61.8769 72.5652 61.4274 70.9155 61.727C71.0655 61.4274 71.3654 61.1277 71.2154 60.828C71.3655 60.828 71.5154 60.6781 71.5154 60.5283C71.3654 60.3784 71.3654 60.3784 71.2154 60.3784C71.2154 60.2285 71.2155 60.2285 71.0654 60.0787C71.0654 60.0787 71.0654 59.9288 70.9154 59.9288C70.9154 59.9288 70.7653 59.779 70.4654 59.6292C70.3154 59.4793 70.1655 59.4792 70.0155 59.4792H69.7155C69.5655 59.4792 69.5655 59.4793 69.5655 59.6292C69.4154 59.4793 69.4155 59.4792 69.2655 59.4792C69.2655 59.6291 69.1155 59.7789 69.2655 59.9288C69.1155 59.9288 68.9656 60.3783 68.8156 60.2285C68.8156 60.3784 68.9656 60.3783 68.9656 60.3783C68.8156 60.678 68.8156 60.8279 68.6657 60.8279L68.8157 60.9777V61.4273L68.5158 61.2774H68.3657H68.5158H68.3657C68.2157 61.1275 68.0658 60.9777 67.7658 60.8279C67.4658 60.678 67.4658 60.5282 67.4658 60.2285C67.4658 59.9288 67.6159 59.779 67.6159 59.6291V59.4792C67.6159 59.3294 67.4658 59.1796 67.3159 59.1796C67.3159 59.1796 67.466 59.3294 67.466 59.4792L67.3159 59.6291V59.9288V60.0787C67.3159 59.9288 67.1659 59.6292 67.016 59.6292H66.8659C66.8659 59.4793 66.7159 59.3295 66.416 59.4793H66.5661V59.6292C66.5661 59.7791 66.7161 59.9289 66.866 59.9289V60.0788C66.5661 59.9289 66.4161 60.0788 66.4161 60.2286V60.3785C66.266 60.5284 66.266 60.6782 66.4161 60.6782V60.5283H66.5661H66.7162C66.5661 60.6782 66.5661 60.9778 66.7162 60.9778C66.7162 61.2775 66.1162 61.2775 66.2662 60.9778C65.9662 61.4274 66.4163 61.7271 66.8661 61.5772C66.8661 61.5772 66.8661 61.7271 67.0162 61.7271C67.0162 61.7271 67.0162 61.5772 67.1662 61.5772C67.1662 61.7271 67.1662 61.7271 67.3163 61.8769V61.727C67.3163 61.727 67.6162 62.0267 67.9162 62.1766C68.2162 62.3264 68.3661 62.4762 68.5161 62.3264C68.5161 62.6261 68.6662 62.9258 68.6662 62.9258H67.7663C67.4663 63.0757 66.8664 63.2255 66.7164 63.0757C66.7164 62.9258 66.7164 62.9258 66.5664 62.776C66.5664 62.6261 66.4164 62.6261 66.4164 62.6261H66.2663C66.1163 62.4762 65.9663 62.4762 65.8163 62.6261C65.8163 62.6261 65.9664 62.6261 66.1163 62.776V62.9259C66.1163 63.0758 66.1163 63.0758 66.4163 63.2256H66.2662C66.1162 63.0757 66.1162 62.9259 65.9662 63.0757H65.8162C65.6662 63.0757 65.3663 63.2256 65.5163 63.5252L65.6663 63.3753V63.5252C65.6663 63.6751 65.8163 63.8249 66.2662 63.6751C66.1162 63.8249 65.9663 63.9748 66.1162 64.1246H66.2662C66.2662 64.4243 66.4162 64.5741 66.5662 64.5741C66.5662 64.5741 66.4162 64.4243 66.4162 64.2744H66.5662C66.7162 64.1246 66.7162 63.9748 66.7162 63.8249C66.7162 63.9748 66.7162 64.1246 67.0162 64.1246C67.1662 64.1246 67.3161 63.9747 67.3161 63.8249C67.3161 63.8249 67.4662 63.9748 67.4662 64.1246C67.4662 64.1246 67.6162 64.1246 67.6162 63.9747C67.6162 64.1246 67.6162 64.2744 67.4662 64.4243C67.6162 64.4243 67.7661 64.2744 67.7661 63.9747C67.7661 63.9747 67.7662 64.1246 67.9162 64.1246H68.3661V64.2745C68.3661 64.2745 68.3661 64.1246 68.5162 64.1246C68.5162 64.1246 68.5162 64.2745 68.6662 64.4243C68.6662 63.8249 68.9662 64.1246 69.4161 63.8249C69.4161 63.8249 69.4161 63.9748 69.2661 63.9748C69.716 64.1247 70.3159 63.5253 70.4659 63.2256H70.9158C72.1157 63.3755 71.2158 62.1767 73.1655 62.4764C73.3156 62.4764 73.4655 62.3265 73.6155 62.3265C73.4654 62.6262 73.4654 63.0757 73.7655 63.0757C73.9156 63.0757 74.0654 63.2256 74.2154 63.2256C74.0654 63.2256 73.9155 63.2256 73.9155 63.3755C73.4655 63.6752 73.4656 62.7761 73.1656 62.926C73.1656 62.926 73.0155 62.926 73.0155 63.0759C72.8655 63.0759 72.5656 63.2257 72.7156 63.3755C72.7156 63.3755 72.8656 63.2257 73.0155 63.2257V63.3755C73.0155 63.3755 73.0155 63.5254 73.1656 63.5254H73.3156C73.3156 63.6753 72.7157 63.3755 72.8657 63.8251V63.975C72.8657 64.1249 73.0157 64.2747 73.1656 64.1249L73.0156 63.975H73.1656V64.1249V64.2748C73.1656 64.4246 73.3157 64.5745 73.6156 64.4246C73.6156 64.4246 73.4655 64.4246 73.3156 64.2748H73.4657V64.1249H73.6158H73.7658C73.7658 64.2748 73.9158 64.2748 74.0657 64.2748C74.3657 64.1249 74.0657 63.9751 74.3657 63.8252H74.5157H75.1156C75.1156 63.6754 75.1156 63.3757 74.9656 63.2259C74.8155 63.2259 74.9656 62.9262 74.8156 62.7763C75.1155 62.9262 75.2655 62.9262 75.5655 62.9262C76.1654 62.9262 76.3154 62.7763 76.6153 62.6265C76.9153 62.4767 77.2152 62.4767 77.3652 62.6265C77.3652 62.6265 77.5153 62.6265 77.5153 62.7764V63.2259C77.5153 63.3758 77.2153 63.2259 77.0653 63.2259C76.9153 63.2259 76.9153 63.226 76.9153 63.3758C76.7652 63.3758 76.6153 63.5257 76.6153 63.6755C76.6153 63.6755 76.7654 63.5256 76.9153 63.5256C76.9153 63.6755 77.2152 63.8253 77.3652 63.6755C77.2152 63.8254 77.0652 63.9752 77.2152 63.9752H77.3652C77.3652 64.1251 77.5153 64.2749 77.5153 64.2749V63.9752H77.6653C77.8154 63.9752 77.6653 63.6755 77.8154 63.6755C77.8154 63.8254 77.6653 63.9752 77.8154 64.125H77.9654C77.9654 64.2749 78.1154 64.2749 78.2653 64.2749C78.2653 64.2749 78.1153 64.2749 78.1153 64.125L78.2653 63.9752C78.4154 63.6755 78.1153 63.6755 78.1153 63.5256C78.1153 63.3757 78.4153 63.5256 78.4153 63.2259C78.4153 63.2259 78.4153 63.0761 78.2652 63.0761C78.4153 63.0761 78.4153 63.0761 78.5652 62.9262C78.2652 62.9262 78.4151 62.7763 78.4151 62.6265C78.5652 62.6265 78.5652 62.4766 78.5652 62.3268C78.4151 62.4767 78.2652 62.6265 78.2652 62.3268C78.2652 62.3268 78.2652 62.1769 77.9653 62.1769C77.5153 62.1769 77.2154 62.1769 76.4655 62.027C77.2154 62.027 78.5651 61.8772 78.5651 61.4277L78.5645 61.4274ZM70.3163 60.2289C70.3163 60.2289 70.6162 60.3788 70.7662 60.3788C70.4662 60.3788 70.6161 60.5287 70.4662 60.5287C70.3162 60.5287 70.3162 60.3788 70.3162 60.229L70.3163 60.2289ZM70.0162 60.0791C70.0162 60.229 69.8662 60.229 69.7162 60.229C69.5662 60.0791 69.7163 60.0791 69.5662 59.9293C69.7163 59.9293 70.0162 60.0792 70.0162 60.0792L70.0162 60.0791ZM69.5662 61.1281C69.5662 60.9782 69.7163 60.9782 69.5662 61.1281C69.8662 60.9782 69.8662 60.9782 69.8662 60.8284C69.8662 60.6785 69.8662 60.6785 69.7161 60.6785C69.8662 60.6785 69.8662 60.6785 69.8662 60.5287H69.7161C69.7161 60.5287 69.7162 60.3788 69.8662 60.3788H70.0162L70.4662 60.5287C70.4662 60.5287 70.6162 60.5287 70.6162 60.6785V60.8284C70.6162 60.8284 70.6162 60.6785 70.4662 60.6785V60.8284C70.3161 60.8284 70.3161 60.6785 70.1662 60.8284V60.9783V61.1282C70.1662 61.2781 70.0163 61.4278 69.8663 61.278C69.4163 61.4279 69.4163 61.2781 69.5663 61.1282L69.5662 61.1281Z" fill="white"/>
<path d="M77.9105 67.1379C77.9105 66.6884 77.4606 66.5385 76.2608 66.5385C75.061 66.5385 71.1616 66.9881 71.1616 66.2388C71.1616 65.7893 72.5114 65.9392 73.4113 65.9392C73.4113 65.9392 73.5613 66.089 73.7112 66.089C75.3611 66.5386 77.0108 65.4896 78.2106 65.7893C77.3108 64.8903 76.111 65.9392 74.9111 65.6395C75.661 65.6395 76.4109 65.4896 76.4109 65.3398C75.811 65.6395 74.3113 65.0401 73.5614 65.4897C73.5614 65.4897 73.4113 65.4897 73.4113 65.6395C72.2115 65.6395 70.7116 65.4897 70.7116 66.2389C70.7116 67.4377 75.061 66.6884 76.111 66.6884C77.1608 66.6884 77.4608 66.8383 77.4608 66.9881C77.4608 67.2878 76.411 67.2878 75.8111 67.2878C74.9112 67.2878 70.7118 66.6884 69.062 67.2878C69.212 66.9881 69.5119 66.5386 69.362 66.3888C69.512 66.3888 69.6619 66.2389 69.6619 66.0891C69.5119 65.9392 69.5119 65.9392 69.362 65.9392V65.7893C69.362 65.7893 69.362 65.6394 69.2119 65.6394C69.2119 65.6394 69.0619 65.4895 68.912 65.3397C68.7619 65.1899 68.612 65.1899 68.612 65.1899H68.312C68.162 65.1899 68.162 65.1899 68.162 65.3397C68.162 65.3397 68.012 65.1899 67.8621 65.1899C67.8621 65.3397 67.712 65.4895 67.8621 65.6394C67.712 65.6394 67.5621 66.0889 67.4121 65.9391C67.4121 66.089 67.5622 66.089 67.5622 66.089C67.4121 66.2388 67.4121 66.5385 67.2622 66.5385L67.4123 66.6884V67.1379H67.2622H67.1121H66.9621C66.812 67.1379 66.6621 66.8382 66.2122 66.5385C65.9123 66.3887 65.9123 66.2388 65.9123 66.089C65.9123 65.9391 66.0623 65.6395 66.0623 65.4896V65.3397C66.0623 65.1899 65.7624 65.0401 65.7624 65.1899L65.9124 65.3397L65.7624 65.4896V65.6395V65.7894C65.7624 65.6395 65.6123 65.3399 65.4624 65.3399H65.3123C65.3123 65.19 65.1623 65.0402 65.0124 65.19H65.1624V65.3399C65.1624 65.4897 65.3125 65.4897 65.4624 65.6395C65.1624 65.4897 65.0124 65.6395 65.0124 65.7894V65.9393C64.8624 66.0892 64.8624 66.0892 65.0124 66.239V66.0891H65.1625H65.3125H65.4626C65.3126 66.239 65.3125 66.3888 65.6126 66.5386C65.6126 66.8383 65.1627 66.8383 65.1627 66.5386C64.8627 66.9882 65.3127 67.2878 65.7626 66.9882C65.7626 66.9882 65.7626 67.1381 65.9127 67.1381H66.0627C66.0627 67.2879 66.0627 67.2879 66.2127 67.4377V67.2878C66.2127 67.2878 66.5127 67.7374 67.1126 68.0371C67.2626 68.0371 67.4125 68.0371 67.4125 67.8872C67.4125 67.8872 67.4126 68.0371 67.5626 68.0371C67.5626 68.3367 67.7127 68.4866 67.7127 68.4866H66.6628C66.3628 68.6365 65.9129 68.7863 65.613 68.6365C65.613 68.4866 65.6129 68.4866 65.4629 68.3368C65.4629 68.1869 65.3128 68.1869 65.3128 68.1869H65.1628C65.0128 68.037 64.8629 68.037 64.7129 68.1869C64.7129 68.1869 64.8629 68.1869 65.0128 68.3368V68.4867C65.0128 68.6366 65.0128 68.6366 65.3128 68.7864H65.1627C65.0127 68.6365 65.0127 68.4867 64.8628 68.6365H64.7127C64.5627 68.6365 64.2628 68.7863 64.4128 69.086L64.5628 68.9361V69.086C64.5628 69.2359 64.7129 69.3857 65.0128 69.2359C64.8627 69.3858 64.7128 69.5356 64.8627 69.6854H65.0128C65.0128 69.8353 65.1628 70.1349 65.3127 69.9851C65.3127 69.9851 65.1627 69.8352 65.1627 69.6854H65.3127C65.4628 69.6854 65.4628 69.3857 65.4628 69.3857C65.4628 69.5356 65.4628 69.6854 65.7628 69.6854C65.9128 69.6854 66.0627 69.5355 66.0627 69.3857C66.0627 69.3857 66.2127 69.5356 66.2127 69.6854L66.3628 69.5355C66.3628 69.6854 66.3628 69.8352 66.2127 69.8352C66.3628 69.8352 66.5127 69.6853 66.5127 69.5355V69.6854H66.9626V69.8353C66.9626 69.8353 66.9626 69.6854 67.1127 69.6854C67.1127 69.6854 67.1127 69.8353 67.2627 69.9851C67.2627 69.3857 68.0126 69.6854 68.3126 69.5356C68.3126 69.5356 68.3126 69.6855 68.1625 69.6855C68.3126 69.6855 68.4625 69.6854 68.6125 69.5356L69.2124 69.2359V69.086H69.3625C69.6624 69.086 69.6624 68.7863 69.8124 68.7863C71.912 69.086 70.7122 67.8873 73.1119 68.1869C73.2619 68.1869 73.2619 68.1869 73.4118 68.0371C73.2618 68.3367 73.2618 68.6364 73.5619 68.6364C73.7119 68.6364 73.8618 68.7863 74.0118 68.7863C73.8618 68.7863 73.7119 68.7863 73.7119 68.9362C73.2619 69.2359 73.262 68.3368 72.962 68.4867C72.962 68.4867 72.8119 68.4867 72.8119 68.6366C72.6619 68.6366 72.362 68.7864 72.512 68.9362C72.512 68.9362 72.662 68.7864 72.8119 68.7864V68.9362C72.8119 68.9362 72.812 69.0861 72.962 69.0861H73.112C73.112 69.236 72.6621 68.9362 72.6621 69.3858V69.5357C72.6621 69.6856 72.8121 69.8354 72.962 69.6856L72.812 69.5357H72.962V69.6856V69.8354C72.962 69.9853 73.1121 70.1351 73.412 69.9853C73.412 69.9853 73.2619 69.9853 73.2619 69.8354H73.412V69.6856H73.562H73.7121C73.7121 69.8354 73.8621 69.8354 74.012 69.8354C74.312 69.6856 74.012 69.5358 74.312 69.3859H74.462H75.062C75.062 69.236 75.0619 68.9364 74.9119 68.7866C74.7619 68.7866 74.9119 68.4869 74.7618 68.337C75.0618 68.4869 75.2118 68.4869 75.5118 68.4869C76.1117 68.4869 76.2617 68.337 76.4116 68.1872C76.7116 68.0373 77.0115 68.0373 77.1615 68.1872C77.1615 68.1872 77.3116 68.1872 77.3116 68.3371V68.7866C77.3116 68.9365 77.0116 68.7866 76.8616 68.7866C76.7116 68.7866 76.7116 68.7866 76.7116 68.9365C76.5617 68.9365 76.4116 69.0864 76.4116 69.2362C76.4116 69.2362 76.5617 69.0863 76.7116 69.0863C76.7116 69.2362 77.0115 69.386 77.0115 69.2362C76.8615 69.3861 76.7116 69.5359 76.8615 69.5359H77.0115C77.0115 69.6858 77.1616 69.8356 77.1616 69.8356V69.5359H77.3116C77.4617 69.5359 77.3116 69.2362 77.4617 69.2362V69.5359H77.6117C77.6117 69.6858 77.7618 69.6858 77.9117 69.6858C77.9117 69.6858 77.7616 69.6858 77.7616 69.5359L77.9117 69.386C78.0617 69.0863 77.7616 69.0863 77.7616 68.9365C77.7616 68.7866 78.0616 68.9365 78.0616 68.6368C78.0616 68.6368 78.0616 68.4869 77.9115 68.4869C78.0616 68.4869 78.0616 68.4869 78.0616 68.337C77.7616 68.337 77.9115 68.1871 77.9115 68.0373C77.9115 68.0373 78.0616 67.8875 78.0616 67.7377C78.0616 67.8875 77.7616 68.0373 77.7616 67.7377C77.7616 67.7377 77.7616 67.5878 77.4617 67.5878C77.0117 67.5878 76.8618 67.5878 76.1119 67.4379C76.7118 67.7376 77.9116 67.5878 77.9116 67.1382L77.9105 67.1379ZM68.7629 66.0893C68.7629 66.0893 69.0629 66.2392 69.2128 66.2392C69.0628 66.2392 69.0628 66.3891 68.9129 66.3891C68.7628 66.3891 68.7628 66.2392 68.7628 66.0894L68.7629 66.0893ZM68.4629 65.9395C68.4629 66.0894 68.3128 66.0894 68.1629 66.0894C68.0129 65.9395 68.163 65.9395 68.0129 65.7897C68.163 65.7897 68.4628 65.9396 68.4628 65.9396L68.4629 65.9395ZM68.0129 66.9885C68.3129 66.8386 68.3129 66.8386 68.3129 66.6888C68.3129 66.5389 68.3129 66.5389 68.1628 66.5389C68.3129 66.5389 68.3129 66.5389 68.3129 66.389H68.1628L68.3129 66.2392H68.4629L68.9128 66.389C68.9128 66.389 69.0629 66.3891 69.0629 66.5389V66.6888C69.0629 66.6888 69.0629 66.5389 68.9128 66.5389V66.6888H68.6129V66.9886C68.6129 67.1385 68.4628 67.1385 68.3129 67.1385C68.013 67.1385 68.013 66.9886 68.013 66.9886" fill="white"/>
<path d="M95.8437 76.7423C95.9938 76.5924 95.9938 76.5924 95.9938 76.2928C95.8437 76.4427 95.6938 76.5925 95.6938 76.2928C95.6938 76.2928 95.6938 76.1429 95.3939 76.1429C94.9439 76.1429 94.6439 76.1429 93.894 75.993C93.894 75.993 93.744 75.993 93.894 75.993C94.6439 75.993 95.9937 75.8431 95.9937 75.3936C95.9937 74.9441 95.5437 74.7943 94.3438 74.7943C93.1439 74.7943 89.2446 75.2438 89.2446 74.4946C89.2446 74.0451 90.5944 74.1949 91.4943 74.1949C91.4943 74.1949 91.6443 74.3448 91.7943 74.3448C93.4439 74.7943 95.2438 73.5956 96.2936 73.8952C95.0938 73.4457 94.194 74.1949 92.9941 73.8952C93.744 73.8952 94.4939 73.7454 94.4939 73.5956C93.894 73.8952 92.3943 73.2959 91.6444 73.7454C91.6444 73.7454 91.4944 73.7454 91.4944 73.8953C90.2945 73.8953 88.7947 73.7454 88.7947 74.4947C88.7947 75.6935 93.144 74.9442 94.1938 74.9442C95.2436 74.9442 95.5437 75.0941 95.5437 75.2439C95.5437 75.5436 94.4938 75.6934 93.8938 75.6934C92.844 75.6934 88.7946 75.0941 87.1447 75.6934C87.2948 75.3937 87.5947 74.9442 87.4447 74.7944C87.5947 74.7944 87.7446 74.6445 87.7446 74.4947C87.5946 74.3448 87.5946 74.3448 87.4447 74.3448V74.1949C87.4447 74.1949 87.4447 74.045 87.2946 74.045C87.2946 74.045 87.1446 73.8952 86.9947 73.7454C86.8446 73.5955 86.6947 73.5955 86.6947 73.5955H86.5447C86.3946 73.5955 86.3946 73.5955 86.3946 73.7454C86.2446 73.7454 86.2446 73.5955 86.0947 73.5955C86.0947 73.7454 85.9446 73.8952 86.0947 74.045C85.9446 74.045 85.7947 74.4946 85.6447 74.3447C85.6447 74.4946 85.7948 74.4946 85.7948 74.4946C85.6448 74.6445 85.6448 74.9441 85.4948 74.9441L85.6449 75.094V75.3937H85.4948H85.3448H85.1947C85.0447 75.3937 84.8947 75.094 84.4448 74.7943C84.1449 74.6444 84.1449 74.4946 84.1449 74.3448C84.1449 74.1949 84.2949 73.8952 84.2949 73.7454V73.5955C84.2949 73.4457 84.1449 73.2959 83.9949 73.4457L84.145 73.5955L83.9949 73.7454V73.8953V74.0452C83.9949 73.8953 83.8449 73.7455 83.695 73.5957H83.5449C83.5449 73.4458 83.3949 73.296 83.245 73.4458H83.395V73.5957C83.395 73.7455 83.5451 73.8953 83.695 73.8953C83.395 73.7455 83.2451 73.8953 83.2451 74.0452V74.1951C83.095 74.1951 83.095 74.345 83.2451 74.4948V74.3449H83.3951H83.5451H83.6952C83.5451 74.4948 83.5452 74.7944 83.8452 74.7944C83.8452 75.0941 83.3953 75.0941 83.3953 74.7944C83.0953 75.244 83.5453 75.5437 83.9952 75.244C83.9952 75.244 83.9952 75.3939 84.1453 75.3939H84.2953C84.2953 75.5437 84.2953 75.5438 84.4454 75.6936V75.5437C84.4454 75.5437 84.7453 75.9932 85.1953 76.2929C85.1953 76.2929 85.3453 76.143 85.4952 76.143C85.4952 76.2929 85.6452 76.2929 85.6452 76.4427H85.7953C85.7953 76.7424 86.0953 76.8922 85.9453 76.8922H85.1954C84.8955 77.0421 84.4456 77.1919 84.1456 77.0421C84.1456 76.8922 84.1456 76.8922 83.9955 76.7424C83.9955 76.5925 83.8455 76.5925 83.8455 76.5925H83.6954C83.5454 76.4427 83.3955 76.4427 83.2455 76.5925C83.2455 76.5925 83.3956 76.5925 83.3956 76.7424V76.8923C83.3956 77.0422 83.3956 77.0422 83.6955 77.192H83.5455C83.3954 77.0421 83.3954 76.8923 83.2455 77.0421H83.0955C82.9454 77.0421 82.6456 77.192 82.7955 77.4916L82.9456 77.3418V77.4916C82.9456 77.6415 83.0956 77.7913 83.3955 77.6415C83.2454 77.7914 83.0956 77.9412 83.2455 78.091H83.3955C83.3955 78.2409 83.5455 78.3907 83.6954 78.3907C83.6954 78.3907 83.5454 78.2409 83.5454 78.091H83.6954C83.8455 78.091 83.8455 77.7914 83.8455 77.7914C83.8455 77.9412 83.8455 78.091 84.1455 78.091C84.2955 78.091 84.4454 77.9412 84.4454 77.7914C84.4454 77.7914 84.5955 77.9412 84.5955 78.091L84.7455 77.9412C84.7455 78.091 84.7455 78.2408 84.5955 78.3907C84.7455 78.3907 84.8954 78.2408 84.8954 77.9412C84.8954 77.9412 84.8954 78.091 85.0455 78.091H85.4954V78.2409C85.4954 78.2409 85.4954 78.091 85.6454 78.091C85.6454 78.091 85.6454 78.2409 85.7955 78.3907C85.7955 77.7914 86.0954 78.091 86.5454 77.7914C86.5454 77.7914 86.5454 77.9412 86.3954 77.9412C86.5454 78.0911 86.9953 77.7914 86.9953 77.4917C86.9953 77.4917 87.1453 77.4917 87.2952 77.3418C87.5952 77.3418 87.5952 77.0422 87.7451 77.0422C89.8448 77.3418 88.645 76.1431 91.0447 76.4428C91.1947 76.4428 91.1947 76.2929 91.3446 76.1431C91.1946 76.4428 91.1946 76.8923 91.4947 76.8923C91.6447 76.8923 91.7946 77.0422 91.9446 77.0422C91.7946 77.0422 91.6447 77.0422 91.6447 77.1921C91.3447 77.4917 91.1947 76.5927 90.8948 76.7425C90.8948 76.7425 90.7447 76.7425 90.7447 76.8924C90.5947 76.8924 90.4448 77.0423 90.4448 77.1921C90.4448 77.1921 90.5948 77.0422 90.7447 77.0422V77.1921C90.7447 77.1921 90.7447 77.342 90.8948 77.342H91.0448C91.0448 77.4919 90.5949 77.1921 90.5949 77.6417C90.5949 77.6417 90.5949 77.7916 90.7449 77.7916C90.7449 77.9415 90.895 78.0913 91.0449 77.9415L90.8948 77.7916H91.0449V77.9415V78.0913C91.0449 78.2412 91.1949 78.391 91.4948 78.2412C91.4948 78.2412 91.3448 78.2412 91.3448 78.0913H91.4948V77.9415H91.6449C91.6449 78.0913 91.7949 78.0913 91.9448 78.0913C92.2448 77.9415 91.9448 77.7917 92.2448 77.7917H92.3948H92.9947C92.9947 77.6418 92.9947 77.3421 92.8447 77.1923C92.6946 77.1923 92.8447 76.8926 92.6946 76.7428C92.9946 76.8927 93.1445 76.8927 93.4445 76.8927C94.0444 76.8927 94.1944 76.7428 94.4944 76.593C94.7943 76.4431 95.0943 76.4431 95.2443 76.593C95.2443 76.593 95.3943 76.593 95.3943 76.7428C95.2443 77.0425 95.3943 77.0425 95.3943 77.1924C95.3943 77.3423 95.0944 77.1924 94.9444 77.1924C94.7943 77.1924 94.7943 77.1924 94.7943 77.3423C94.6443 77.3423 94.4944 77.4921 94.4944 77.6419C94.4944 77.6419 94.6444 77.4921 94.7943 77.4921C94.7943 77.6419 94.9444 77.7917 95.0943 77.6419C94.9443 77.7918 94.7943 77.9416 94.9442 77.9416H95.0943C95.0943 78.0915 95.0943 78.2413 95.2444 78.2413V77.9416H95.3944C95.5445 77.9416 95.5444 77.6419 95.6944 77.6419C95.6944 77.7918 95.5443 77.9416 95.6944 77.9416H95.8444C95.8444 78.0915 95.9945 78.0915 96.1444 78.0915C96.1444 78.0915 95.9943 78.0915 95.9943 77.9416L96.1444 77.7918C96.2944 77.4921 95.9943 77.4921 95.9943 77.3422C95.9943 77.1923 96.2942 77.3422 96.2942 77.0425C96.2942 77.0425 96.2943 76.8927 96.1442 76.8927C96.2943 76.8927 96.2942 76.8927 96.4441 76.7428C95.6943 77.1923 95.8443 76.8927 95.8443 76.7428L95.8437 76.7423ZM86.6956 74.4952C86.6956 74.4952 86.9956 74.6451 87.1455 74.6451L86.9955 74.795C86.8454 74.795 86.6955 74.6451 86.6955 74.4953L86.6956 74.4952ZM86.3956 74.3454C86.3956 74.4953 86.2455 74.4953 86.0956 74.4953C85.9456 74.3454 86.0956 74.3454 85.9455 74.1956C86.0956 74.1956 86.3955 74.3455 86.3955 74.3455L86.3956 74.3454ZM85.9455 75.3944C85.9455 75.2445 86.0956 75.2445 85.9455 75.3944C86.2455 75.2445 86.2455 75.2445 86.2455 75.0947C86.2455 74.9448 86.2455 74.9448 86.0955 74.9448C86.2455 74.9448 86.2455 74.9448 86.2455 74.7949H86.0955V74.645H86.2455L86.6955 74.7949V74.9448V75.0947C86.6955 75.0947 86.6955 74.9448 86.5454 74.9448V75.0947C86.3954 75.0947 86.3954 74.9448 86.2455 75.0947V75.3945C86.2455 75.5443 86.0954 75.5443 85.9455 75.3945L85.9455 75.3944Z" fill="white"/>
<path d="M90.1825 79.9168C90.1825 80.0667 90.3326 80.0667 90.4825 80.0667C91.9823 80.5162 93.782 79.3175 94.6819 79.6171C93.4821 79.1676 92.7322 79.9168 91.5325 79.6171C92.2824 79.6171 92.8823 79.4673 93.0323 79.3175C92.4323 79.6171 91.0825 79.1676 90.3326 79.4673H90.1825C89.2826 79.4673 88.6827 79.4673 88.6827 80.0667C88.6827 81.2654 91.8322 80.5162 92.8822 80.5162C93.9322 80.5162 93.7821 80.6661 93.7821 80.8159C93.7821 81.1156 92.5822 81.1156 92.1322 81.1156C91.2323 81.1156 88.6827 80.6661 87.033 80.9657C87.183 80.666 87.4829 80.3663 87.3329 80.2165C87.483 80.2165 87.6329 80.0666 87.6329 79.9168C87.4829 79.7669 87.4828 79.7669 87.3329 79.7669V79.617C87.3329 79.617 87.3329 79.4671 87.1829 79.4671C87.1829 79.4671 87.0328 79.3173 86.8829 79.1675C86.7329 79.0176 86.583 79.0176 86.583 79.0176H86.4329C86.2829 79.0176 86.2829 79.0176 86.2829 79.1675C86.2829 79.1675 86.1328 79.0176 85.9829 79.0176C85.9829 79.1675 85.8329 79.3173 85.9829 79.4671C85.8329 79.4671 85.683 79.7668 85.533 79.7668C85.533 79.9167 85.6831 79.9167 85.6831 79.9167C85.533 80.0666 85.533 80.3662 85.3831 80.3662L85.5331 80.5161C85.5331 80.666 85.5331 80.8158 85.3831 80.9656H85.233C85.083 80.9656 84.9331 80.9656 84.6331 80.8157C84.3332 80.6658 84.3332 80.516 84.3332 80.3662C84.3332 80.2163 84.4832 79.9167 84.4832 79.7668V79.6169C84.4832 79.4671 84.3332 79.3173 84.1833 79.4671L84.3331 79.6169L84.1833 79.7668V79.9167V80.0666C84.1833 79.9167 84.0332 79.7669 83.8833 79.7669H83.7332C83.7332 79.617 83.5832 79.4672 83.4333 79.617H83.5833V79.7669C83.5833 79.9168 83.7334 79.9168 83.8833 79.9168C83.5833 79.7669 83.4333 79.9168 83.4333 80.0667V80.2166C83.2833 80.2166 83.2833 80.3664 83.4333 80.5162V80.3664H83.5834H83.7334C83.5834 80.5162 83.5834 80.666 83.8835 80.8159C83.8835 81.1156 83.4335 81.1156 83.4335 80.8159C83.1336 81.2654 83.5836 81.5651 84.0335 81.2654C84.0335 81.2654 84.0335 81.4153 84.1835 81.4153C84.1835 81.5652 84.1835 81.5652 84.3334 81.5652V81.4153C84.3334 81.4153 84.3334 81.2654 84.7833 81.5652C84.7833 81.5652 84.7833 81.7151 84.9334 81.7151H85.2333V82.3144H84.4835C84.3334 82.4643 83.7336 82.6141 83.5836 82.4643C83.5836 82.3144 83.5836 82.3144 83.4335 82.1646C83.4335 82.0148 83.2835 82.0147 83.2835 82.0147H83.1334C82.9834 81.8649 82.8335 81.8649 82.6835 82.0147C82.6835 82.0147 82.8336 82.0148 82.8336 82.1646V82.3145C82.8336 82.3145 82.8336 82.4644 83.1335 82.6142H82.9835C82.8334 82.4643 82.8334 82.3145 82.6835 82.4643H82.5335C82.3834 82.4643 82.0835 82.6142 82.2335 82.764C82.2335 82.764 82.2335 82.6141 82.3836 82.6141V82.764C82.3836 82.9139 82.5336 83.0637 82.8335 82.764C82.6834 82.9139 82.5335 83.0637 82.6834 83.2135H82.8335C82.8335 83.3634 82.9835 83.5132 83.1334 83.5132C83.1334 83.5132 82.9834 83.3633 82.9834 83.2135H83.1334C83.2835 83.2135 83.2835 82.9138 83.2835 82.9138C83.2835 83.0637 83.2835 83.2135 83.5834 83.2135C83.7335 83.2135 83.8834 83.0636 83.8834 82.9138C83.8834 82.9138 84.0335 83.0637 84.0335 83.2135L84.1835 83.0636C84.1835 83.2135 84.1835 83.3634 84.0335 83.3634C84.1835 83.3634 84.3334 83.2135 84.3334 83.0636C84.3334 83.0636 84.3334 83.2135 84.4835 83.2135H84.9334V83.3634C84.9334 83.3634 84.9334 83.2135 85.0834 83.2135C85.0834 83.2135 85.0834 83.3634 85.2335 83.5132C85.2335 82.9138 85.6834 83.0637 85.9834 82.9138C85.9834 82.9138 85.9834 83.0637 85.8334 83.0637C86.1333 83.2136 86.5833 82.764 86.7332 82.4644L86.8832 82.3145V82.4644C87.1832 82.4644 87.1832 82.1647 87.3332 82.1647C88.383 82.3145 87.6331 81.2656 89.2829 81.5653C89.433 81.5653 89.5829 81.4154 89.7329 81.4154C89.5829 81.5653 89.5829 82.1646 89.883 82.1646C90.033 82.1646 90.1829 82.3145 90.3329 82.3145C90.1828 82.3145 90.0329 82.3145 90.0329 82.4644C89.733 82.7641 89.733 81.865 89.283 82.0149H89.133C88.983 82.0149 88.833 82.1647 88.833 82.3145C88.833 82.3145 88.9831 82.1647 89.133 82.1647V82.3145C89.133 82.3145 89.133 82.4644 89.283 82.4644H89.4331C89.4331 82.6143 88.9831 82.3145 88.9831 82.7641V82.914C88.9831 83.0639 89.1332 83.2137 89.2831 83.0639L89.133 82.914H89.2831V83.0639V83.2137C89.2831 83.3636 89.4331 83.5134 89.733 83.3636C89.733 83.3636 89.583 83.3636 89.583 83.2137H89.733V83.0639H89.8831C89.8831 83.2137 90.0331 83.2137 90.183 83.2137C90.483 83.0639 90.183 82.9141 90.483 82.9141H90.633H91.233C91.233 82.7642 91.2329 82.4645 91.0829 82.3147C90.9329 82.3147 91.0829 82.1648 90.9328 81.8652C91.0829 82.015 91.3828 82.015 91.6828 82.015C92.2827 82.015 92.4326 82.015 92.7326 81.8652C93.0326 81.7153 93.3325 81.7153 93.4825 81.8652C93.4825 81.8652 93.6326 81.8652 93.4825 82.015C93.3325 82.3147 93.4825 82.3147 93.3325 82.4646C93.1824 82.6145 93.0325 82.4646 92.8825 82.4646H92.7325C92.5824 82.4646 92.4325 82.6145 92.4325 82.7643C92.4325 82.7643 92.5826 82.6144 92.7325 82.6144C92.7325 82.7643 92.8825 82.9141 93.0325 82.7643C92.8824 82.9141 92.5825 83.0639 92.7325 83.0639H92.8825C92.8825 83.2138 92.8825 83.3636 93.0326 83.3636C93.0326 83.3636 93.0326 83.2138 93.1826 83.0639H93.3327C93.4827 83.0639 93.4827 82.7643 93.6326 82.7643C93.4826 82.9141 93.4826 83.0639 93.6326 83.0639H93.7827C93.7827 83.2138 93.9327 83.2138 94.0826 83.2138C94.0826 83.2138 93.9326 83.2138 93.9326 83.0639L94.0826 82.9141C94.2327 82.6144 93.9326 82.6144 94.0826 82.4645C94.0826 82.3146 94.3826 82.4645 94.5325 82.1648C94.5325 82.1648 94.5325 82.015 94.3825 82.015C94.5325 82.015 94.5325 82.015 94.6824 81.8651C94.5324 81.8651 94.5324 81.7152 94.5324 81.5654C94.6825 81.5654 94.6824 81.4155 94.6824 81.2657C94.5324 81.4156 94.3825 81.4156 94.3825 81.2657C94.3825 81.2657 94.3825 81.1158 94.2326 81.1158C93.9327 81.1158 93.3328 81.1158 92.7328 80.966C93.4827 80.966 94.8325 80.8161 94.8325 80.3666C94.8325 80.0669 94.8325 79.7672 93.6327 79.7672C92.4328 79.7672 89.7331 80.2168 89.7331 79.4675C88.9832 79.9171 89.5831 79.9171 90.1831 79.9171L90.1825 79.9168ZM86.2835 79.9171C86.2835 80.0669 86.1335 80.0669 85.9836 80.0669C85.8335 79.9171 85.9836 79.917 85.8335 79.7672C85.9836 79.7672 86.1335 79.9171 86.2835 79.9171L86.2835 79.9171ZM86.5834 80.6663C86.4334 80.6663 86.4334 80.5165 86.5834 80.6663C86.2835 80.5165 86.4334 80.5165 86.5834 80.6663H86.2835V80.8162V80.9661C86.2835 80.9661 86.1334 81.116 85.9835 81.116C85.8335 81.116 85.8335 80.9661 85.8335 80.8163C85.8335 80.6664 85.9835 80.6664 85.9835 80.6664C86.1336 80.6664 86.1335 80.6664 86.1335 80.5165C86.1335 80.3667 86.1336 80.3667 85.9835 80.3667C86.1336 80.3667 86.1335 80.3667 86.1335 80.2168H85.9835V80.0669H86.1335L86.5835 80.2168V80.6663L86.5834 80.6663ZM86.7335 80.3666C86.5835 80.3666 86.5835 80.2167 86.5835 80.0669C86.5835 80.0669 86.8835 80.2168 87.0334 80.2168C86.8834 80.2168 86.8834 80.3667 86.7335 80.3667" fill="white"/>
<path d="M88.8404 85.5458C88.8404 85.6957 88.9905 85.6957 89.1404 85.6957C90.6402 86.1452 92.4399 84.9465 93.3399 85.2462C92.14 84.7967 91.3901 85.5459 90.1904 85.2462C90.9403 85.2462 91.5402 85.0963 91.6902 84.9465C91.0903 85.2462 89.7404 84.6468 88.9905 85.0964C88.9905 85.0964 88.8404 85.0964 88.8404 85.2463C88.3905 85.3961 87.9406 85.5459 87.9406 85.9955C87.9406 87.0444 91.8401 86.1454 91.8401 86.5948C91.8401 86.8945 91.0902 87.1942 90.0404 87.1942C89.2905 87.1942 87.9407 86.7447 86.1408 87.0443C86.2909 86.7446 86.5908 86.2951 86.4408 86.1453C86.5909 86.1453 86.7408 85.9954 86.7408 85.8456C86.5907 85.6957 86.5907 85.6957 86.4408 85.6957V85.5458C86.4408 85.5458 86.4408 85.3959 86.2908 85.3959C86.2908 85.3959 86.1407 85.2461 85.9908 85.2461C85.8408 85.0962 85.6909 85.2461 85.6909 85.0962H85.5408C85.5408 85.0962 85.3908 85.0962 85.3908 85.2461C85.3908 85.2461 85.2407 85.0962 85.0908 85.0962C85.0908 85.2461 84.9408 85.3959 85.0908 85.5457C84.9408 85.5457 84.7908 85.8454 84.6408 85.8454C84.6408 85.9953 84.7909 85.9953 84.7909 85.9953C84.6408 86.1451 84.6408 86.4448 84.4909 86.4448L84.641 86.5947C84.641 86.8944 84.4909 87.3439 84.641 87.4937C84.341 87.1941 84.0411 86.7445 83.7411 86.5947C83.4411 86.4448 83.4412 86.295 83.4412 86.1451C83.4412 85.9953 83.5912 85.8455 83.5912 85.5458V85.3959C83.5912 85.246 83.4412 85.246 83.2912 85.246L83.4413 85.3959L83.2912 85.5458V85.6957V85.8455C83.2912 85.6957 83.1412 85.5459 82.9913 85.5459H82.8412C82.8412 85.396 82.6912 85.2462 82.5413 85.396H82.6913V85.5459C82.6913 85.6957 82.8414 85.6957 82.9913 85.6957C82.6913 85.5458 82.6913 85.6957 82.5413 85.8456V85.9955C82.3913 85.9955 82.3913 86.1454 82.5413 86.2952V86.1453H82.6914H82.8414C82.6914 86.2952 82.6914 86.445 82.9915 86.445C82.9915 86.7447 82.5415 86.7447 82.5415 86.445C82.2416 86.7447 82.6916 87.0444 82.9915 86.8945C82.9915 86.8945 82.9915 87.0444 83.1415 87.0444C83.1415 87.1943 83.1416 87.1943 83.2916 87.1943V87.0444C83.2916 87.0444 83.2916 87.4939 83.7415 87.7936C83.8914 88.0933 84.0415 88.2431 84.3414 88.2431C84.4915 88.393 84.4915 88.5428 84.4915 88.5428H83.7416C83.5915 88.5428 83.4416 88.6927 83.2916 88.6927C83.1416 88.6927 82.9917 88.6927 82.8417 88.5428C82.8417 88.5428 82.8417 88.3929 82.6917 88.2431C82.6917 88.0932 82.5416 88.0932 82.5416 88.0932H82.3916C82.2415 87.9434 82.0916 87.9434 82.0916 88.0932C82.0916 88.0932 82.2417 88.0932 82.2417 88.2431V88.393C82.2417 88.393 82.2417 88.5429 82.5416 88.6927H82.3916C82.2415 88.5428 82.2415 88.393 82.0916 88.5428H81.9416C81.7915 88.5428 81.6416 88.6927 81.6416 88.8425C81.6416 88.8425 81.6416 88.6926 81.7917 88.6926V88.8425C81.7917 88.9924 81.9417 89.1422 82.2416 88.8425C82.0915 88.9924 81.9416 89.1422 82.0916 89.2921C82.0916 89.4419 82.2416 89.5917 82.3915 89.5917C82.3915 89.5917 82.2415 89.4419 82.2415 89.2921H82.3915C82.5416 89.2921 82.5415 88.9924 82.5415 88.9924C82.5415 89.1423 82.5415 89.2921 82.8415 89.2921C82.9915 89.2921 83.1414 89.1422 83.1414 88.9924L83.2915 89.1423C83.2915 89.1423 83.4416 89.1423 83.4416 88.9924C83.4416 89.1423 83.4415 89.1423 83.2915 89.2921C83.2915 89.2921 83.5915 89.1422 83.5915 88.9924V89.1423H84.0414V89.2921C84.0414 89.2921 84.0414 89.1423 84.1914 89.1423C84.1914 89.1423 84.1914 89.2921 84.3415 89.4419C84.3415 88.9924 84.6414 89.1423 84.9414 88.9924C84.9414 88.9924 84.9414 89.1423 84.7913 89.1423C84.9414 89.1423 85.2413 88.9924 85.2413 88.8426C85.2413 88.8426 85.5413 88.5429 85.5413 87.9436H85.6913C86.1413 87.9436 86.2912 87.6439 86.7411 87.6439C86.5911 87.7938 86.5911 88.0934 86.5911 88.2433C86.5911 88.3931 86.8911 88.6928 87.041 88.8426C86.891 88.8426 86.7411 88.8426 86.7411 88.9925C86.4411 89.1424 86.4412 88.543 85.9912 88.6928L85.8412 88.8427C85.6911 88.8427 85.5412 88.9926 85.5412 89.1424C85.5412 89.1424 85.6913 88.9925 85.8412 88.9925C85.8412 88.9925 85.8412 89.1424 85.9912 89.1424H86.1412C86.1412 89.2923 85.6913 88.9925 85.8413 89.4421V89.592C85.8413 89.7418 85.9913 89.8917 86.1412 89.7418L85.9912 89.592H86.1412V89.7418V89.8917C86.1412 90.0416 86.2913 90.1914 86.5912 90.0416C86.5912 90.0416 86.4411 90.0416 86.4411 89.8917H86.5912V89.7418H86.7412C86.7412 89.7418 86.8913 89.8917 87.0412 89.8917C87.3411 89.7418 87.0412 89.592 87.3411 89.592H87.4912C87.6412 89.592 87.7911 89.7419 87.9411 89.592C87.9411 89.4421 87.9411 89.1425 87.7911 88.9927C87.641 88.9927 87.9411 88.2434 87.3411 87.7939C87.6411 87.7939 88.541 87.9438 88.6909 87.7939C88.9909 87.7939 89.2909 88.0936 89.2909 88.0936V88.2435C88.9909 88.3934 89.1408 88.3934 88.9909 88.5432C88.9909 88.5432 88.8409 88.3933 88.6909 88.2435H88.5409C88.3908 88.2435 88.2409 88.2435 88.2409 88.3934H88.5409V88.5432C88.3908 88.5432 88.091 88.5432 88.2409 88.6931V88.843C88.0909 88.843 88.0909 88.9929 88.2409 89.1427C88.2409 89.1427 88.2409 88.9928 88.391 88.9928V89.1427C88.391 89.1427 88.541 88.9928 88.6909 88.9928C88.5409 88.9928 88.391 89.1427 88.5409 89.2925V89.4424C88.5409 89.5922 88.5409 89.742 88.6909 89.742V89.5922H88.841C89.141 89.4423 88.991 89.2925 88.991 89.1427C89.1411 88.9928 89.1411 89.2925 89.441 89.1427V88.9927C89.441 88.9927 89.591 89.1426 89.591 88.9927C89.441 88.8429 89.591 88.8429 89.7411 88.6931C89.7411 88.6931 89.8911 88.6931 90.041 88.5432C89.891 88.5432 89.5911 88.3933 89.7411 88.3933C90.041 88.2434 90.041 88.0936 89.8911 87.9438C89.7411 87.6441 89.2912 87.6441 89.2912 87.3444H89.7411C91.0909 87.3444 91.9908 87.0447 91.8408 86.5952C91.8408 85.6961 87.7914 86.5952 87.7914 85.9958C88.3913 85.6961 88.5412 85.5463 88.8412 85.5463L88.8404 85.5458ZM85.9917 85.5463C85.9917 85.5463 86.2917 85.6962 86.4416 85.6962C86.2916 85.6962 86.2916 85.8461 86.1417 85.8461C85.9916 85.8461 85.9916 85.6962 85.9916 85.5464L85.9917 85.5463ZM85.6917 85.5464C85.6917 85.6963 85.5416 85.6963 85.3917 85.6963C85.2417 85.5464 85.3917 85.5464 85.2416 85.3966C85.3917 85.3966 85.6916 85.3966 85.6916 85.5465L85.6917 85.5464ZM85.3916 86.4455C85.5416 86.2956 85.6916 86.2956 85.6916 86.2956C85.6916 86.1458 85.6916 86.1458 85.5416 86.1458C85.6916 86.1458 85.6916 86.1458 85.6916 85.9959H85.5416V85.846H85.6916L85.9915 85.9959V86.1458V86.2956C85.9915 86.2956 85.9916 86.1458 85.8415 86.1458V86.2956H85.6915V86.5954C85.6915 86.7453 85.5414 86.7453 85.3915 86.7453C85.2415 86.5954 85.2415 86.4456 85.3915 86.4456" fill="white"/>
<path d="M24.5685 16.3645C24.5685 15.7651 24.1186 15.4654 23.6686 15.4654C23.0687 15.4654 22.7687 15.9149 22.7687 16.3645C22.7687 16.814 23.2187 17.2635 23.6686 17.2635C24.1186 17.2635 24.5685 16.814 24.5685 16.3645Z" fill="white"/>
<path d="M24.1593 13.6971C24.1593 13.0978 23.7094 12.7981 23.2594 12.7981C22.6595 12.7981 22.3596 13.2476 22.3596 13.6971C22.3596 14.1467 22.8095 14.5962 23.2594 14.5962C23.8594 14.7461 24.1593 14.2965 24.1593 13.6971Z" fill="white"/>
<path d="M24.7976 12.552C25.3975 12.552 25.6975 12.1025 25.6975 11.6529C25.6975 11.2034 25.2475 10.7539 24.7976 10.7539C24.1977 10.7539 23.8977 11.2034 23.8977 11.6529C23.8977 12.1025 24.1977 12.552 24.7976 12.552Z" fill="white"/>
<path d="M27.3174 12.4866C27.9173 12.4866 28.2173 12.037 28.2173 11.5875C28.2173 10.9882 27.7674 10.6885 27.3174 10.6885C26.7175 10.6885 26.4175 11.138 26.4175 11.5875C26.4175 12.037 26.8675 12.4866 27.3174 12.4866Z" fill="white"/>
<path d="M38.2473 10.6867C38.6972 10.9864 39.2972 10.9864 39.5971 10.6867C39.8971 10.387 39.8971 9.63781 39.5971 9.33812C39.1472 8.88859 38.5473 8.88859 38.2473 9.33812C37.9473 9.63781 37.9473 10.2372 38.2473 10.6867Z" fill="white"/>
<path d="M38.0347 8.63949C38.4846 8.33981 38.4846 7.59059 38.0347 7.29091C37.5848 6.99123 36.9849 6.84138 36.6849 7.29091C36.235 7.59059 36.385 8.33981 36.6849 8.63949C37.1348 8.93917 37.7347 8.93917 38.0347 8.63949Z" fill="white"/>
<path d="M35.5149 8.19787C35.8148 7.89819 35.8148 7.14898 35.5149 6.84929C35.0649 6.39976 34.465 6.39976 34.165 6.84929C33.8651 7.29882 33.8651 7.89819 34.165 8.19787C34.465 8.6474 35.0649 8.6474 35.5149 8.19787Z" fill="white"/>
<path d="M33.2732 9.80315C33.5732 9.50345 33.5732 8.75424 33.2732 8.45456C32.8233 8.15488 32.2234 8.15488 31.9235 8.45456C31.6235 8.90409 31.6235 9.50345 31.9235 9.80315C32.3734 10.2527 32.9733 10.2527 33.2732 9.80315Z" fill="white"/>
<path d="M27.1212 8.44658L27.871 10.0948L28.7709 8.89605H28.921C29.071 9.49541 29.071 10.3945 29.071 10.9939C29.071 11.7431 29.6709 12.1926 30.2708 12.1926C30.8708 12.1926 31.4707 11.5933 31.4707 10.9939C31.4707 10.5444 31.1707 10.0949 30.8708 9.94501C30.4208 9.64532 29.8209 9.04594 29.521 8.74626V8.59642L31.1708 8.74626L30.5709 6.94817L29.371 7.99706L29.221 6.19897L27.5713 6.79834L28.6212 8.14692V8.29676L27.1212 8.44658Z" fill="white"/>
<path d="M38.2801 11.5705C38.58 12.1698 38.73 12.4695 38.88 12.919C38.58 12.7692 38.28 12.4695 37.8301 12.02L37.9802 14.2675C38.2801 13.818 38.4301 13.6682 38.73 13.5183C38.58 15.0168 38.1301 15.6162 37.5302 15.6162C36.9303 15.7661 36.4803 15.3165 36.3304 14.867C36.1803 14.2676 36.7803 13.8181 37.3802 14.4174C37.5303 13.0689 36.3304 13.0689 35.8804 13.6682C36.4803 12.3197 36.1804 11.5704 35.1305 10.8213C34.3806 12.02 34.6806 12.7693 35.5805 13.8181C34.6806 13.3686 33.9306 14.1178 34.6806 15.1667C34.8307 14.2676 35.5805 14.5673 35.7304 15.1667C35.8805 15.7661 35.2805 16.5153 34.3807 16.8149C33.0308 17.2644 32.5809 16.3654 32.281 15.6162C32.581 15.4663 33.3308 15.4663 34.0807 16.0657L33.4808 13.8181C33.1808 14.5673 32.7309 14.867 32.131 15.1667C32.131 14.5673 32.581 13.2187 32.581 13.2187L29.8813 14.2676C29.8813 14.2676 31.0811 14.867 31.5311 15.3165C30.9312 15.4664 30.4812 15.6162 29.7314 15.3165L30.7813 17.4144C30.9313 16.5153 31.3811 15.9159 31.8311 15.9159C32.131 16.6651 32.431 17.5641 31.0812 18.3134C30.1813 18.7629 29.2815 18.6131 28.9816 18.1635C28.6816 17.5641 28.9815 16.8149 29.7314 17.4143C29.5814 16.2155 28.5316 16.2155 28.2316 17.1146C28.2316 15.766 27.9317 15.0167 26.5818 14.7171C26.2818 16.0657 26.7319 16.815 27.9316 17.2645C27.1817 17.1146 26.4318 17.8638 27.4817 18.7629C27.4817 18.0137 28.2316 17.8638 28.5315 18.4632C28.8315 18.9127 28.6816 19.5121 28.2316 19.8118C27.7816 20.1115 27.0317 20.1115 25.8318 19.0626C26.1318 18.9127 26.4317 18.9127 27.0317 19.0626L25.6819 17.2645C25.8319 17.8638 25.6819 18.3134 25.5318 18.6131C25.2319 18.3134 25.0819 18.0137 24.9319 17.2645L23.882 18.1635C24.9319 18.7629 26.1317 19.8118 27.4815 21.7597C28.9813 20.8607 31.6809 19.5122 33.3306 18.7629C34.9805 18.0137 37.83 17.1147 39.6297 16.8149C39.3298 14.4175 39.4799 12.919 39.7798 11.7203L38.2801 11.5705Z" fill="white"/>
<path d="M59.437 72.6354C59.887 71.5865 57.9372 70.3878 57.6373 69.0392C57.3373 67.6906 57.6373 66.1921 55.8376 64.2443C54.1877 62.2963 48.4886 56.1528 46.6889 54.2049C47.1388 54.2049 48.1886 53.9052 49.2385 54.9541C49.8384 55.5535 51.0382 56.7522 52.2381 57.801C53.7379 53.9051 55.6877 51.0582 58.3872 47.9115C58.6871 47.4619 59.1371 47.1622 59.437 46.7127C58.3872 47.0124 56.8874 47.3121 55.9875 47.9115C55.9875 46.2633 55.9874 44.9146 54.9376 43.7159C55.3875 41.3185 54.9376 38.4714 49.6883 35.0251C52.388 35.6244 54.0377 38.1718 56.1375 36.2238C54.3377 36.2238 54.1877 32.178 47.4386 28.7317C49.9883 28.7317 51.938 32.7775 54.9376 30.5298C52.088 30.2301 51.1881 25.2852 46.0889 23.637C47.8886 23.7869 49.6883 24.6859 51.1881 22.5881C49.3884 23.0377 48.3385 21.3894 46.5388 21.2396C47.2887 18.992 47.1388 17.6434 46.3888 16.1449C45.039 16.2948 43.6891 16.5944 42.7894 17.4935C42.6393 16.2947 41.4395 16.2947 40.2397 16.2947C40.2397 16.7443 40.5397 17.4935 39.9398 17.6433C39.0399 17.7932 36.0402 18.6922 33.6407 19.5913C31.391 20.4903 28.6913 22.1386 27.9414 22.738C27.4915 23.0377 27.0415 22.2885 26.7416 21.9888C25.9917 22.738 25.0919 23.637 25.6917 24.5361C24.3419 24.686 22.9921 24.9856 21.7922 25.8847C21.7922 27.3831 22.992 28.8815 24.9416 29.6308C21.7922 32.7775 24.6417 35.6244 21.942 38.3216C25.8416 38.4715 25.0915 33.077 27.0413 32.328C26.8912 36.074 24.7916 36.8233 24.7916 40.8689C24.7916 43.1165 26.1414 45.3642 24.9416 46.8626C28.2412 45.9635 27.3414 38.7711 29.291 36.6732C29.591 37.872 29.441 39.0707 28.991 40.2694C27.7912 43.566 29.1411 48.211 27.3412 49.5596C30.6407 49.2599 31.0907 44.0155 33.7904 42.0675C31.3906 46.8624 29.1411 56.9019 25.5414 61.9972C19.9922 69.6392 16.5427 78.7803 11.4434 78.7803C9.19372 78.7803 7.394 77.4317 7.394 74.5848C7.394 66.0438 22.242 60.05 22.242 50.9097C22.242 46.8639 18.9424 45.2157 16.8426 45.2157C15.4928 45.2157 13.6932 45.9649 12.3432 47.0138C11.7433 46.7141 11.1434 46.5642 10.5435 46.5642C5.2942 46.5642 6.64394 56.0043 2.14471 55.8544C3.94444 56.9033 7.09407 54.9554 8.8938 52.2583C8.1439 58.4018 -0.704843 56.7536 0.045056 64.0958C1.24489 58.4018 15.1929 59.151 15.1929 50.4602C15.1929 49.4113 14.743 48.6621 13.9931 48.0627C15.0429 47.4634 16.0927 47.1637 16.9927 47.1637C18.6425 47.1637 20.1422 48.3624 20.1422 50.9097C20.1422 58.5517 5.44425 65.1447 5.44425 74.5848C5.44425 76.233 5.8942 77.5816 6.64408 78.4807C5.59424 78.9303 4.54445 78.7804 3.6445 77.7315C3.49446 80.129 7.09405 81.6275 9.1937 80.4287C9.64364 80.5786 10.2436 80.7284 10.6935 80.7284C10.0936 82.5265 7.84396 83.1259 6.64408 82.976C10.2435 85.8231 16.5427 82.0769 16.2427 78.9302C19.0923 76.6826 20.892 72.6368 22.9918 70.0895C22.8418 70.6888 22.6919 71.2882 22.6919 71.8876C20.5922 75.7835 18.6424 79.0799 18.0426 84.1746C17.5927 88.3701 15.4929 92.2661 12.4933 92.2661C11.8934 92.2661 10.8435 91.367 10.2437 91.8165C9.34382 92.5657 10.2437 93.4647 10.2437 94.214C10.2437 95.4127 7.99397 96.6114 7.99397 100.357C7.99397 102.006 8.89385 103.954 8.59389 105.152C9.49377 104.703 10.8436 103.055 11.2936 101.107C12.3434 106.051 9.19392 105.752 11.4436 110.097C11.7436 108.599 13.0935 107.999 13.9932 108.599C14.8931 109.198 14.4432 109.648 13.8432 110.247C13.2433 110.846 12.6434 114.143 15.493 113.993C14.8931 113.693 14.8931 112.794 16.3929 112.495C18.4926 112.045 19.0926 113.094 21.1922 113.094C22.542 113.094 22.842 111.296 24.0418 111.296C25.0916 111.296 25.0916 112.195 24.7917 112.794C26.4415 112.345 26.8913 111.446 26.8913 110.397C26.8913 109.498 26.1414 108.898 26.7413 108.449C27.3412 108.149 29.2909 108.449 28.541 110.097C29.5908 109.947 30.1907 109.198 30.1907 107.849C30.1907 106.651 28.6909 105.902 27.491 106.051C27.191 105.302 26.1412 104.853 25.0913 104.853C22.6915 104.853 22.9916 106.801 21.3418 106.801C18.6421 106.801 16.0925 103.354 16.0925 97.5105C16.0925 94.3638 19.392 93.6145 21.7917 92.5657C24.1915 91.5168 28.2409 88.9695 30.7905 84.7738C32.7403 81.4772 32.7403 77.881 32.5902 73.6855C35.8898 75.6334 36.3397 78.3307 36.3397 80.2786C36.3397 82.826 34.9899 83.8748 33.94 84.3245C33.0402 84.774 32.7402 84.6241 32.5902 85.0737C32.4401 85.673 32.8902 86.1226 33.3401 86.2724C34.5399 86.8718 34.24 88.0705 34.6899 89.2692C34.9899 90.468 36.1897 92.4159 37.9894 93.9144C38.1395 93.1652 38.1395 91.9665 37.9894 90.3183C40.5391 91.517 38.4394 96.7615 43.5386 96.7615C42.6388 96.1621 42.9388 94.9634 43.3888 94.6637C43.8387 94.364 44.5886 94.9633 45.4884 96.3119C46.3883 97.6604 46.2383 97.5106 48.488 97.5106C50.8878 97.5106 49.8378 96.7614 51.0376 96.7614C52.2375 96.7614 52.2375 98.2598 51.4876 99.3087C53.5872 98.7094 54.1872 97.0611 53.4373 95.4128C55.2371 94.3639 56.2869 95.8623 56.5868 96.9112C58.3866 95.1131 56.5868 92.8654 55.087 92.7157C55.087 92.1163 54.4871 91.3671 53.7372 91.2172C52.9873 91.2172 52.2375 91.0673 51.3375 91.2172C50.4376 91.2172 49.9877 92.5658 48.9377 92.5658C45.7883 92.5658 39.639 86.8718 39.639 84.4743C39.639 82.0769 45.4881 80.5784 45.4881 76.8323C45.4881 71.8875 40.6889 70.2392 36.4894 67.0926C37.9892 65.4444 42.1886 64.9948 44.5882 66.1936C44.8882 64.845 45.788 65.1447 46.088 62.7473C46.9879 64.8451 46.088 66.6432 46.9879 67.5422C47.7378 66.4933 49.3876 66.6431 49.3876 64.0959C49.9876 65.7441 48.6377 68.1417 49.9876 69.3404C50.1376 67.9919 51.0374 67.6922 51.4873 67.6922C51.9372 67.6922 52.3872 67.9919 52.3872 68.891C52.3872 70.8389 49.9875 69.9399 49.9875 72.1876C49.9875 73.0866 51.1873 73.3863 51.1873 73.9856C51.1873 74.585 50.2874 75.4841 49.0876 74.7349C49.5376 75.6339 50.2875 76.3831 51.3373 76.3831C52.3872 76.3831 53.587 75.484 54.037 74.4351C54.6369 75.7837 54.187 77.4319 53.1371 77.5818C54.187 78.1812 56.7366 77.5818 56.4366 74.2852C57.9364 74.5849 58.6864 75.4839 57.7865 77.282C58.9863 76.9823 60.0361 76.383 60.0361 75.1842C60.0361 74.2851 58.9863 73.9854 59.4362 72.6368L59.437 72.6354ZM31.5396 28.1338C30.1898 28.2837 30.1898 26.935 27.7901 26.3357C29.44 26.036 31.5396 25.1369 33.4894 24.3877C33.9393 26.0359 33.1894 27.9839 31.5396 28.1338ZM41.1382 38.1732C39.3385 38.9224 37.9888 37.424 37.6887 36.3751C37.3887 35.3262 37.0887 34.4272 37.5386 34.1276C38.2885 33.3784 38.5885 32.779 38.1385 31.88C37.6886 30.8311 36.4889 31.2806 35.289 31.5803C35.8889 30.5314 35.8889 29.7822 35.139 29.9321C34.2391 30.082 34.2391 31.5803 33.6392 31.2807C33.1892 31.1308 33.4891 30.2318 33.4891 29.7823C33.4891 29.1829 33.939 28.8832 34.5389 28.5835L39.4883 26.6356C40.0882 26.3359 40.5382 26.3359 40.9881 26.7854C41.2881 27.0851 42.188 27.5347 41.888 27.9842C41.588 28.4337 40.5382 27.3848 39.7883 27.9842C39.1884 28.4337 39.6383 28.8833 40.8382 29.3328C39.7883 29.9321 38.5885 30.3817 39.0385 31.5803C39.3384 32.4794 39.9383 32.7791 40.9882 32.7791C41.5881 32.7791 41.8881 33.5283 42.488 34.5772C42.788 35.6261 42.938 37.4243 41.1382 38.1734V38.1732ZM41.4382 24.238C40.0884 25.2869 38.2887 24.3878 37.5386 22.8894C39.3383 22.1402 41.5881 21.2412 42.938 20.342C41.5882 22.4399 42.488 23.3388 41.4382 24.238" fill="white"/>
<path d="M153.719 96.4757C153.719 98.7232 155.518 100.671 157.918 100.671C160.168 100.671 162.117 98.8731 162.117 96.4757C162.117 94.0782 160.318 92.2802 157.918 92.2802C155.518 92.2802 153.719 94.0782 153.719 96.4757ZM154.768 96.4757C154.768 94.8275 156.118 93.329 157.918 93.329C159.568 93.329 161.067 94.6776 161.067 96.4757C161.067 98.2738 159.568 99.4725 157.768 99.4725C156.118 99.4725 154.768 98.1239 154.768 96.4757" fill="white"/>
<path d="M138.223 100.19C137.623 100.64 137.323 101.089 137.173 101.688C137.023 102.438 137.323 103.187 137.773 103.786C138.223 104.386 138.973 104.685 139.873 104.835C140.773 104.985 141.522 104.835 142.272 104.535C143.022 104.086 143.472 103.487 143.622 102.737C143.922 101.239 142.722 99.8905 140.923 99.5907C139.873 99.5907 138.823 99.7406 138.223 100.19L138.223 100.19ZM140.023 103.936C138.823 103.786 138.073 102.887 138.223 101.988C138.373 101.539 138.523 101.239 138.823 101.089C139.273 100.789 140.023 100.64 140.623 100.789C141.672 100.939 142.572 101.688 142.572 102.587V102.737C142.272 103.636 141.223 104.236 140.023 103.936" fill="white"/>
<path d="M115.25 42.0701C113.9 43.119 113.6 44.7673 114.35 45.8162C115.25 46.8651 116.9 46.8651 118.25 45.966C119 45.3667 119.45 44.6175 119.45 43.8682C119.45 43.2688 119.45 42.6695 119 42.22C118.7 41.7705 118.1 41.4708 117.5 41.4708C116.9 41.1711 116 41.4708 115.25 42.0702L115.25 42.0701ZM115.1 44.4676C115.1 43.8682 115.4 43.2689 116 42.8194C116.45 42.5197 117.05 42.22 117.5 42.3699C117.8 42.3699 118.1 42.5198 118.25 42.8194C118.4 43.1191 118.55 43.4188 118.4 43.7184C118.4 44.168 117.95 44.7673 117.5 45.067C116.75 45.6664 115.55 45.6664 115.1 45.067V44.4677" fill="white"/>
<path d="M133.249 93.3341C132.649 93.9334 132.199 94.8325 132.199 95.8814V96.0313C132.199 96.9304 132.499 97.8294 133.099 98.4288C133.549 98.8783 134.149 99.178 134.749 99.178C135.349 99.178 135.949 98.8783 136.398 98.4288C136.998 97.8294 137.448 96.9303 137.448 95.8814C137.448 94.9824 137.148 94.2332 136.698 93.6339C136.248 93.0345 135.499 92.585 134.749 92.585C134.299 92.585 133.699 92.8847 133.249 93.3342L133.249 93.3341ZM134.899 98.1291C134.449 98.1291 134.149 97.8294 133.999 97.6796C133.549 97.23 133.399 96.6307 133.399 95.8815C133.399 95.1323 133.699 94.5329 134.149 94.0834C134.299 93.9335 134.749 93.6338 135.049 93.6338C135.948 93.6338 136.698 94.6827 136.548 95.8814C136.548 96.6306 136.248 97.23 135.799 97.6795C135.648 97.8294 135.349 98.129 134.899 98.129V98.1291Z" fill="white"/>
<path d="M112.959 59.8398C112.359 59.9896 111.759 60.4391 111.609 61.0385C111.009 62.3871 111.759 64.0353 113.409 64.7845C114.309 65.2341 115.209 65.2341 116.109 64.9344C116.709 64.7845 117.308 64.3351 117.458 63.7357C117.758 63.1363 117.758 62.537 117.458 61.9376C117.158 61.1884 116.559 60.4392 115.659 59.9896C114.759 59.5401 113.709 59.5401 112.959 59.8398ZM113.709 63.8856C112.659 63.436 112.059 62.2374 112.509 61.4881C112.659 61.0386 113.109 60.8888 113.259 60.8888C113.859 60.7389 114.459 60.7389 115.059 61.0386C115.659 61.3383 116.109 61.7878 116.409 62.3872C116.559 62.6869 116.559 62.9866 116.409 63.4361C116.258 63.8857 115.809 64.0355 115.659 64.0355C115.059 64.1854 114.459 64.1854 113.709 63.8856" fill="white"/>
<path d="M156.68 55.5363C158.03 59.2823 160.73 60.6309 162.829 59.5821C158.18 58.9827 161.929 51.1908 156.08 51.1908C155.78 51.1908 155.48 51.1908 155.18 51.3407C154.13 50.2918 153.081 49.8423 151.281 49.8423C148.731 49.8423 144.532 52.2397 144.532 57.1845C144.532 67.8233 156.98 68.8722 156.98 78.312C156.98 81.0092 154.88 82.8073 152.481 82.8073C150.381 82.8073 148.731 80.4098 146.931 76.8136C146.032 75.0155 144.232 72.6181 142.432 70.2205C143.032 70.67 143.632 70.8198 144.232 70.8198C144.832 70.8198 145.582 70.67 146.031 70.2205C146.481 69.771 146.781 69.1716 146.781 68.5723V68.4224C146.781 67.5233 146.481 66.7742 145.731 66.0249C144.982 65.2757 144.232 64.8262 143.332 64.8262C142.732 64.8262 141.982 64.9761 141.532 65.4255C141.082 65.8751 140.782 66.4745 140.782 67.0738V67.2236C140.782 67.5233 140.782 67.9728 140.932 68.2725C138.232 64.8262 135.833 61.3798 135.833 59.4318C135.833 57.7836 137.033 56.2851 138.383 54.6369L138.832 54.9366L139.132 54.4871C139.582 53.8877 140.632 52.8389 142.882 50.4412L143.032 50.2914L143.482 49.692L142.132 48.6431C142.432 47.8939 142.732 46.9949 143.032 45.9459C143.482 47.5941 144.382 48.7928 145.582 48.3433C144.832 46.5453 146.332 44.1478 145.282 39.8024C146.332 41.4506 147.831 42.3497 148.881 42.05C146.181 39.6525 149.631 36.206 146.181 30.9617C147.381 31.4112 148.131 31.1115 148.731 30.5121C145.432 30.0626 146.931 25.867 141.232 24.3686C142.732 24.0689 143.482 23.3197 143.332 22.5705C141.832 23.6194 140.482 20.4727 135.533 20.6226C135.233 18.8245 133.433 16.7266 131.483 15.8277C131.783 17.3261 131.483 18.5249 131.183 19.7236L114.986 3.84025C114.536 3.39072 114.236 3.24089 114.086 3.39072C113.936 3.54057 113.936 3.84025 114.236 4.13993L128.184 21.6708C127.134 21.9705 126.084 22.4201 125.034 22.8696C124.284 23.1693 123.835 23.7686 123.835 24.6677C121.285 26.0163 119.035 27.5146 117.835 28.5636C116.935 29.3128 116.336 29.4627 117.085 31.2608C117.385 31.8602 116.486 33.5084 118.435 32.3097C119.785 31.5605 122.785 29.9123 123.235 30.9611C123.535 31.5605 122.035 32.1599 120.985 32.6093C119.935 33.0589 118.885 33.8081 119.035 34.2575C119.185 34.7071 119.935 34.2575 120.085 34.7071C120.085 35.1566 120.535 35.6061 120.835 35.6061C121.285 35.6061 121.735 34.7071 122.035 35.0068C122.335 35.3064 121.885 37.2543 121.585 37.704C123.235 37.5541 124.134 36.0558 124.284 34.8569C124.284 33.6581 124.584 33.3584 124.884 33.2087C125.184 33.0588 125.484 34.4074 125.034 35.3065C125.934 35.1566 126.684 33.9579 126.684 32.0099C127.134 31.7102 127.584 31.4106 127.884 31.4106C128.484 31.4106 129.534 32.909 131.034 32.909C133.733 32.909 135.383 30.6614 135.533 29.6124C135.683 28.7133 135.533 27.9642 135.083 27.3648C136.133 28.1141 136.433 29.4627 136.433 30.3616C136.433 34.2576 129.534 36.0557 126.684 38.7529C126.534 38.9028 126.534 38.9028 126.384 39.0526L123.085 37.8538L122.935 38.6031C122.935 38.6031 122.935 38.7529 122.785 39.2024C122.485 40.2513 121.735 42.6487 121.285 43.9973L121.135 44.5967L121.435 44.7466C119.485 47.2939 117.985 50.1408 117.685 53.1378C116.935 52.3886 116.185 51.6394 115.285 51.04C115.435 50.7403 115.435 50.4406 115.435 50.1409C115.435 49.2418 115.285 48.4927 114.686 47.8933C114.236 47.4438 113.786 47.1441 113.186 47.1441C112.586 47.1441 112.136 47.294 111.536 47.7435C111.386 47.8934 111.386 47.8934 111.236 48.0432C111.086 47.8933 110.936 47.8933 110.936 47.7435C109.886 46.8444 108.536 45.9454 107.787 45.0463C107.487 44.5967 107.037 44.4469 106.437 44.4469H104.937C104.487 44.4469 104.187 44.7466 103.587 45.346C103.287 45.6456 102.537 46.0952 101.787 46.8444C102.237 47.2939 102.537 47.5936 102.987 48.0431C103.137 48.3428 103.437 48.4927 103.587 48.7923C103.737 48.6425 104.037 48.4927 104.187 48.3428C104.487 48.0431 104.937 48.0431 105.387 48.0431C105.837 48.0431 106.437 48.3428 106.737 48.9422C107.037 49.3917 109.586 52.8381 111.836 55.2356C111.536 55.3855 111.386 55.3855 111.086 55.5353C110.186 55.9848 108.087 55.8349 107.187 55.8349C106.287 55.6851 106.137 55.5353 105.387 56.5841C105.087 57.0337 104.787 57.4832 104.487 57.7829C104.187 58.2324 103.887 58.5321 104.637 59.7309C105.537 61.3791 107.937 65.5748 108.836 67.5228C109.586 69.4707 110.486 69.7703 112.136 70.3698C113.636 70.9692 116.185 72.4677 116.485 72.7673L116.635 71.2689C116.185 70.8193 114.686 70.22 114.236 70.0701C113.636 69.9202 113.486 69.6206 114.236 69.6206C114.836 69.6206 116.635 70.22 117.985 70.8194C117.535 69.3209 116.185 67.8225 115.435 66.9234C114.386 66.6237 113.186 66.6237 112.736 66.9234C112.736 67.2231 112.586 67.6726 112.136 67.6726C111.686 67.6726 111.386 67.3729 111.536 66.9234C111.686 66.4739 112.286 66.324 112.136 65.5748C111.986 64.6758 110.936 64.6758 110.336 64.5259C109.436 63.1773 108.386 61.2294 107.787 60.4801C107.337 59.7309 107.636 59.2814 107.937 58.9817C108.686 58.3823 110.336 59.2814 113.636 59.5811C114.836 59.5811 116.185 59.7309 117.685 59.7309C118.135 63.6269 119.635 67.2231 125.034 68.5717C127.584 69.171 130.284 71.119 131.183 73.6663C120.535 73.5164 118.885 77.5623 118.885 81.6079C118.885 86.1032 122.634 85.8035 122.634 89.1C122.634 91.9471 113.636 93.1459 110.936 93.5953C108.687 93.895 107.337 94.4944 106.287 95.5433C105.237 96.5922 104.037 97.6412 102.087 99.7388C102.087 99.7388 102.987 99.8887 103.737 99.8887L105.237 97.9408C105.687 97.3414 105.987 96.742 106.287 96.742C106.587 96.742 106.437 97.3414 105.987 97.9408L104.787 100.039C110.036 100.338 110.336 98.3904 110.336 97.6412C110.336 96.8919 108.986 96.2926 109.736 95.8431C110.486 95.3936 111.086 95.6932 111.686 96.4425C112.286 97.1917 112.436 97.791 113.936 97.1916C113.936 97.1916 125.334 92.3968 126.834 91.7974C128.184 91.198 127.734 90.5986 126.984 89.9993C126.084 89.2501 125.934 88.2012 125.934 87.0025C125.934 83.556 128.034 82.5072 131.783 82.5072C131.783 83.1066 131.633 83.7059 131.633 84.1554C131.633 89.5496 139.882 94.7942 141.982 94.7942C143.032 94.7942 144.231 94.045 144.382 97.3415C144.382 99.739 144.981 101.387 144.532 104.234C144.082 106.932 143.332 107.381 141.682 108.58C140.032 109.778 138.383 113.375 137.782 114.124C138.532 114.573 139.282 114.723 139.882 112.925C140.332 111.427 140.932 110.378 141.682 110.078C141.082 111.726 140.632 114.124 140.182 114.873C142.282 115.173 145.731 113.375 145.731 111.876C145.731 110.378 144.531 110.528 144.531 109.479C144.531 109.029 145.131 108.58 145.731 108.58C146.631 108.58 147.231 109.179 147.231 109.629C148.131 109.179 148.731 108.28 148.731 106.032C148.731 105.133 148.731 104.384 148.581 103.485C148.581 103.635 148.731 103.785 148.731 103.785C149.181 104.384 149.781 104.834 150.681 104.834C151.431 104.834 152.33 104.684 152.93 104.234C153.68 103.635 154.28 102.886 154.43 101.987V101.387C154.43 100.938 154.28 100.488 153.98 100.039C153.68 99.5892 153.08 99.1396 152.48 98.9898C151.581 98.8399 150.681 98.9898 149.781 99.5892C149.031 100.039 148.431 100.788 148.281 101.537C148.131 98.5403 147.831 95.8431 147.981 94.6444C148.131 92.9962 148.131 92.2469 147.681 91.9472C147.081 91.6475 146.481 92.6964 145.731 92.6964C144.981 92.6964 142.582 90.4488 142.582 88.2011C142.582 85.8036 145.131 82.8068 144.981 79.6601C144.981 78.6112 145.581 78.1617 146.031 79.0607C146.481 80.1096 147.231 81.6081 148.281 82.8068C147.681 86.8526 152.031 90.7484 155.63 87.9015C153.83 88.2011 152.63 86.5529 151.73 84.9046C152.03 84.9046 152.33 85.0545 152.78 85.0545H153.38C154.73 86.7027 158.779 86.553 159.829 82.5072C159.079 83.4063 157.58 84.0056 156.53 83.8558C158.03 82.6571 158.93 80.7091 158.93 78.6112C158.93 68.4219 146.481 67.2232 146.481 57.9322C146.481 54.4859 149.481 52.2381 151.581 52.2381C152.331 52.2381 152.931 52.5378 153.53 52.8375C152.781 53.5867 152.331 54.9354 152.331 56.4337C152.631 63.7759 164.629 63.4763 164.779 66.9226C165.829 61.0787 156.98 62.7271 156.68 55.5346L156.68 55.5363ZM124.735 27.3647C125.335 26.3158 124.735 24.5176 126.835 24.5176C127.885 24.5176 128.785 25.5665 129.984 25.8662C127.885 26.1658 126.085 26.6154 124.735 27.3646L124.735 27.3647ZM113.786 49.8403C113.786 50.4396 113.487 51.039 113.187 51.3387C113.037 51.4886 112.737 51.6384 112.437 51.6384C111.687 51.6384 111.237 50.7393 111.237 49.8403V49.6904C111.237 49.091 111.537 48.4917 111.837 48.192C111.987 48.0421 112.287 47.8923 112.587 47.8923C112.887 47.8923 113.187 48.192 113.337 48.3418C113.637 48.7914 113.786 49.2409 113.786 49.8403V49.8403ZM149.182 101.386C149.332 100.786 149.782 100.187 150.232 99.8874C150.832 99.4378 151.432 99.288 152.032 99.4378C152.332 99.4378 152.632 99.5877 152.932 100.037C153.232 100.337 153.082 100.786 153.082 101.086C152.932 101.686 152.482 102.285 152.032 102.585C150.982 103.184 149.782 103.184 149.332 102.435C149.032 101.985 149.182 101.685 149.182 101.386L149.182 101.386ZM141.683 67.2222C141.683 66.9225 141.833 66.6229 142.133 66.3232C142.433 66.0235 142.883 66.0235 143.033 66.0235C143.633 66.0235 144.233 66.3232 144.683 66.9225C145.133 67.3721 145.432 68.1213 145.432 68.7206C145.432 69.0203 145.282 69.32 144.983 69.6197C144.683 69.9194 144.233 69.9194 144.083 69.9194C143.483 69.9194 142.883 69.6197 142.433 69.0203C141.983 68.4209 141.683 67.8216 141.683 67.2222ZM121.436 44.146C122.036 42.3479 123.086 38.7517 123.086 38.7517L125.036 39.5009C124.436 39.6508 123.836 40.2502 123.236 40.8495C123.686 40.9994 124.436 40.9994 124.886 40.6997L124.136 42.6476C123.986 42.3479 123.386 41.5987 122.936 41.5987C122.486 43.0972 123.536 43.6966 124.136 43.9962C125.335 44.5956 126.085 44.7454 126.385 44.1461C126.685 43.5467 125.935 42.6476 125.035 42.9473C124.885 41.8984 125.485 41.4489 126.085 41.4489C126.535 41.4489 126.985 41.8984 127.135 42.4978C127.135 40.8496 127.735 39.6507 129.235 39.2012C129.835 40.6997 129.385 41.7486 128.185 42.9473C128.785 42.6476 129.535 42.7974 129.835 43.0972C130.135 43.6965 130.135 44.4458 129.235 44.8953C129.085 43.8464 127.885 43.8464 127.435 44.4457C127.135 45.0451 127.585 45.7943 128.635 46.3937C129.835 47.1429 130.885 46.6934 131.485 45.6445C131.035 45.4946 130.435 45.6445 129.685 45.9442L130.885 43.5467C130.885 43.8464 131.185 44.4458 131.635 44.8953C131.785 44.2959 132.085 43.3969 131.635 42.6477L134.334 44.1462C133.434 44.296 132.685 44.8954 132.384 45.3449C132.984 45.6446 133.584 45.4948 134.034 45.3449L132.684 47.5925C132.684 46.8433 132.384 46.2439 132.084 45.9443C131.485 46.9932 131.635 48.0421 132.834 48.7912C133.884 49.3906 134.634 49.5404 135.084 48.9411C135.534 48.3417 134.784 47.2929 133.884 47.5925C133.884 46.5436 134.484 46.0941 135.084 46.0941C135.684 46.0941 135.984 46.6934 136.134 47.4427C136.584 45.7945 137.184 44.8953 138.834 44.5956C139.134 46.094 138.384 47.2928 137.034 48.0419C137.634 47.892 138.234 47.892 138.534 48.3415C138.834 48.9409 138.684 49.6901 137.784 49.9897C137.634 48.9408 136.434 48.791 136.134 49.3904C135.834 49.9898 136.284 50.5891 137.334 51.1885C137.934 51.638 138.984 52.0875 140.033 51.0386C139.734 50.5891 138.834 50.4392 138.384 50.4392L139.584 48.791C139.584 49.3904 139.883 49.9897 140.333 50.2894C140.483 49.5402 140.633 48.6412 140.483 48.0419L142.133 49.2406C142.133 49.2406 139.584 51.9378 138.384 53.4361L121.436 44.146ZM138.234 86.4008C137.484 87.2999 136.434 87.7494 135.684 87.1501C134.934 86.5507 134.934 85.352 135.534 84.4528C136.134 83.5538 137.334 83.1043 138.084 83.7036C138.834 84.303 138.834 85.5017 138.234 86.4008ZM143.033 78.7589C142.283 79.6579 141.233 80.1074 140.484 79.508C139.734 78.9087 139.734 77.71 140.333 76.8108C141.083 75.9118 142.133 75.4622 142.883 76.0616C143.633 76.5112 143.783 77.7098 143.033 78.7589Z" fill="white"/>
</svg>
