<svg width="58" height="57" viewBox="0 0 58 57" fill="none" xmlns="http://www.w3.org/2000/svg">
<circle cx="28.747" cy="28.4999" r="27.8104" stroke="url(#paint0_linear)" stroke-width="1.37903"/>
<g clip-path="url(#clip0)">
<path d="M18.3751 19.0126H19.2783C19.5277 19.0126 19.7299 18.8104 19.7299 18.5609C19.7299 18.3116 19.5277 18.1094 19.2783 18.1094H18.3751C18.1255 18.1094 17.9233 18.3116 17.9233 18.5609C17.9233 18.8104 18.1255 19.0126 18.3751 19.0126Z" fill="white"/>
<path d="M21.0845 19.0126H21.9878C22.2371 19.0126 22.4395 18.8104 22.4395 18.5609C22.4395 18.3116 22.2371 18.1094 21.9878 18.1094H21.0845C20.835 18.1094 20.6328 18.3116 20.6328 18.5609C20.6328 18.8104 20.835 19.0126 21.0845 19.0126Z" fill="white"/>
<path d="M23.7948 19.0126H25.6013C25.8509 19.0126 26.0531 18.8104 26.0531 18.5609C26.0531 18.3116 25.8509 18.1094 25.6013 18.1094H23.7948C23.5455 18.1094 23.3433 18.3116 23.3433 18.5609C23.3433 18.8104 23.5455 19.0126 23.7948 19.0126Z" fill="white"/>
<path d="M27.4076 19.0126H37.3437C37.5932 19.0126 37.7954 18.8104 37.7954 18.5609C37.7954 18.3116 37.5932 18.1094 37.3437 18.1094H27.4076C27.1583 18.1094 26.9561 18.3116 26.9561 18.5609C26.9561 18.8104 27.1583 19.0126 27.4076 19.0126Z" fill="white"/>
<path d="M40.9567 24.8834H40.0535V18.1089C40.052 16.8622 39.0419 15.852 37.7954 15.8506H17.4716C16.225 15.852 15.2148 16.8622 15.2134 18.1089V34.8194C15.2148 36.066 16.225 37.0762 17.4716 37.0776H26.0528V39.7874C26.0528 40.5358 26.6594 41.1424 27.4076 41.1424H40.9567C41.7052 41.1424 42.3117 40.5358 42.3117 39.7874V26.2382C42.3117 25.49 41.7052 24.8834 40.9567 24.8834ZM17.4716 36.1744C16.7232 36.1744 16.1166 35.5678 16.1166 34.8194V18.1089C16.1166 17.3604 16.7232 16.7539 17.4716 16.7539H37.7954C38.5436 16.7539 39.1502 17.3604 39.1502 18.1089V24.8834H37.7954V21.2702C37.7954 20.7713 37.391 20.3669 36.8921 20.3669H18.3749C17.8876 20.3566 17.4836 20.7424 17.4716 21.2297V33.9568C17.4836 34.4441 17.8876 34.8297 18.3749 34.8194H26.0528V36.1744H17.4716ZM27.4076 24.8834C26.8355 24.8857 26.3265 25.2473 26.1359 25.7867H22.4397V23.9802H36.8921V24.8834H27.4076ZM18.3749 33.9126V32.1096H21.5362V33.9161L18.3749 33.9126ZM36.8921 21.2702V23.0769H22.4397V21.2702H36.8921ZM21.5362 23.0769H18.3749V21.2702H21.5362V23.0769ZM18.3749 29.3998H21.5362V31.2063H18.3749V29.3998ZM22.4397 29.3998H26.0528V31.2063H22.4397V29.3998ZM26.0528 28.4965H22.4397V26.69H26.0528V28.4965ZM21.5362 28.4965H18.3749V26.69H21.5362V28.4965ZM18.3749 25.7867V23.9802H21.5362V25.7867H18.3749ZM22.4397 32.1096H26.0528V33.9161H22.4397V32.1096ZM41.4085 39.7874C41.4085 40.037 41.2063 40.2392 40.9567 40.2392H27.4076C27.1582 40.2392 26.956 40.037 26.956 39.7874V26.2382C26.956 25.9889 27.1582 25.7867 27.4076 25.7867H40.9567C41.2063 25.7867 41.4085 25.9889 41.4085 26.2382V39.7874Z" fill="white"/>
<path d="M33.7307 32.1101H32.0145L32.3757 28.497C32.3757 27.9981 32.7801 27.5937 33.279 27.5937C33.7778 27.5937 34.1822 27.9981 34.1822 28.497C34.1822 28.7463 34.3844 28.9485 34.634 28.9485C34.8833 28.9485 35.0855 28.7463 35.0855 28.497C35.0656 27.5226 34.2765 26.7399 33.3019 26.7277C32.3275 26.7155 31.5192 27.4784 31.4747 28.4517L31.1113 32.1101H29.6659C29.4166 32.1101 29.2144 32.3123 29.2144 32.5618C29.2144 32.8111 29.4166 33.0133 29.6659 33.0133H31.0209L30.5692 37.5299C30.5692 38.0287 30.1648 38.4331 29.6659 38.4331C29.167 38.4331 28.7626 38.0287 28.7626 37.5299C28.7626 37.2803 28.5604 37.0781 28.3109 37.0781C28.0616 37.0781 27.8594 37.2803 27.8594 37.5299C27.8794 38.504 28.6686 39.2868 29.643 39.299C30.6173 39.3112 31.4259 38.5485 31.4702 37.5749L31.9242 33.0133H33.7307C33.98 33.0133 34.1822 32.8111 34.1822 32.5618C34.1822 32.3123 33.98 32.1101 33.7307 32.1101Z" fill="white"/>
<path d="M39.0179 34.0491C38.8416 33.873 38.5557 33.873 38.3793 34.0491L36.6662 35.7622L34.9531 34.0491C34.776 33.8781 34.4944 33.8804 34.3201 34.0547C34.1458 34.229 34.1435 34.5106 34.3145 34.6877L36.0276 36.4008L34.3145 38.1139C34.1973 38.2274 34.1501 38.3953 34.1915 38.5532C34.2328 38.711 34.3561 38.8344 34.514 38.8757C34.672 38.9171 34.8398 38.87 34.9531 38.7525L36.6662 37.0394L38.3793 38.7525C38.5565 38.9237 38.8383 38.9212 39.0126 38.7472C39.1866 38.5729 39.1891 38.2911 39.0179 38.1139L37.3049 36.4008L39.0179 34.6877C39.1943 34.5114 39.1943 34.2255 39.0179 34.0491Z" fill="white"/>
</g>
<defs>
<linearGradient id="paint0_linear" x1="59.7099" y1="28.4999" x2="7.37206" y2="28.4999" gradientUnits="userSpaceOnUse">
<stop stop-color="white"/>
<stop offset="1" stop-color="white" stop-opacity="0"/>
</linearGradient>
<clipPath id="clip0">
<rect width="27.0984" height="27.0984" fill="white" transform="translate(15.2134 14.9512)"/>
</clipPath>
</defs>
</svg>
