<svg width="58" height="58" viewBox="0 0 58 58" fill="none" xmlns="http://www.w3.org/2000/svg">
<circle cx="28.6118" cy="28.5634" r="27.8724" stroke="url(#paint0_linear)" stroke-width="1.3821"/>
<g clip-path="url(#clip0)">
<path d="M21.7166 24.417C20.4445 24.417 19.4131 25.4484 19.4131 26.7205C19.4131 27.9926 20.4445 29.024 21.7166 29.024C22.9887 29.024 24.0201 27.9926 24.0201 26.7205C24.0185 25.4488 22.9882 24.4186 21.7166 24.417ZM21.7166 28.1026C20.9533 28.1026 20.3345 27.4838 20.3345 26.7205C20.3345 25.9572 20.9533 25.3384 21.7166 25.3384C22.4798 25.3384 23.0987 25.9572 23.0987 26.7205C23.0987 27.4838 22.4798 28.1026 21.7166 28.1026Z" fill="white"/>
<path d="M30.9305 19.3492C32.2026 19.3492 33.234 18.3178 33.234 17.0457C33.234 15.7736 32.2026 14.7422 30.9305 14.7422C29.6584 14.7422 28.627 15.7736 28.627 17.0457C28.6285 18.3173 29.6588 19.3476 30.9305 19.3492ZM30.9305 15.6636C31.6937 15.6636 32.3126 16.2824 32.3126 17.0457C32.3126 17.8089 31.6937 18.4278 30.9305 18.4278C30.1672 18.4278 29.5484 17.8089 29.5484 17.0457C29.5484 16.2824 30.1672 15.6636 30.9305 15.6636Z" fill="white"/>
<path d="M41.9875 26.9157V25.3383C41.9839 24.1807 41.12 23.2065 39.9714 23.0638L35.052 17.4922C35.0682 17.3438 35.0765 17.1949 35.077 17.0457C35.077 14.7557 33.2207 12.8994 30.9307 12.8994C28.6406 12.8994 26.7843 14.7557 26.7843 17.0457C26.7843 17.1191 26.7918 17.1904 26.7954 17.2623L21.471 22.5865C19.801 22.6816 18.3527 23.7736 17.8014 25.3529C17.25 26.9323 17.7044 28.6883 18.9524 29.802V36.8558H16.1882C15.9338 36.8558 15.7275 37.0621 15.7275 37.3165V40.0807C15.7275 40.3352 15.9338 40.5414 16.1882 40.5414H33.6949C33.9493 40.5414 34.1556 40.3352 34.1556 40.0807V37.3165C34.1556 37.0621 33.9493 36.8558 33.6949 36.8558H24.4808V29.802C25.5383 28.8712 26.0398 27.4598 25.8067 26.0703L30.6958 21.1801C30.7741 21.1846 30.8515 21.192 30.9307 21.192C31.1651 21.1907 31.3988 21.1693 31.6296 21.1284L37.3805 25.6609V26.9166C36.5423 27.2826 35.9999 28.1095 35.9984 29.0239V33.6309C35.9975 33.7911 36.0798 33.94 36.2157 34.0246C36.3518 34.1092 36.5218 34.1171 36.6649 34.0455L38.5077 33.1241C38.6647 33.0458 38.7635 32.885 38.7626 32.7095V29.4846H40.6054V32.7095C40.6045 32.885 40.7032 33.0458 40.8602 33.1241L42.703 34.0455C42.8461 34.1171 43.0162 34.1092 43.1523 34.0246C43.2881 33.94 43.3705 33.7911 43.3696 33.6309V29.0239C43.3684 28.109 42.8259 27.2817 41.9875 26.9157ZM30.9307 13.8208C32.7118 13.8208 34.1556 15.2646 34.1556 17.0457C34.1556 18.8269 32.7118 20.2706 30.9307 20.2706C29.1495 20.2706 27.7057 18.8269 27.7057 17.0457C27.7078 15.2655 29.1504 13.8228 30.9307 13.8208ZM33.2342 39.62H16.6489V37.7772H33.2342V39.62ZM23.5594 36.8558H19.8738V30.429C21.0332 31.0123 22.4 31.0123 23.5594 30.429V36.8558ZM21.7166 29.9453C19.9355 29.9453 18.4917 28.5016 18.4917 26.7204C18.4917 24.9393 19.9355 23.4955 21.7166 23.4955C23.4978 23.4955 24.9415 24.9393 24.9415 26.7204C24.9395 28.5007 23.4969 29.9433 21.7166 29.9453ZM25.5134 25.0619C24.989 23.8707 23.9371 22.9937 22.6711 22.6915L27.0019 18.361C27.4153 19.5888 28.377 20.5538 29.6034 20.9713L25.5134 25.0619ZM34.7807 18.5767L38.8579 23.1948C38.2265 23.4404 37.7352 23.9517 37.515 24.5924L32.6934 20.793C33.6438 20.3442 34.3895 19.5524 34.7807 18.5767ZM38.3019 25.3383C38.3019 24.5751 38.9207 23.9562 39.684 23.9562C40.4472 23.9562 41.0661 24.5751 41.0661 25.3383V26.7204H38.3019V25.3383ZM42.4482 32.8854L41.5268 32.4247V29.0239C41.5268 28.7695 41.3205 28.5632 41.0661 28.5632H38.3019C38.0474 28.5632 37.8412 28.7695 37.8412 29.0239V32.4247L36.9198 32.8854V29.0239C36.9198 28.2607 37.5386 27.6418 38.3019 27.6418H41.0661C41.8293 27.6418 42.4482 28.2607 42.4482 29.0239V32.8854Z" fill="white"/>
<path d="M21.2556 32.249C21.0012 32.249 20.7949 32.4553 20.7949 32.7097V35.4739C20.7949 35.7283 21.0012 35.9346 21.2556 35.9346C21.51 35.9346 21.7163 35.7283 21.7163 35.4739V32.7097C21.7163 32.4553 21.51 32.249 21.2556 32.249Z" fill="white"/>
<path d="M26.4585 20.4057L24.6157 22.2485C24.496 22.3641 24.4479 22.5355 24.4902 22.6966C24.5322 22.8576 24.658 22.9834 24.8191 23.0255C24.9801 23.0677 25.1515 23.0196 25.2672 22.8999L27.11 21.0571C27.2845 20.8763 27.2821 20.589 27.1043 20.4113C26.9266 20.2336 26.6394 20.2311 26.4585 20.4057Z" fill="white"/>
</g>
<defs>
<linearGradient id="paint0_linear" x1="59.6436" y1="28.5634" x2="7.1892" y2="28.5634" gradientUnits="userSpaceOnUse">
<stop stop-color="white"/>
<stop offset="1" stop-color="white" stop-opacity="0"/>
</linearGradient>
<clipPath id="clip0">
<rect width="27.642" height="27.642" fill="white" transform="translate(15.7275 12.8994)"/>
</clipPath>
</defs>
</svg>
