<svg width="26" height="26" viewBox="0 0 26 26" fill="none" xmlns="http://www.w3.org/2000/svg">
<path d="M13 26C20.1797 26 26 20.1797 26 13C26 5.8203 20.1797 0 13 0C5.8203 0 0 5.8203 0 13C0 20.1797 5.8203 26 13 26Z" fill="#F0F0F0"/>
<path d="M2.68726 5.08534C1.6661 6.41393 0.896102 7.94524 0.447754 9.60878H7.2107L2.68726 5.08534Z" fill="#0052B4"/>
<path d="M25.5521 9.60878C25.1038 7.94529 24.3338 6.41398 23.3126 5.08539L18.7893 9.60878H25.5521Z" fill="#0052B4"/>
<path d="M0.447754 16.3914C0.896152 18.0549 1.66615 19.5862 2.68726 20.9147L7.21055 16.3914H0.447754Z" fill="#0052B4"/>
<path d="M20.9145 2.6874C19.5859 1.66624 18.0547 0.896244 16.3911 0.447845V7.21074L20.9145 2.6874Z" fill="#0052B4"/>
<path d="M5.08521 23.3126C6.41379 24.3338 7.9451 25.1038 9.6086 25.5522V18.7893L5.08521 23.3126Z" fill="#0052B4"/>
<path d="M9.60854 0.447845C7.94505 0.896244 6.41374 1.66624 5.08521 2.68735L9.60854 7.21069V0.447845Z" fill="#0052B4"/>
<path d="M16.3911 25.5522C18.0546 25.1038 19.5859 24.3338 20.9145 23.3127L16.3911 18.7893V25.5522Z" fill="#0052B4"/>
<path d="M18.7893 16.3914L23.3126 20.9148C24.3338 19.5862 25.1038 18.0549 25.5521 16.3914H18.7893Z" fill="#0052B4"/>
<path d="M25.89 11.3044H14.6957H14.6957V0.110043C14.1406 0.0377813 13.5747 0 13 0C12.4252 0 11.8594 0.0377813 11.3044 0.110043V11.3043V11.3043H0.110043C0.0377813 11.8594 0 12.4253 0 13C0 13.5748 0.0377813 14.1406 0.110043 14.6956H11.3043H11.3043V25.89C11.8594 25.9622 12.4252 26 13 26C13.5747 26 14.1406 25.9623 14.6956 25.89V14.6957V14.6957H25.89C25.9622 14.1406 26 13.5748 26 13C26 12.4253 25.9622 11.8594 25.89 11.3044Z" fill="#D80027"/>
<path d="M16.3914 16.3914L22.1924 22.1924C22.4592 21.9257 22.7137 21.6469 22.9566 21.3578L17.9901 16.3913H16.3914V16.3914Z" fill="#D80027"/>
<path d="M9.60871 16.3914H9.60861L3.80762 22.1924C4.07432 22.4592 4.35316 22.7137 4.64221 22.9565L9.60871 17.9899V16.3914Z" fill="#D80027"/>
<path d="M9.60866 9.60877V9.60867L3.80761 3.80757C3.54081 4.07427 3.28629 4.35311 3.04346 4.64216L8.01002 9.60872H9.60866V9.60877Z" fill="#D80027"/>
<path d="M16.3914 9.60877L22.1925 3.80762C21.9258 3.54082 21.6469 3.2863 21.3579 3.04352L16.3914 8.01008V9.60877Z" fill="#D80027"/>
</svg>
