<svg width="47" height="46" viewBox="0 0 47 46" fill="none" xmlns="http://www.w3.org/2000/svg">
<circle cx="23.263" cy="22.8421" r="22.2895" stroke="url(#paint0_linear)" stroke-width="1.10526"/>
<g clip-path="url(#clip0)">
<path d="M16.0765 17.3893L12.4179 15.7252C12.2545 15.6599 12.0585 15.7252 11.9932 15.8884C11.9279 16.0515 11.9932 16.2473 12.1565 16.3125L15.6519 17.9114V24.1438L12.1565 25.6122C11.9932 25.6774 11.8952 25.8732 11.9932 26.0364C12.0585 26.1669 12.1565 26.2321 12.2872 26.2321C12.3199 26.2321 12.3852 26.2321 12.4179 26.1995L16.0765 24.6659C16.2072 24.6006 16.2725 24.5027 16.2725 24.3722V17.683C16.2725 17.5525 16.2072 17.4546 16.0765 17.3893Z" fill="white" stroke="white" stroke-width="0.221053"/>
<path d="M12.9732 24.3062V17.6823C12.9732 17.617 12.9079 17.5518 12.8426 17.5518C12.7772 17.5518 12.7119 17.617 12.7119 17.6823V24.3062C12.7119 24.3715 12.7772 24.4367 12.8426 24.4367C12.9079 24.4367 12.9732 24.3715 12.9732 24.3062Z" fill="white" stroke="white" stroke-width="0.221053"/>
<path d="M14.2472 23.0996V18.8903C14.2472 18.825 14.1818 18.7598 14.1165 18.7598C14.0512 18.7598 13.9858 18.825 13.9858 18.8903V23.0996C13.9858 23.1648 14.0512 23.2301 14.1165 23.2301C14.1818 23.2301 14.2472 23.1648 14.2472 23.0996Z" fill="white" stroke="white" stroke-width="0.221053"/>
<path d="M34.6313 15.8552C34.566 15.692 34.37 15.6267 34.2067 15.692L30.5153 17.3888C30.3847 17.454 30.3193 17.5519 30.3193 17.6824V24.339C30.3193 24.4695 30.3847 24.6001 30.5153 24.6327L34.2067 26.1663C34.2393 26.1989 34.3047 26.1989 34.3373 26.1989C34.468 26.1989 34.5987 26.1337 34.6313 26.0032C34.6967 25.84 34.6313 25.6442 34.468 25.579L30.9727 24.1106V17.9109L34.468 16.312C34.6313 16.2141 34.6967 16.0183 34.6313 15.8552Z" fill="white" stroke="white" stroke-width="0.221053"/>
<path d="M33.6182 17.6823V24.3062C33.6182 24.3715 33.6835 24.4367 33.7488 24.4367C33.8142 24.4367 33.8795 24.3715 33.8795 24.3062V17.6823C33.8795 17.617 33.8142 17.5518 33.7488 17.5518C33.6835 17.5518 33.6182 17.617 33.6182 17.6823Z" fill="white" stroke="white" stroke-width="0.221053"/>
<path d="M32.377 18.8903V23.0996C32.377 23.1648 32.4423 23.2301 32.5076 23.2301C32.573 23.2301 32.6383 23.1648 32.6383 23.0996V18.8903C32.6383 18.825 32.573 18.7598 32.5076 18.7598C32.4423 18.7598 32.377 18.825 32.377 18.8903Z" fill="white" stroke="white" stroke-width="0.221053"/>
<path d="M11.3397 32.6597C11.3397 32.8229 11.503 32.986 11.6663 32.986C11.8623 32.986 11.993 32.8229 11.993 32.6597C11.993 32.5292 11.9277 30.1146 13.6917 28.581C13.463 28.5157 13.2343 28.4178 13.0057 28.3525C11.2743 30.0819 11.3397 32.6271 11.3397 32.6597Z" fill="white" stroke="white" stroke-width="0.221053"/>
<path d="M32.8345 28.5491C34.5658 30.1154 34.5331 32.4974 34.5331 32.6279C34.5331 32.8237 34.6638 32.9542 34.8598 32.9542C35.0231 32.9542 35.1865 32.8237 35.1865 32.6279C35.1865 32.5953 35.2518 30.0827 33.5205 28.2881C33.2918 28.386 33.0631 28.4839 32.8345 28.5491Z" fill="white" stroke="white" stroke-width="0.221053"/>
<path d="M27.0525 12.7881C26.1705 11.646 24.7985 10.8955 23.2631 10.8955C21.7278 10.8955 20.3231 11.646 19.4738 12.7881C14.9005 13.147 10.9805 14.1912 10.9805 15.79V16.2142V26.1012C10.9805 26.8843 11.8951 27.5043 13.3325 28.0264C13.5611 28.0916 13.8225 28.1895 14.0838 28.2548C16.4685 28.94 19.9311 29.2663 23.2958 29.2663C26.6278 29.2663 30.0905 28.9074 32.4751 28.2548C32.7365 28.1895 32.9978 28.0916 33.2265 28.0264C34.6965 27.5369 35.5785 26.8843 35.5785 26.1012V16.2142V15.79C35.5785 14.1585 31.6258 13.147 27.0525 12.7881ZM23.2631 11.5481C24.3738 11.5481 25.3865 12.0049 26.1378 12.7228C25.1905 12.6575 24.2105 12.6249 23.2631 12.6249C22.3158 12.6249 21.3358 12.6575 20.3885 12.7228C21.1398 11.9723 22.1525 11.5481 23.2631 11.5481ZM23.2631 28.6137C19.7351 28.6137 16.8605 28.2548 14.8678 27.798C15.3251 27.6022 15.8151 27.439 16.4031 27.3411C20.1598 26.7538 21.0091 24.9265 21.1725 23.9476C21.7931 24.3718 22.4791 24.6328 23.2631 24.6328C24.0145 24.6328 24.7331 24.3718 25.3538 23.9476C25.5171 24.9265 26.3665 26.7212 30.1231 27.3411C30.7111 27.439 31.2338 27.6022 31.6911 27.798C29.6331 28.2548 26.7911 28.6137 23.2631 28.6137ZM19.9638 17.7152C19.9311 17.65 19.8658 17.65 19.8005 17.6826L18.1998 18.6615V18.3026L19.9311 17.2258C19.9965 17.1931 19.9965 17.1279 19.9638 17.0626C19.9311 16.9974 19.8658 16.9974 19.8005 17.03L18.1998 18.0089V16.0837C18.1998 15.8553 18.3958 15.6922 18.5918 15.6922H18.7878H27.6731H27.8691C28.0978 15.6922 28.2611 15.8879 28.2611 16.0837V19.412C28.2611 19.6404 28.0978 19.8036 27.8691 19.8036H27.5098H24.9618L24.2758 18.6615C24.0471 18.3026 23.6878 18.0742 23.2631 18.0742C22.8385 18.0742 22.4465 18.3026 22.2505 18.6615L21.5645 19.8362H19.0165H18.5918C18.3631 19.8362 18.1998 19.6404 18.1998 19.4446V18.9878L19.9311 17.911C19.9965 17.8457 20.0291 17.7805 19.9638 17.7152ZM21.7605 20.4888C21.8911 20.4888 21.9891 20.4235 22.0545 20.293V20.2604L22.7731 18.9878C22.8711 18.8247 23.0345 18.7268 23.2305 18.7268C23.4265 18.7268 23.5898 18.8247 23.6878 18.9878L24.4065 20.2278L24.4391 20.293C24.5045 20.4235 24.6025 20.4888 24.7331 20.4888H27.0525C26.4318 22.2508 24.9618 23.9802 23.2631 23.9802C21.5645 23.9802 20.0945 22.2508 19.4738 20.4562H21.7605V20.4888ZM34.9251 16.2142V26.1012C34.9251 26.558 34.1085 27.0801 32.5731 27.5369C31.9525 27.1454 31.1685 26.8191 30.2211 26.6885C26.0398 26.0359 25.9418 23.8497 25.9745 23.4581C26.7911 22.675 27.4118 21.5982 27.7711 20.4888H27.9345C28.5225 20.4888 28.9798 20.032 28.9798 19.4446V18.9878H29.1758C29.3718 18.9878 29.5025 18.8573 29.5025 18.6615V17.2258C29.5025 17.03 29.3718 16.8995 29.1758 16.8995H28.9798V16.1163C28.9798 15.5616 28.5551 15.1048 27.9998 15.0722C27.9345 14.6806 27.8365 14.2891 27.7058 13.8975C27.4771 13.8649 27.2158 13.8649 26.9545 13.8322C27.1505 14.2238 27.2811 14.6154 27.3465 15.0395H19.1798C19.2451 14.6154 19.3758 14.1912 19.5718 13.8322C19.3105 13.8649 19.0818 13.8649 18.8205 13.8975C18.6571 14.2564 18.5591 14.648 18.5265 15.0722C17.9711 15.1048 17.5465 15.5616 17.5465 16.1163V16.8995H17.3505C17.1545 16.8995 17.0238 17.03 17.0238 17.2258V18.6615C17.0238 18.8573 17.1545 18.9878 17.3505 18.9878H17.5465V19.4446C17.5465 20.032 18.0038 20.4888 18.5918 20.4888H18.7551C19.1145 21.5982 19.7351 22.675 20.5518 23.4581C20.5518 23.8171 20.4538 26.0359 16.3051 26.6885C15.3578 26.8517 14.5738 27.1454 13.9531 27.5369C12.4505 27.0801 11.6011 26.558 11.6011 26.1012V16.2142V15.79C11.6011 14.9743 14.3451 13.8975 19.0165 13.4733C19.2778 13.4407 19.5391 13.4407 19.8005 13.408C20.8785 13.3428 22.0218 13.2775 23.2631 13.2775C24.5045 13.2775 25.6478 13.3101 26.6931 13.408C26.9545 13.4407 27.2158 13.4407 27.4771 13.4733C32.1485 13.8975 34.8925 14.9743 34.8925 15.8227V16.2142H34.9251Z" fill="white" stroke="white" stroke-width="0.221053"/>
</g>
<defs>
<linearGradient id="paint0_linear" x1="48.0791" y1="22.8421" x2="6.13143" y2="22.8421" gradientUnits="userSpaceOnUse">
<stop stop-color="white"/>
<stop offset="1" stop-color="white" stop-opacity="0"/>
</linearGradient>
<clipPath id="clip0">
<rect width="28" height="24.3158" fill="white" transform="translate(9.26318 10.3154)"/>
</clipPath>
</defs>
</svg>
